<?xml version="1.0" encoding="UTF-8"?> <svg xmlns="http://www.w3.org/2000/svg" width="1081" height="1081" viewBox="0 0 1081 1081" fill="none"> <path d="M540.067 1080.13C838.338 1080.13 1080.13 838.338 1080.13 540.067C1080.13 241.796 838.338 0 540.067 0C241.796 0 0 241.796 0 540.067C0 838.338 241.796 1080.13 540.067 1080.13Z" fill="url(#paint0_linear_3409_206)"></path> <path fill-rule="evenodd" clip-rule="evenodd" d="M819.935 363.004C819.935 321.099 785.836 287 743.931 287C702.025 287 667.926 321.099 667.926 363.004C667.926 401.602 696.871 433.503 734.174 438.313V529.925H550.218V438.313C587.528 433.503 616.472 401.602 616.472 363.004C616.472 321.099 582.373 287 540.468 287C498.562 287 464.463 321.099 464.463 363.004C464.463 401.602 493.408 433.503 530.718 438.313V529.925H346.755V438.313C384.065 433.503 413.009 401.602 413.009 363.004C413.009 321.099 378.91 287 337.005 287C295.093 287 261 321.099 261 363.004C261 401.602 289.945 433.503 327.255 438.313V641.036C289.945 645.846 261 677.741 261 716.338C261 758.244 295.099 792.343 337.005 792.343C378.91 792.343 413.009 758.244 413.009 716.338C413.009 677.741 384.065 645.846 346.755 641.036V549.425H530.718V641.036C493.408 645.846 464.463 677.741 464.463 716.338C464.463 758.244 498.562 792.343 540.468 792.343C582.373 792.343 616.472 758.244 616.472 716.338C616.472 677.741 587.528 645.846 550.218 641.036V549.425H743.931C746.516 549.425 748.996 548.397 750.825 546.569C752.653 544.74 753.681 542.26 753.681 539.675V438.313C790.991 433.503 819.935 401.602 819.935 363.004ZM483.963 363.004C483.963 331.85 509.307 306.5 540.468 306.5C571.629 306.5 596.972 331.843 596.972 363.004C596.972 394.165 571.629 419.509 540.468 419.509C509.313 419.509 483.963 394.159 483.963 363.004ZM280.5 363.004C280.5 331.85 305.85 306.5 337.005 306.5C368.159 306.5 393.509 331.843 393.509 363.004C393.509 394.165 368.166 419.509 337.005 419.509C305.844 419.509 280.5 394.159 280.5 363.004ZM393.509 716.338C393.509 747.499 368.166 772.843 337.005 772.843C305.844 772.843 280.5 747.499 280.5 716.338C280.5 685.184 305.85 659.84 337.005 659.84C368.159 659.84 393.509 685.184 393.509 716.338ZM596.972 716.338C596.972 747.499 571.629 772.843 540.468 772.843C509.313 772.843 483.963 747.499 483.963 716.338C483.963 685.184 509.307 659.84 540.468 659.84C571.629 659.834 596.972 685.184 596.972 716.338ZM743.931 419.509C712.776 419.509 687.433 394.159 687.433 363.004C687.433 331.85 712.776 306.5 743.931 306.5C775.092 306.5 800.435 331.843 800.435 363.004C800.435 394.165 775.092 419.509 743.931 419.509Z" fill="white"></path> <defs> <linearGradient id="paint0_linear_3409_206" x1="158.104" y1="921.896" x2="921.896" y2="158.104" gradientUnits="userSpaceOnUse"> <stop stop-color="#4D0000"></stop> <stop offset="1" stop-color="#F03224"></stop> </linearGradient> </defs> </svg> 