<?xml version="1.0" encoding="UTF-8"?> <svg xmlns="http://www.w3.org/2000/svg" width="1080" height="1080" viewBox="0 0 1080 1080" fill="none"> <g clip-path="url(#clip0_3407_134)"> <path d="M540.067 1080.13C838.338 1080.13 1080.13 838.338 1080.13 540.067C1080.13 241.796 838.338 0 540.067 0C241.796 0 0 241.796 0 540.067C0 838.338 241.796 1080.13 540.067 1080.13Z" fill="url(#paint0_linear_3407_134)"></path> <path fill-rule="evenodd" clip-rule="evenodd" d="M699.834 349.947C684.781 336.409 667.194 325.988 648.089 319.287C628.984 312.586 608.74 309.738 588.528 310.908C568.311 311.975 548.507 317.04 530.26 325.811C512.014 334.582 495.688 346.884 482.227 362.005C425.56 425.328 430.975 522.951 494.298 579.618C522.517 604.912 559.095 618.872 596.991 618.813C639.339 618.813 681.517 601.51 711.911 567.548C768.571 504.238 763.157 406.614 699.834 349.947ZM697.37 554.554C647.886 609.863 562.613 614.595 507.298 565.084C451.983 515.587 447.257 430.32 496.748 375.011C508.505 361.802 522.765 351.055 538.703 343.393C554.642 335.732 571.941 331.307 589.601 330.376C592.155 330.239 594.69 330.168 597.225 330.168C630.369 330.168 661.932 342.199 686.827 364.475C742.142 413.979 746.868 499.246 697.37 554.554Z" fill="white"></path> <path fill-rule="evenodd" clip-rule="evenodd" d="M514.07 390.22C513.181 391.168 512.491 392.284 512.04 393.503C511.589 394.721 511.386 396.017 511.443 397.315C511.5 398.613 511.816 399.887 512.372 401.061C512.928 402.235 513.714 403.287 514.682 404.153C515.65 405.019 516.782 405.684 518.01 406.107C519.239 406.529 520.539 406.702 521.836 406.616C523.132 406.529 524.398 406.183 525.559 405.6C526.72 405.017 527.753 404.208 528.597 403.22C562.553 365.28 621.027 362.043 658.968 395.986C659.916 396.874 661.032 397.564 662.25 398.015C663.469 398.466 664.765 398.669 666.063 398.612C667.361 398.555 668.635 398.239 669.809 397.683C670.983 397.127 672.034 396.341 672.901 395.373C673.767 394.405 674.431 393.273 674.854 392.045C675.277 390.816 675.45 389.516 675.363 388.219C675.276 386.923 674.931 385.657 674.348 384.496C673.765 383.335 672.956 382.302 671.968 381.458C626.013 340.339 555.182 344.278 514.07 390.22Z" fill="white"></path> <path fill-rule="evenodd" clip-rule="evenodd" d="M804.395 452.224C801.086 397.026 776.484 346.43 735.118 309.737C693.752 273.045 640.621 254.715 585.371 257.971C530.179 261.28 479.577 285.882 442.891 327.248C369.343 410.169 374.634 536.171 453.193 612.748L419.569 651.111L408.785 641.549C406.858 639.834 404.329 638.954 401.754 639.102C399.178 639.251 396.767 640.417 395.051 642.342L278.051 773.09C276.329 775.018 275.443 777.55 275.585 780.131C275.728 782.711 276.888 785.13 278.811 786.857L315.569 819.753C316.522 820.609 317.635 821.269 318.843 821.694C320.052 822.118 321.332 822.3 322.611 822.229C323.891 822.158 325.143 821.835 326.297 821.278C327.451 820.722 328.483 819.943 329.336 818.986L446.492 688.07C447.348 687.113 448.006 685.997 448.43 684.785C448.853 683.574 449.033 682.29 448.96 681.009C448.886 679.727 448.56 678.473 448 677.318C447.441 676.162 446.659 675.129 445.699 674.277L434.161 664.046L467.766 625.709C504.433 655.484 550.247 671.701 597.48 671.625C601.686 671.625 605.917 671.495 610.149 671.241C665.34 667.926 715.943 643.324 752.635 601.958C789.328 560.592 807.703 507.422 804.395 452.224ZM321.308 798.719L299.085 778.829L403.111 662.583L425.432 682.376L321.308 798.719ZM738.043 589.023C704.808 626.495 658.97 648.777 608.979 651.774C558.994 654.855 510.816 638.117 473.343 604.889C395.993 536.282 388.876 417.533 457.483 340.183C490.718 302.711 536.556 280.429 586.547 277.432C590.382 277.198 594.204 277.088 598.02 277.088C643.871 277.088 687.59 293.637 722.189 324.323C759.662 357.558 781.944 403.396 784.94 453.387C787.93 503.385 771.271 551.557 738.043 589.023Z" fill="white"></path> </g> <defs> <linearGradient id="paint0_linear_3407_134" x1="158.104" y1="921.896" x2="921.896" y2="158.104" gradientUnits="userSpaceOnUse"> <stop stop-color="#4D0000"></stop> <stop offset="1" stop-color="#F03224"></stop> </linearGradient> <clipPath id="clip0_3407_134"> <rect width="1080" height="1080" fill="white"></rect> </clipPath> </defs> </svg> 