<?xml version="1.0" encoding="UTF-8"?> <svg xmlns="http://www.w3.org/2000/svg" viewBox="0 0 100 100" fill-rule="evenodd"><rect x="0" y="0" width="100" height="100" fill="#f2f4f4" rx="50" ry="50"></rect><g style="transform-origin: center center; transform: scale(0.6);"><path d="M90.898 22.342h-5.93v-.033a3.92 3.92 0 0 0-3.915-3.915H67.012a3.92 3.92 0 0 0-3.915 3.915v.033H38.913v-.033a3.92 3.92 0 0 0-3.915-3.915H20.956a3.92 3.92 0 0 0-3.915 3.915v.033H9.287c-4.785 0-8.678 4.578-8.678 10.205v34.905c0 5.627 3.893 10.205 8.678 10.205h7.754v.033a3.92 3.92 0 0 0 3.915 3.915h14.042a3.92 3.92 0 0 0 3.915-3.915v-.033h24.184v.033a3.92 3.92 0 0 0 3.915 3.915h14.043a3.919 3.919 0 0 0 3.914-3.915v-.033h5.93c4.785 0 8.678-4.578 8.678-10.205V32.547c-.001-5.627-3.893-10.205-8.679-10.205zm-24.801-.033c0-.504.41-.915.915-.915h14.042c.505 0 .915.411.915.915v3.066c0 .504-.41.915-.914.915H67.012a.916.916 0 0 1-.915-.915v-3.066zm7.937 30.117c-1.519 0-2.754-1.235-2.754-2.754s1.235-2.754 2.754-2.754 2.754 1.235 2.754 2.754-1.235 2.754-2.754 2.754zM63.097 25.342v.033a3.92 3.92 0 0 0 3.915 3.915h5.522v14.833a5.768 5.768 0 0 0-4.049 4.049H35.549v-4.571a1.5 1.5 0 0 0-1.5-1.5h-4.572V29.29h5.521a3.92 3.92 0 0 0 3.915-3.915v-.033h24.184zM23.406 54.244v-9.143h9.143v4.561l-.001.01.001.01v4.563h-9.143zm-3.365-31.935c0-.504.411-.915.915-.915h14.042c.504 0 .915.411.915.915v3.066a.917.917 0 0 1-.915.915H20.956a.917.917 0 0 1-.915-.915v-3.066zM9.287 74.657c-3.131 0-5.678-3.232-5.678-7.205V32.547c0-3.973 2.547-7.205 5.678-7.205h7.754v.033a3.92 3.92 0 0 0 3.915 3.915h5.521v12.811h-4.571a1.5 1.5 0 0 0-1.5 1.5v12.143a1.5 1.5 0 0 0 1.5 1.5h4.571v13.465h-5.521a3.92 3.92 0 0 0-3.915 3.915v.033H9.287zm26.626 3.033a.916.916 0 0 1-.915.915H20.956a.916.916 0 0 1-.915-.915v-3.066c0-.505.411-.915.915-.915h14.042c.504 0 .915.41.915.915v3.066zm3-3.033v-.033a3.92 3.92 0 0 0-3.915-3.915h-5.521V57.244h4.572a1.5 1.5 0 0 0 1.5-1.5v-4.572h32.937a5.768 5.768 0 0 0 4.049 4.049v15.488h-5.522a3.92 3.92 0 0 0-3.915 3.915v.033H38.913zm43.056 3.033c0 .505-.41.915-.914.915H67.012a.915.915 0 0 1-.915-.915v-3.066c0-.505.41-.915.915-.915h14.042c.505 0 .915.41.915.915v3.066zm14.607-10.238c0 3.973-2.547 7.205-5.678 7.205h-5.93v-.033a3.92 3.92 0 0 0-3.915-3.915h-5.52V55.221c2.447-.662 4.254-2.895 4.254-5.549s-1.807-4.886-4.254-5.549V29.29h5.521a3.919 3.919 0 0 0 3.914-3.915v-.033h5.93c3.131 0 5.678 3.232 5.678 7.205v34.905z" fill="#f97f02"></path></g></svg> 