<?xml version="1.0" encoding="UTF-8"?> <svg xmlns="http://www.w3.org/2000/svg" width="1080" height="1080" viewBox="0 0 1080 1080" fill="none"> <g clip-path="url(#clip0_3407_130)"> <path d="M540.067 1080.13C838.338 1080.13 1080.13 838.338 1080.13 540.067C1080.13 241.796 838.338 0 540.067 0C241.796 0 0 241.796 0 540.067C0 838.338 241.796 1080.13 540.067 1080.13Z" fill="url(#paint0_linear_3407_130)"></path> <path fill-rule="evenodd" clip-rule="evenodd" d="M730.059 590.219C729.913 589.661 729.718 589.117 729.474 588.594L670.603 465.523C669.808 463.863 668.56 462.462 667.003 461.481C665.446 460.5 663.643 459.979 661.802 459.979H417.623C413.853 459.979 410.428 462.15 408.816 465.556L350.511 588.627C350.485 588.672 350.478 588.724 350.459 588.776C320.351 596.55 298.004 623.857 298.004 656.363V699.679C298.004 731.347 319.194 758.121 348.132 766.668V829.367C348.132 841.165 359.104 850.772 372.591 850.772H403.102C416.59 850.772 427.562 841.165 427.562 829.367V769.554H652.436V829.367C652.436 841.165 663.408 850.772 676.895 850.772H707.406C720.894 850.772 731.866 841.165 731.866 829.367V765.16C758.509 755.3 777.58 729.709 777.58 699.679V656.363C777.58 625.657 757.645 599.573 730.059 590.219ZM423.792 479.479H655.666L706.847 586.482H373.098L423.792 479.479ZM408.075 829.27C407.88 829.842 406.105 831.272 403.102 831.272H372.591C369.588 831.272 367.82 829.835 367.632 829.367V769.541L367.879 769.554H408.062L408.075 829.27ZM712.379 829.27C712.184 829.842 710.409 831.272 707.406 831.272H676.895C673.892 831.272 672.124 829.835 671.936 829.367V769.554H707.705C709.278 769.554 710.819 769.418 712.366 769.32L712.379 829.27ZM758.08 699.673C758.08 727.447 735.48 750.048 707.705 750.048H367.879C340.104 750.048 317.504 727.447 317.504 699.673V656.357C317.504 628.582 340.104 605.982 367.879 605.982H707.705C735.48 605.982 758.08 628.582 758.08 656.357V699.673Z" fill="white"></path> <path fill-rule="evenodd" clip-rule="evenodd" d="M387.847 639.737C377.697 639.749 367.967 643.786 360.791 650.964C353.615 658.141 349.579 667.872 349.568 678.022C349.568 699.127 366.741 716.3 387.847 716.3C408.952 716.3 426.125 699.127 426.125 678.022C426.115 667.872 422.079 658.141 414.903 650.964C407.727 643.786 397.996 639.749 387.847 639.737ZM387.847 696.794C382.868 696.788 378.095 694.808 374.574 691.288C371.054 687.767 369.073 682.994 369.068 678.015C369.072 673.035 371.051 668.26 374.572 664.738C378.093 661.216 382.867 659.235 387.847 659.23C392.827 659.235 397.601 661.216 401.122 664.738C404.643 668.26 406.622 673.035 406.625 678.015C406.62 682.994 404.64 687.767 401.12 691.288C397.599 694.808 392.826 696.788 387.847 696.794ZM692.151 637.319C682 637.329 672.268 641.366 665.091 648.543C657.913 655.721 653.876 665.453 653.866 675.604C653.878 685.753 657.915 695.483 665.093 702.66C672.27 709.836 682.001 713.872 692.151 713.882C702.299 713.87 712.028 709.833 719.204 702.657C726.38 695.481 730.417 685.752 730.429 675.604C730.419 665.454 726.383 655.723 719.207 648.546C712.031 641.368 702.3 637.331 692.151 637.319ZM692.151 694.376C687.171 694.372 682.396 692.393 678.874 688.872C675.352 685.351 673.371 680.577 673.366 675.597C673.371 670.617 675.352 665.842 678.874 662.32C682.395 658.798 687.17 656.817 692.151 656.812C697.131 656.817 701.905 658.798 705.426 662.32C708.947 665.842 710.926 670.617 710.929 675.597C710.924 680.576 708.944 685.349 705.423 688.87C701.903 692.39 697.13 694.37 692.151 694.376ZM581.93 684.775H493.647C491.061 684.775 488.581 685.802 486.753 687.631C484.925 689.459 483.897 691.939 483.897 694.525C483.897 697.111 484.925 699.591 486.753 701.419C488.581 703.248 491.061 704.275 493.647 704.275H581.93C584.516 704.275 586.996 703.248 588.825 701.419C590.653 699.591 591.68 697.111 591.68 694.525C591.68 691.939 590.653 689.459 588.825 687.631C586.996 685.802 584.516 684.775 581.93 684.775ZM326.389 334.315C324.696 334.315 323.032 334.757 321.561 335.597C320.091 336.436 318.864 337.644 318.002 339.102C317.14 340.559 316.673 342.216 316.646 343.909C316.619 345.602 317.033 347.273 317.848 348.758C324.08 360.103 333.243 369.568 344.382 376.162C355.521 382.756 368.227 386.237 381.171 386.243C409.836 386.243 435.472 369.382 447.029 343.616H731.281C739.135 343.606 746.665 340.481 752.219 334.927C757.773 329.373 760.897 321.843 760.908 313.989C760.897 306.137 757.773 298.61 752.22 293.058C746.667 287.506 739.139 284.384 731.287 284.375H447.029C441.334 271.674 432.085 260.892 420.4 253.329C408.715 245.765 395.091 241.743 381.171 241.748C368.227 241.751 355.521 245.231 344.382 251.824C333.243 258.417 324.079 267.881 317.848 279.227C317.033 280.711 316.619 282.382 316.646 284.075C316.673 285.769 317.14 287.425 318.002 288.883C318.864 290.341 320.091 291.548 321.561 292.388C323.032 293.227 324.696 293.669 326.389 293.67H365.227L376.959 313.989L365.227 334.308H326.389V334.315ZM379.299 348.94L396.661 318.871C397.517 317.388 397.967 315.707 397.967 313.996C397.967 312.284 397.517 310.603 396.661 309.121L379.299 279.052C378.444 277.569 377.213 276.339 375.731 275.483C374.249 274.627 372.567 274.177 370.856 274.177H346.598C353.139 268.492 360.98 264.509 369.428 262.579C377.876 260.648 386.669 260.831 395.029 263.11C403.39 265.389 411.059 269.695 417.358 275.646C423.658 281.596 428.392 289.008 431.143 297.226C431.793 299.163 433.035 300.847 434.693 302.04C436.352 303.233 438.343 303.875 440.386 303.875H731.294C736.871 303.875 741.414 308.412 741.414 313.983C741.413 316.668 740.345 319.244 738.447 321.144C736.548 323.044 733.973 324.113 731.287 324.116H440.386C438.343 324.116 436.352 324.758 434.693 325.951C433.035 327.145 431.793 328.829 431.143 330.766C427.641 341.247 420.931 350.361 411.962 356.818C402.994 363.274 392.222 366.747 381.171 366.743C368.466 366.74 356.188 362.149 346.598 353.815H370.856C372.567 353.815 374.249 353.364 375.731 352.508C377.213 351.652 378.444 350.422 379.299 348.94Z" fill="white"></path> </g> <defs> <linearGradient id="paint0_linear_3407_130" x1="158.104" y1="921.896" x2="921.896" y2="158.104" gradientUnits="userSpaceOnUse"> <stop stop-color="#4D0000"></stop> <stop offset="1" stop-color="#F03224"></stop> </linearGradient> <clipPath id="clip0_3407_130"> <rect width="1080" height="1080" fill="white"></rect> </clipPath> </defs> </svg> 