<?xml version="1.0" encoding="UTF-8"?> <svg xmlns="http://www.w3.org/2000/svg" width="1080" height="1080" viewBox="0 0 1080 1080" fill="none"> <path d="M539.922 1079.84C838.113 1079.84 1079.84 838.113 1079.84 539.922C1079.84 241.732 838.113 0 539.922 0C241.732 0 0 241.732 0 539.922C0 838.113 241.732 1079.84 539.922 1079.84Z" fill="url(#paint0_linear_3406_110)"></path> <path fill-rule="evenodd" clip-rule="evenodd" d="M850.7 589.531C833.54 521.671 816.965 515.171 762.04 503.146L753.395 501.001C717.58 493.006 653.165 444.711 631.975 428.786C609.641 412.286 582.587 403.42 554.82 403.501H446.205C418.45 403.501 412.08 407.076 403.305 415.916L402.265 417.086L368.92 463.301C364.5 467.786 360.795 472.271 357.48 476.301C349.355 486.181 343.96 492.746 334.015 494.631L281.43 501.131C256.47 505.876 241 520.501 241 540.001V634.251C241 636.836 242.027 639.316 243.856 641.145C245.684 642.973 248.164 644.001 250.75 644.001H300.085C303.057 656.893 310.312 668.398 320.665 676.636C331.019 684.875 343.859 689.36 357.09 689.36C370.321 689.36 383.161 684.875 393.515 676.636C403.868 668.398 411.123 656.893 414.095 644.001H638.085C641.057 656.893 648.312 668.398 658.665 676.636C669.019 684.875 681.859 689.36 695.09 689.36C708.321 689.36 721.161 684.875 731.515 676.636C741.868 668.398 749.123 656.893 752.095 644.001H808.385C815.035 643.986 821.594 642.456 827.564 639.526C833.533 636.596 838.756 632.344 842.836 627.092C846.915 621.841 849.744 615.729 851.107 609.22C852.47 602.711 852.33 595.977 850.7 589.531ZM372.56 488.651C375.875 484.621 379.06 480.461 383.285 476.496L384 475.001L417.345 428.786C421.57 424.561 424.365 422.676 445.88 422.676H554.43C578.009 422.661 600.963 430.252 619.885 444.321C648.095 465.511 671.885 481.956 692.295 494.176H367.295L372.56 488.651ZM357.155 670.001C349.442 670.001 341.901 667.713 335.488 663.428C329.074 659.142 324.076 653.051 321.124 645.925C318.172 638.799 317.4 630.957 318.904 623.392C320.409 615.827 324.124 608.878 329.578 603.423C335.032 597.969 341.981 594.255 349.546 592.75C357.112 591.245 364.953 592.017 372.08 594.969C379.206 597.921 385.297 602.92 389.582 609.333C393.868 615.747 396.155 623.287 396.155 631.001C396.155 641.344 392.046 651.264 384.732 658.578C377.418 665.892 367.498 670.001 357.155 670.001ZM695.155 670.001C687.442 670.001 679.901 667.713 673.488 663.428C667.074 659.142 662.076 653.051 659.124 645.925C656.172 638.799 655.4 630.957 656.904 623.392C658.409 615.827 662.124 608.878 667.578 603.423C673.032 597.969 679.981 594.255 687.546 592.75C695.112 591.245 702.953 592.017 710.08 594.969C717.206 597.921 723.297 602.92 727.582 609.333C731.868 615.747 734.155 623.287 734.155 631.001C734.155 641.344 730.046 651.264 722.732 658.578C715.418 665.892 705.498 670.001 695.155 670.001ZM827.43 615.206C825.18 618.11 822.292 620.459 818.99 622.071C815.688 623.682 812.059 624.514 808.385 624.501H753.2C751.546 610.249 744.712 597.102 733.999 587.559C723.285 578.017 709.437 572.744 695.09 572.744C680.743 572.744 666.895 578.017 656.181 587.559C645.468 597.102 638.634 610.249 636.98 624.501H415.2C413.546 610.249 406.712 597.102 395.998 587.559C385.285 578.017 371.437 572.744 357.09 572.744C342.743 572.744 328.895 578.017 318.182 587.559C307.468 597.102 300.634 610.249 298.98 624.501H260.5V540.001C260.5 526.286 279.285 521.671 284.485 520.501L335.705 514.001H730.06C736.211 516.708 742.582 518.883 749.105 520.501L757.88 522.451C807.8 533.371 816.835 535.451 831.785 594.536C832.67 598.086 832.738 601.791 831.984 605.371C831.23 608.952 829.673 612.314 827.43 615.206Z" fill="white"></path> <defs> <linearGradient id="paint0_linear_3406_110" x1="158.098" y1="921.747" x2="921.747" y2="158.098" gradientUnits="userSpaceOnUse"> <stop stop-color="#4D0000"></stop> <stop offset="1" stop-color="#F03224"></stop> </linearGradient> </defs> </svg> 