<?xml version="1.0" encoding="UTF-8"?> <svg xmlns="http://www.w3.org/2000/svg" width="1081" height="1081" viewBox="0 0 1081 1081" fill="none"> <path d="M540.067 1080.13C838.338 1080.13 1080.13 838.338 1080.13 540.067C1080.13 241.796 838.338 0 540.067 0C241.796 0 0 241.796 0 540.067C0 838.338 241.796 1080.13 540.067 1080.13Z" fill="url(#paint0_linear_3410_225)"></path> <path fill-rule="evenodd" clip-rule="evenodd" d="M427.927 424.158C478.705 424.158 520.006 382.857 520.006 332.079C520.006 281.301 478.705 240 427.927 240C377.156 240 335.855 281.308 335.855 332.079C335.855 382.851 377.162 424.158 427.927 424.158ZM427.927 259.298C468.058 259.298 500.708 291.948 500.708 332.079C500.708 372.21 468.058 404.86 427.927 404.86C387.796 404.86 355.154 372.21 355.154 332.079C355.154 291.948 387.796 259.298 427.927 259.298ZM401.232 470.581C401.232 445.978 381.218 425.965 356.616 425.965C332.013 425.965 312 445.978 312 470.581C312 495.183 332.013 515.197 356.616 515.197C381.218 515.197 401.232 495.19 401.232 470.581ZM331.292 470.581C331.292 456.619 342.647 445.257 356.616 445.257C370.584 445.257 381.94 456.619 381.94 470.581C381.94 484.543 370.584 495.905 356.616 495.905C342.647 495.905 331.292 484.543 331.292 470.581ZM767.696 617.403C767.793 616.85 767.864 616.292 767.864 615.713L767.734 517.615C767.734 516.484 767.5 515.411 767.143 514.397C766.848 506.5 765.355 498.694 762.716 491.244C752.388 461.637 725.842 434.935 689.891 417.983C599.547 375.415 542.282 410.19 521.84 427.116C508.287 438.341 495.053 459.297 482.248 479.571C475.059 490.959 468.26 501.716 462.345 509.145C454.707 518.739 436.358 525.896 416.93 533.469C383.442 546.527 345.475 561.334 332.8 597.539C329.447 607.12 328.223 617.317 329.212 627.42V713.597C329.212 713.967 329.231 714.331 329.277 714.701L330.661 726.727C330.726 727.312 330.843 727.884 331.019 728.449C341.718 763.426 376.07 791.142 442.377 818.299C477.522 832.716 510.439 839.807 539.221 839.807C580.97 839.807 614.009 824.883 632.43 795.75C640.731 782.614 648.557 765.376 656.13 748.71C665.659 727.728 675.506 706.031 686.101 692.706C689.754 688.11 699.023 684.074 708.838 679.803C730.743 670.261 760.741 657.19 767.696 620.874C767.923 619.685 767.891 618.521 767.696 617.403ZM351.019 603.915C360.763 576.095 392.879 563.564 423.949 551.454C445.867 542.907 466.576 534.827 477.444 521.164C484.016 512.909 491.088 501.723 498.563 489.873C510.003 471.764 522.964 451.237 534.157 441.974C551.752 427.395 601.341 397.586 681.662 435.442C712.959 450.197 735.865 472.856 744.497 497.601C749.359 511.544 749.053 524.713 743.626 535.704C731.627 560.008 707.882 571.298 686.926 581.256C671.911 588.4 657.735 595.134 649.109 605.97C637.812 620.192 628.14 641.499 618.787 662.104C611.656 677.808 604.929 692.647 597.844 703.84C574.294 741.072 513.584 746.48 443.189 717.607C387.302 694.708 352.404 660.401 348.51 627.101V626.003C348.51 625.489 348.439 624.995 348.361 624.507C347.832 617.534 348.737 610.526 351.019 603.915ZM701.135 662.097C689.052 667.362 677.638 672.335 670.995 680.687C658.924 695.878 648.57 718.68 638.56 740.721C630.922 757.537 623.714 773.416 616.122 785.435C590.726 825.611 525.408 831.494 449.696 800.443C389.798 775.912 358.904 752.174 349.732 723.613L348.51 713.051V673.628C366.613 697.587 396.578 719.355 435.87 735.456C468.767 748.95 499.59 755.586 526.558 755.586C565.766 755.586 596.824 741.553 614.159 714.149C621.946 701.825 629.278 685.686 636.363 670.073C645.229 650.534 654.394 630.338 664.209 617.982C670.046 610.643 682.273 604.838 695.221 598.683C712.543 590.447 733.096 580.639 748.501 562.881L748.566 615.733C748.566 616.266 748.644 616.779 748.722 617.286C743.671 643.565 722.046 652.991 701.135 662.097Z" fill="white"></path> <path fill-rule="evenodd" clip-rule="evenodd" d="M389.576 336.532C389.588 325.184 394.101 314.304 402.126 306.279C410.15 298.255 421.03 293.742 432.378 293.729C434.937 293.729 437.39 292.713 439.199 290.904C441.008 289.095 442.024 286.642 442.024 284.083C442.024 281.525 441.008 279.072 439.199 277.263C437.39 275.454 434.937 274.438 432.378 274.438C398.136 274.438 370.277 302.296 370.277 336.538C370.278 337.806 370.528 339.06 371.013 340.231C371.498 341.401 372.21 342.465 373.106 343.361C374.002 344.256 375.066 344.967 376.237 345.451C377.408 345.936 378.663 346.185 379.93 346.185C381.197 346.184 382.452 345.934 383.622 345.449C384.793 344.963 385.856 344.252 386.752 343.356C387.648 342.46 388.358 341.396 388.843 340.225C389.327 339.054 389.576 337.799 389.576 336.532Z" fill="white"></path> <defs> <linearGradient id="paint0_linear_3410_225" x1="158.104" y1="921.896" x2="921.896" y2="158.104" gradientUnits="userSpaceOnUse"> <stop stop-color="#4D0000"></stop> <stop offset="1" stop-color="#F03224"></stop> </linearGradient> </defs> </svg> 