<?xml version="1.0" encoding="UTF-8"?> <svg xmlns="http://www.w3.org/2000/svg" width="1080" height="1080" viewBox="0 0 1080 1080" fill="none"> <g clip-path="url(#clip0_3407_133)"> <path d="M540.067 1080.13C838.338 1080.13 1080.13 838.338 1080.13 540.067C1080.13 241.796 838.338 0 540.067 0C241.796 0 0 241.796 0 540.067C0 838.338 241.796 1080.13 540.067 1080.13Z" fill="url(#paint0_linear_3407_133)"></path> <path fill-rule="evenodd" clip-rule="evenodd" d="M647.251 371.845L666.751 282.73C667.173 280.852 667.03 278.892 666.339 277.095C665.649 275.298 664.443 273.746 662.872 272.634C661.301 271.522 659.436 270.9 657.512 270.846C655.589 270.792 653.692 271.308 652.061 272.33C652.061 272.33 631.846 284.615 592.001 284.615C573.931 284.615 562.946 276.49 550.271 267.065C535.906 256.34 519.591 244.25 491.771 244.25C438.731 244.25 421.181 274.605 420.271 275.905C419.125 277.985 418.779 280.412 419.296 282.73L438.796 371.845C412.666 405.32 234.501 637.11 319.001 741.89C384.001 822.75 482.736 822.685 541.301 822.75H547.281C606.301 822.75 703.281 821.84 767.631 741.89C852.001 637.11 673.836 405.32 647.251 371.845ZM752.486 729.345C693.986 802.08 602.986 802.925 547.216 802.925H541.301C485.986 802.925 393.361 802.925 334.081 729.345C293.456 679.23 328.231 587.905 364.501 520.5C391.45 471.416 422.454 424.669 457.191 380.75C458.117 379.61 458.773 378.275 459.111 376.846C459.448 375.416 459.459 373.929 459.141 372.495L439.641 283.12C444.581 277.4 459.531 264.075 491.641 264.075C512.961 264.075 525.376 273.305 538.506 283.055C551.636 292.805 567.301 304.44 591.871 304.44C609.473 304.67 627.008 302.215 643.871 297.16L627.231 372.56C626.913 373.994 626.923 375.481 627.261 376.911C627.599 378.34 628.255 379.675 629.181 380.815C663.939 424.54 694.987 471.09 722.001 519.98C758.206 587.775 793.111 679.165 752.486 729.67V729.345Z" fill="white"></path> <path fill-rule="evenodd" clip-rule="evenodd" d="M595.25 562.75C595.25 565.336 596.277 567.816 598.106 569.644C599.934 571.473 602.414 572.5 605 572.5C607.586 572.5 610.066 571.473 611.894 569.644C613.723 567.816 614.75 565.336 614.75 562.75C614.75 533.305 589.27 508.995 556.25 504.9V491.25C556.25 488.664 555.223 486.184 553.394 484.356C551.566 482.527 549.086 481.5 546.5 481.5C543.914 481.5 541.434 482.527 539.606 484.356C537.777 486.184 536.75 488.664 536.75 491.25V504.9C503.73 508.995 478.25 533.305 478.25 562.75C478.25 592.195 503.73 616.44 536.75 620.535V698.535C514.52 694.895 497.75 679.035 497.75 660.315C497.75 657.729 496.723 655.249 494.894 653.421C493.066 651.592 490.586 650.565 488 650.565C485.414 650.565 482.934 651.592 481.106 653.421C479.277 655.249 478.25 657.729 478.25 660.315C478.25 689.76 503.73 714.135 536.75 718.165V731.815C536.75 734.401 537.777 736.881 539.606 738.709C541.434 740.538 543.914 741.565 546.5 741.565C549.086 741.565 551.566 740.538 553.394 738.709C555.223 736.881 556.25 734.401 556.25 731.815V718.1C589.27 714.005 614.75 689.63 614.75 660.25C614.75 630.87 589.27 606.495 556.25 602.465V524.465C578.48 528.17 595.25 543.9 595.25 562.75ZM497.75 562.75C497.75 543.9 514.52 528.17 536.75 524.53V600.97C514.52 597.33 497.75 581.6 497.75 562.75ZM595.25 660.25C595.25 679.1 578.48 694.895 556.25 698.47V622.03C578.48 625.67 595.25 641.4 595.25 660.185V660.25ZM485.27 386.86C504.199 391.755 523.701 394.073 543.25 393.75C562.799 394.073 582.301 391.755 601.23 386.86C602.459 386.502 603.606 385.904 604.604 385.103C605.603 384.301 606.433 383.311 607.049 382.188C607.665 381.065 608.053 379.833 608.192 378.56C608.331 377.287 608.219 375.999 607.86 374.77C607.501 373.541 606.904 372.394 606.103 371.396C605.301 370.398 604.311 369.567 603.188 368.951C602.065 368.335 600.833 367.947 599.56 367.808C598.287 367.669 596.999 367.782 595.77 368.14C578.61 372.487 560.95 374.541 543.25 374.25C525.55 374.541 507.89 372.487 490.73 368.14C488.248 367.416 485.579 367.708 483.312 368.951C481.045 370.194 479.364 372.288 478.64 374.77C477.916 377.252 478.208 379.921 479.451 382.188C480.694 384.455 482.788 386.136 485.27 386.86Z" fill="white"></path> </g> <defs> <linearGradient id="paint0_linear_3407_133" x1="158.104" y1="921.896" x2="921.896" y2="158.104" gradientUnits="userSpaceOnUse"> <stop stop-color="#4D0000"></stop> <stop offset="1" stop-color="#F03224"></stop> </linearGradient> <clipPath id="clip0_3407_133"> <rect width="1080" height="1080" fill="white"></rect> </clipPath> </defs> </svg> 