<?xml version="1.0" encoding="UTF-8"?> <!-- Creator: CorelDRAW --> <svg xmlns="http://www.w3.org/2000/svg" xmlns:xlink="http://www.w3.org/1999/xlink" xmlns:xodm="http://www.corel.com/coreldraw/odm/2003" xml:space="preserve" width="1080px" height="1080px" style="shape-rendering:geometricPrecision; text-rendering:geometricPrecision; image-rendering:optimizeQuality; fill-rule:evenodd; clip-rule:evenodd" viewBox="0 0 69.61 69.61"> <defs> <style type="text/css"> <![CDATA[ .fil1 {fill:white} .fil0 {fill:url(#id0)} ]]> </style> <linearGradient id="id0" gradientUnits="userSpaceOnUse" x1="10.19" y1="59.41" x2="59.41" y2="10.19"> <stop offset="0" style="stop-opacity:1; stop-color:#4D0000"></stop> <stop offset="1" style="stop-opacity:1; stop-color:#F03224"></stop> </linearGradient> </defs> <g id="Слой_x0020_1"> <metadata id="CorelCorpID_0Corel-Layer"></metadata> <circle class="fil0" cx="34.8" cy="34.8" r="34.8"></circle> <path class="fil1" d="M37.88 48.07l-0.69 -4.99 4.51 -4.04c0.01,2.03 -1.29,5.46 -2.45,7.19 -0.26,0.38 -1.07,1.63 -1.37,1.84zm-20.58 3.63l0 -0.22c0.09,-0.7 1.17,-3.64 1.41,-4.32 0.48,-1.4 1.09,-2.79 1.78,-4.1 0.37,-0.7 0.7,-1.12 1.35,-1.59 0.29,-0.21 0.59,-0.4 0.92,-0.52 0.18,-0.06 0.38,-0.13 0.57,-0.18 0.26,-0.07 0.43,-0.04 0.6,-0.08 0.31,-0.06 0.34,-0.08 0.69,-0.07 2.7,0.06 5.25,2.8 4.04,6.23 -0.47,1.32 -1.84,2.29 -3.1,2.79 -1.41,0.55 -2.71,1.15 -4.17,1.64 -0.73,0.24 -1.47,0.49 -2.2,0.73 -0.61,0.21 -1.79,0.66 -1.89,-0.31zm25.01 -27.92c0.99,0 1.88,0.4 2.53,1.05 0.64,0.64 1.04,1.54 1.04,2.53 0,0.98 -0.4,1.88 -1.04,2.52 -0.65,0.65 -1.54,1.05 -2.53,1.05 -0.99,0 -1.88,-0.4 -2.53,-1.05 -0.65,-0.64 -1.05,-1.54 -1.05,-2.52 0,-0.99 0.4,-1.89 1.05,-2.53 0.65,-0.65 1.54,-1.05 2.53,-1.05zm1.71 1.87c-0.44,-0.44 -1.04,-0.71 -1.71,-0.71 -0.67,0 -1.27,0.27 -1.71,0.71 -0.44,0.44 -0.71,1.04 -0.71,1.71 0,0.66 0.27,1.27 0.71,1.7 0.44,0.44 1.04,0.71 1.71,0.71 0.67,0 1.27,-0.27 1.71,-0.71 0.43,-0.43 0.7,-1.04 0.7,-1.7 0,-0.67 -0.27,-1.27 -0.7,-1.71zm-24.81 24.75c0.09,-0.86 1.82,-5.14 2.26,-6.02 0.49,-0.98 0.91,-1.73 2.01,-2.09 2.42,-0.81 4.62,1.45 3.86,3.8 -0.36,1.12 -1.1,1.55 -2.11,2.05 -0.93,0.47 -5.19,2.18 -6.02,2.26zm30.97 -33.09l1.33 0c0.26,0.03 0.45,0.08 0.55,0.17 0.13,0.11 0.21,0.36 0.25,0.7l0 1.35c-0.11,1.56 -0.48,3.52 -0.63,4.12 -1,4.09 -3.03,7.99 -5.74,11.25 -0.54,0.64 -2.06,2.23 -2.47,2.55 -0.11,0.08 -0.12,0.27 -0.14,0.56 -0.32,4.45 -1.56,7.71 -4.43,11.22 -3.01,3.69 -2.25,-1.66 -3.07,-4.92 -1.48,0.99 -0.72,1.64 -3.4,-1.04l-7.63 -7.62c-0.82,-0.83 0.08,-1.24 0.5,-1.87 -0.97,-0.24 -5.58,-0.6 -5.99,-1.05 -0.65,-0.7 0.54,-1.55 1.04,-1.98 3.27,-2.76 7,-4.24 11.25,-4.47 0.24,-0.02 0.38,-0.04 0.48,-0.08 0.02,-0.01 3.46,-3.16 4.11,-3.63 2.9,-2.13 6.15,-3.73 9.73,-4.61 0.64,-0.16 2.68,-0.54 4.26,-0.65zm-23.65 15.11c-0.81,-0.07 -1.67,-0.27 -2.46,-0.35 -0.65,-0.06 -1.86,-0.34 -2.53,-0.34 0.18,-0.28 1.48,-1.15 1.84,-1.37 0.75,-0.44 1.32,-0.73 2.1,-1.11 2.39,-1.14 4.84,-1.3 5.08,-1.41l-4.03 4.58zm8.07 10.94l-8.33 -8.36 7.15 -8.07c1.45,-1.62 3.74,-3.38 5.65,-4.53 3.38,-2.05 7.82,-3.59 11.73,-3.59 0,3.97 -1.52,8.26 -3.56,11.69 -1.02,1.72 -3.04,4.42 -4.52,5.66 -1.24,1.03 -2.82,2.54 -4.07,3.59 -0.43,0.36 -0.91,0.82 -1.34,1.2 -0.4,0.36 -0.96,0.82 -1.33,1.19 -0.32,0.33 -1.02,0.98 -1.38,1.22z"></path> </g> </svg> 