<?xml version="1.0" encoding="UTF-8"?> <svg xmlns="http://www.w3.org/2000/svg" width="650" height="650" viewBox="0 0 650 650" fill="none"> <g clip-path="url(#clip0_3426_89)"> <path d="M325.002 649.336C504.129 649.336 649.34 504.125 649.34 324.998C649.34 145.871 504.129 0.660156 325.002 0.660156C145.875 0.660156 0.664062 145.871 0.664062 324.998C0.664062 504.125 145.875 649.336 325.002 649.336Z" fill="#FC3F1D"></path> <path d="M442.361 528.605H371.162V176.462H339.445C281.306 176.462 250.852 205.531 250.852 248.925C250.852 298.156 271.857 320.966 315.31 350.036L351.121 374.17L248.204 528.545H171.648L264.273 390.721C211.01 352.684 181.037 315.55 181.037 252.897C181.037 174.596 235.625 121.332 338.963 121.332H441.88V528.485H442.361V528.605Z" fill="white"></path> </g> <defs> <clipPath id="clip0_3426_89"> <rect width="650" height="650" fill="white"></rect> </clipPath> </defs> </svg> 