<?xml version="1.0" encoding="UTF-8"?> <svg xmlns="http://www.w3.org/2000/svg" width="1081" height="1081" viewBox="0 0 1081 1081" fill="none"> <path d="M540.067 1080.13C838.338 1080.13 1080.13 838.338 1080.13 540.067C1080.13 241.796 838.338 0 540.067 0C241.796 0 0 241.796 0 540.067C0 838.338 241.796 1080.13 540.067 1080.13Z" fill="url(#paint0_linear_3412_252)"></path> <path fill-rule="evenodd" clip-rule="evenodd" d="M732.266 596.323C732.12 595.766 731.925 595.225 731.681 594.704L672.817 471.627C672.023 469.966 670.775 468.564 669.218 467.583C667.66 466.601 665.857 466.081 664.016 466.082H419.837C416.067 466.082 412.641 468.253 411.029 471.659L352.724 594.737C352.705 594.782 352.698 594.828 352.672 594.873C322.558 602.641 300.211 629.954 300.211 662.46V705.776C300.211 737.444 321.407 764.224 350.345 772.765V835.464C350.345 847.262 361.317 856.869 374.805 856.869H405.316C418.803 856.869 429.775 847.262 429.775 835.464V775.651H654.649V835.464C654.649 847.262 665.621 856.869 679.115 856.869H709.62C723.107 856.869 734.086 847.262 734.086 835.464V771.257C743.549 767.763 752.143 762.259 759.273 755.124C765.788 748.664 770.956 740.975 774.478 732.503C777.999 724.031 779.804 714.944 779.787 705.77V662.454C779.787 631.761 759.852 605.676 732.266 596.323ZM426.005 485.582H657.873L709.048 592.592H375.318L426.005 485.582ZM410.288 835.373C410.093 835.945 408.319 837.375 405.316 837.375H374.805C371.802 837.375 370.034 835.939 369.845 835.471V775.645L370.086 775.658H410.275L410.288 835.373ZM714.592 835.373C714.397 835.939 712.616 837.375 709.613 837.375H679.109C676.106 837.375 674.331 835.939 674.143 835.471V775.658H709.912C711.479 775.658 713.026 775.534 714.579 775.43L714.592 835.373ZM760.287 705.783C760.287 719.173 755.029 731.802 745.487 741.351C740.833 746.049 735.293 749.777 729.187 752.319C723.082 754.861 716.532 756.165 709.919 756.158H370.086C342.311 756.158 319.711 733.557 319.711 705.783V662.467C319.711 634.692 342.311 612.092 370.086 612.092H709.912C737.687 612.092 760.287 634.692 760.287 662.467V705.783Z" fill="white"></path> <path fill-rule="evenodd" clip-rule="evenodd" d="M390.059 645.845C379.911 645.857 370.181 649.893 363.005 657.069C355.829 664.245 351.793 673.975 351.781 684.123C351.781 705.235 368.954 722.408 390.059 722.408C411.165 722.408 428.338 705.235 428.338 684.123C428.326 673.975 424.289 664.245 417.113 657.069C409.937 649.893 400.208 645.857 390.059 645.845ZM390.059 702.902C385.079 702.896 380.305 700.915 376.784 697.393C373.263 693.872 371.284 689.096 371.281 684.117C371.286 679.138 373.266 674.364 376.786 670.844C380.307 667.323 385.08 665.343 390.059 665.338C395.038 665.343 399.811 667.323 403.332 670.844C406.852 674.364 408.832 679.138 408.838 684.117C408.834 689.096 406.855 693.872 403.334 697.393C399.813 700.915 395.039 702.896 390.059 702.902ZM694.363 643.42C684.215 643.432 674.485 647.469 667.309 654.645C660.133 661.821 656.097 671.55 656.085 681.699C656.085 702.811 673.258 719.984 694.363 719.984C715.469 719.984 732.642 702.811 732.642 681.699C732.63 671.55 728.593 661.821 721.417 654.645C714.241 647.469 704.512 643.432 694.363 643.42ZM694.363 700.477C689.383 700.472 684.609 698.491 681.088 694.969C677.567 691.447 675.588 686.672 675.585 681.692C675.585 671.338 684.009 662.914 694.363 662.914C704.718 662.914 713.142 671.338 713.142 681.692C713.138 686.672 711.159 691.447 707.638 694.969C704.117 698.491 699.343 700.472 694.363 700.477ZM584.143 690.877H495.86C493.274 690.877 490.794 691.904 488.965 693.732C487.137 695.561 486.11 698.041 486.11 700.627C486.11 703.212 487.137 705.692 488.965 707.521C490.794 709.349 493.274 710.377 495.86 710.377H584.143C586.728 710.377 589.208 709.349 591.037 707.521C592.865 705.692 593.893 703.212 593.893 700.627C593.893 698.041 592.865 695.561 591.037 693.732C589.208 691.904 586.728 690.877 584.143 690.877ZM540.001 393.3C567.191 393.3 589.304 371.181 589.304 343.991C589.304 321.092 555.562 249.312 548.802 235.155C548.006 233.497 546.757 232.097 545.2 231.117C543.643 230.138 541.841 229.618 540.001 229.618C538.161 229.618 536.359 230.138 534.802 231.117C533.245 232.097 531.996 233.497 531.2 235.155C524.434 249.312 490.692 321.092 490.692 343.991C490.692 371.181 512.812 393.3 540.001 393.3ZM540.001 262.527C553.944 293.389 569.804 332.285 569.804 343.991C569.797 351.894 566.655 359.471 561.067 365.059C555.48 370.648 547.904 373.791 540.001 373.8C532.097 373.793 524.519 370.65 518.931 365.062C513.342 359.473 510.199 351.895 510.192 343.991C510.192 332.285 526.059 293.389 540.001 262.527ZM349.512 393.3C376.702 393.3 398.821 371.181 398.821 343.991C398.821 321.092 365.08 249.312 358.32 235.155C357.528 233.492 356.281 232.088 354.724 231.104C353.166 230.121 351.362 229.598 349.521 229.598C347.679 229.597 345.875 230.118 344.317 231.1C342.759 232.083 341.511 233.486 340.718 235.149C333.951 249.306 300.203 321.085 300.203 343.985C300.203 371.181 322.323 393.3 349.512 393.3ZM349.519 262.527C363.461 293.395 379.321 332.291 379.321 343.998C379.321 360.436 365.951 373.807 349.512 373.807C333.074 373.807 319.703 360.436 319.703 343.998C319.703 332.285 335.57 293.389 349.519 262.527ZM730.861 393.3C758.05 393.3 780.17 371.181 780.17 343.991C780.17 321.092 746.428 249.312 739.662 235.155C738.868 233.495 737.62 232.093 736.063 231.112C734.505 230.131 732.702 229.61 730.862 229.611C729.021 229.612 727.219 230.133 725.662 231.116C724.106 232.098 722.859 233.501 722.066 235.162C715.306 249.319 681.565 321.098 681.565 343.998C681.558 371.181 703.678 393.3 730.861 393.3ZM730.861 262.527C744.81 293.389 760.67 332.278 760.67 343.991C760.67 360.43 747.293 373.8 730.861 373.8C714.429 373.8 701.058 360.43 701.058 343.991C701.058 332.285 716.925 293.389 730.861 262.527Z" fill="white"></path> <defs> <linearGradient id="paint0_linear_3412_252" x1="158.104" y1="921.896" x2="921.896" y2="158.104" gradientUnits="userSpaceOnUse"> <stop stop-color="#4D0000"></stop> <stop offset="1" stop-color="#F03224"></stop> </linearGradient> </defs> </svg> 