<?xml version="1.0" encoding="UTF-8"?> <svg xmlns="http://www.w3.org/2000/svg" width="1080" height="1080" viewBox="0 0 1080 1080" fill="none"> <path d="M539.922 1079.84C838.113 1079.84 1079.84 838.113 1079.84 539.922C1079.84 241.732 838.113 0 539.922 0C241.732 0 0 241.732 0 539.922C0 838.113 241.732 1079.84 539.922 1079.84Z" fill="url(#paint0_linear_3406_109)"></path> <path fill-rule="evenodd" clip-rule="evenodd" d="M714.94 289.977C713.047 289.245 710.975 289.116 709.006 289.607C707.038 290.098 705.269 291.185 703.941 292.72C703.811 292.863 690.733 307.605 637.862 335.587C584.205 364.012 434.126 456.526 427.256 460.784C379.026 494.876 353.215 551.985 359.903 609.835C364.785 651.923 385.695 688.258 415.732 713.679L373.573 775.514C372.116 777.65 371.568 780.278 372.048 782.819C372.529 785.36 374 787.606 376.137 789.063C378.274 790.52 380.901 791.068 383.442 790.587C385.983 790.106 388.229 788.635 389.686 786.499L431.39 725.34C456.877 742.097 487.141 751.847 519.199 751.847C525.341 751.847 531.542 751.496 537.789 750.775C594.43 744.216 643.452 707.316 666.222 654.269C666.709 653.756 667.217 653.125 667.613 652.404C695.836 606.579 714.257 482.409 715.511 447.732C716.61 414.692 721.115 300.526 721.16 299.376C721.224 297.358 720.66 295.37 719.545 293.686C718.431 292.003 716.822 290.706 714.94 289.977ZM379.273 607.599C373.404 556.841 396.101 506.693 438 477.053C439.554 476.098 593.89 380.951 646.988 352.825C655.002 348.591 662.929 344.196 670.765 339.643L426.716 697.572C400.214 674.564 383.288 642.465 379.273 607.599ZM651.571 641.224C651.152 641.62 650.761 642.046 650.401 642.498C649.836 643.206 649.374 643.993 649.023 644.838C629.335 692.398 585.85 725.574 535.533 731.392C502.827 735.21 469.82 727.403 442.29 709.337L700.406 330.79C698.969 367.45 696.746 425.092 696.018 447.049C694.627 485.12 676.083 599.572 651.571 641.224Z" fill="white"></path> <defs> <linearGradient id="paint0_linear_3406_109" x1="158.098" y1="921.747" x2="921.747" y2="158.098" gradientUnits="userSpaceOnUse"> <stop stop-color="#4D0000"></stop> <stop offset="1" stop-color="#F03224"></stop> </linearGradient> </defs> </svg> 