<?xml version="1.0" encoding="UTF-8"?> <svg xmlns="http://www.w3.org/2000/svg" width="1080" height="1080" viewBox="0 0 1080 1080" fill="none"> <path d="M539.922 1079.84C838.113 1079.84 1079.84 838.113 1079.84 539.922C1079.84 241.732 838.113 0 539.922 0C241.732 0 0 241.732 0 539.922C0 838.113 241.732 1079.84 539.922 1079.84Z" fill="url(#paint0_linear_3406_111)"></path> <path fill-rule="evenodd" clip-rule="evenodd" d="M643.999 361.705V325.5H692.749C695.335 325.5 697.815 324.473 699.644 322.644C701.472 320.816 702.499 318.336 702.499 315.75C702.499 313.164 701.472 310.684 699.644 308.856C697.815 307.027 695.335 306 692.749 306H575.749C573.164 306 570.684 307.027 568.855 308.856C567.027 310.684 565.999 313.164 565.999 315.75C565.999 318.336 567.027 320.816 568.855 322.644C570.684 324.473 573.164 325.5 575.749 325.5H624.499V361.64C570.566 364.186 519.769 387.728 482.964 427.233C446.16 466.739 426.269 519.073 427.542 573.051C428.815 627.029 451.152 678.368 489.779 716.094C528.405 753.82 580.256 774.94 634.249 774.94C688.242 774.94 740.094 753.82 778.72 716.094C817.346 678.368 839.684 627.029 840.957 573.051C842.23 519.073 822.339 466.739 785.534 427.233C748.73 387.728 697.932 364.186 643.999 361.64V361.705ZM633.274 755.93C596.185 755.93 559.929 744.932 529.091 724.326C498.253 703.721 474.217 674.433 460.024 640.168C445.831 605.902 442.117 568.197 449.353 531.821C456.588 495.444 474.448 462.031 500.674 435.805C526.9 409.579 560.314 391.719 596.69 384.483C633.066 377.248 670.771 380.961 705.037 395.154C739.303 409.348 768.59 433.383 789.196 464.222C809.801 495.06 820.799 531.316 820.799 568.405C820.748 618.124 800.974 665.792 765.818 700.948C730.661 736.105 682.993 755.878 633.274 755.93Z" fill="white"></path> <path fill-rule="evenodd" clip-rule="evenodd" d="M586.41 695.612C560.436 685.961 538.028 668.608 522.184 645.876C506.34 623.144 497.815 596.116 497.75 568.407C497.75 565.821 496.723 563.341 494.894 561.512C493.066 559.684 490.586 558.657 488 558.657C485.414 558.657 482.934 559.684 481.106 561.512C479.277 563.341 478.25 565.821 478.25 568.407C478.33 600.094 488.082 631.002 506.202 656.998C524.322 682.994 549.947 702.838 579.65 713.877C580.728 714.291 581.876 714.489 583.03 714.462C585.297 714.434 587.483 713.618 589.213 712.152C590.943 710.687 592.108 708.665 592.508 706.433C592.909 704.202 592.519 701.901 591.406 699.926C590.293 697.951 588.526 696.425 586.41 695.612ZM716.605 675.267C697.742 689.991 675.314 699.455 651.605 702.697C650.325 702.778 649.073 703.11 647.921 703.675C646.769 704.24 645.74 705.026 644.892 705.989C643.179 707.933 642.309 710.478 642.473 713.064C642.636 715.65 643.821 718.065 645.765 719.778C647.709 721.49 650.254 722.36 652.84 722.197H654.14C681.291 718.451 706.956 707.548 728.5 690.607C729.55 689.833 730.434 688.856 731.1 687.733C731.766 686.611 732.2 685.367 732.376 684.074C732.552 682.782 732.467 681.467 732.125 680.207C731.784 678.948 731.193 677.77 730.388 676.743C729.583 675.717 728.58 674.862 727.439 674.23C726.298 673.597 725.041 673.201 723.744 673.063C722.446 672.925 721.135 673.049 719.886 673.428C718.637 673.806 717.478 674.432 716.475 675.267H716.605ZM665.645 568.407C665.622 562.35 663.887 556.424 660.64 551.312L727.785 482.477C729.49 480.606 730.4 478.145 730.323 475.615C730.247 473.085 729.189 470.683 727.374 468.919C725.559 467.155 723.129 466.165 720.598 466.16C718.066 466.155 715.632 467.135 713.81 468.892L645.885 538.572C639.473 535.773 632.328 535.119 625.514 536.705C618.7 538.292 612.58 542.036 608.063 547.379C603.547 552.723 600.876 559.381 600.446 566.364C600.017 573.347 601.853 580.283 605.68 586.139C609.508 591.996 615.124 596.461 621.692 598.87C628.261 601.28 635.431 601.505 642.138 599.513C648.845 597.521 654.73 593.418 658.918 587.814C663.107 582.21 665.375 575.403 665.385 568.407H665.645ZM633.145 581.407C630.574 581.407 628.06 580.644 625.923 579.216C623.785 577.787 622.119 575.757 621.135 573.382C620.151 571.006 619.893 568.392 620.395 565.871C620.896 563.349 622.135 561.032 623.953 559.214C625.771 557.396 628.087 556.158 630.609 555.656C633.131 555.155 635.744 555.412 638.12 556.396C640.495 557.38 642.526 559.046 643.954 561.184C645.383 563.322 646.145 565.836 646.145 568.407C646.128 571.821 644.769 575.091 642.361 577.512C639.953 579.932 636.689 581.308 633.275 581.342L633.145 581.407ZM377.5 575.752C377.5 573.166 376.473 570.686 374.644 568.857C372.816 567.029 370.336 566.002 367.75 566.002H250.75C248.164 566.002 245.684 567.029 243.856 568.857C242.027 570.686 241 573.166 241 575.752C241 578.338 242.027 580.818 243.856 582.646C245.684 584.475 248.164 585.502 250.75 585.502H367.75C370.336 585.502 372.816 584.475 374.644 582.646C376.473 580.818 377.5 578.338 377.5 575.752ZM387.25 657.002H270.25C267.664 657.002 265.184 658.029 263.356 659.857C261.527 661.686 260.5 664.166 260.5 666.752C260.5 669.338 261.527 671.818 263.356 673.646C265.184 675.475 267.664 676.502 270.25 676.502H387.25C389.836 676.502 392.316 675.475 394.144 673.646C395.973 671.818 397 669.338 397 666.752C397 664.166 395.973 661.686 394.144 659.857C392.316 658.029 389.836 657.002 387.25 657.002ZM387.25 468.502H270.25C267.664 468.502 265.184 469.529 263.356 471.357C261.527 473.186 260.5 475.666 260.5 478.252C260.5 480.838 261.527 483.318 263.356 485.146C265.184 486.974 267.664 488.002 270.25 488.002H387.25C389.836 488.002 392.316 486.974 394.144 485.146C395.973 483.318 397 480.838 397 478.252C397 475.666 395.973 473.186 394.144 471.357C392.316 469.529 389.836 468.502 387.25 468.502Z" fill="white"></path> <defs> <linearGradient id="paint0_linear_3406_111" x1="158.098" y1="921.747" x2="921.747" y2="158.098" gradientUnits="userSpaceOnUse"> <stop stop-color="#4D0000"></stop> <stop offset="1" stop-color="#F03224"></stop> </linearGradient> </defs> </svg> 