<?xml version="1.0" encoding="UTF-8"?> <svg xmlns="http://www.w3.org/2000/svg" width="1081" height="1081" viewBox="0 0 1081 1081" fill="none"> <path d="M540.067 1080.13C838.338 1080.13 1080.13 838.338 1080.13 540.067C1080.13 241.796 838.338 0 540.067 0C241.796 0 0 241.796 0 540.067C0 838.338 241.796 1080.13 540.067 1080.13Z" fill="url(#paint0_linear_3408_147)"></path> <path fill-rule="evenodd" clip-rule="evenodd" d="M799.729 588.712C795.229 584.188 789.878 580.602 783.983 578.161C778.089 575.72 771.769 574.472 765.389 574.49L765.116 574.496C764.661 574.477 723.984 575.062 704.627 529.588C699.096 516.588 697.328 501.956 696.775 495.144C708.547 481.998 715.033 464.957 714.982 447.311C714.982 410.514 687.22 380.133 651.542 375.882V304.369C651.542 301.783 650.514 299.303 648.686 297.475C646.857 295.646 644.377 294.619 641.792 294.619H272.871C270.285 294.619 267.805 295.646 265.977 297.475C264.148 299.303 263.121 301.783 263.121 304.369V781.138C263.121 783.723 264.148 786.203 265.977 788.032C267.805 789.86 270.285 790.888 272.871 790.888H641.792C644.377 790.888 646.857 789.86 648.686 788.032C650.514 786.203 651.542 783.723 651.542 781.138V709.794H787.938C790.523 709.794 793.003 708.766 794.832 706.938C796.66 705.109 797.688 702.63 797.688 700.044V670.657H804.188C806.773 670.657 809.253 669.63 811.082 667.801C812.91 665.973 813.938 663.493 813.938 660.907V623.045C813.959 616.666 812.715 610.347 810.276 604.453C807.837 598.56 804.252 593.209 799.729 588.712ZM695.482 447.311C695.482 461.403 689.957 474.643 679.927 484.582C678.984 485.515 678.242 486.632 677.746 487.862C677.25 489.093 677.01 490.412 677.041 491.738C677.067 492.72 677.717 516.126 686.687 537.219C710.744 593.762 761.691 593.977 765.474 593.983C769.277 593.985 773.042 594.738 776.554 596.2C780.065 597.661 783.254 599.801 785.936 602.498C788.641 605.188 790.786 608.388 792.245 611.912C793.705 615.437 794.45 619.217 794.438 623.032V651.151H790.063C789.381 651.001 788.672 650.904 787.938 650.904C787.203 650.904 786.501 651.001 785.812 651.151H491.518V623.032C491.528 615.377 494.554 608.035 499.94 602.596C505.327 597.157 512.639 594.06 520.294 593.977C526.027 594.295 573.256 594.971 598.19 538.753C606.737 519.493 608.512 492.915 608.583 491.79C608.67 490.413 608.463 489.034 607.977 487.743C607.49 486.452 606.736 485.279 605.762 484.302C600.905 479.445 597.056 473.676 594.436 467.327C591.816 460.977 590.476 454.173 590.494 447.304C590.494 418.36 614.037 394.817 642.975 394.817C671.932 394.823 695.482 418.366 695.482 447.311ZM632.042 771.388H282.621V314.119H632.042V376.246C597.533 381.544 570.994 411.346 570.994 447.311C570.994 464.893 577.266 481.533 588.752 494.65C587.965 502.216 585.736 518.746 580.36 530.849C560.126 576.479 522.835 574.607 521.321 574.509C521.065 574.489 520.81 574.478 520.554 574.477C493.787 574.477 472.005 596.258 472.005 623.032V660.901C472.005 663.486 473.032 665.966 474.861 667.795C476.689 669.623 479.169 670.651 481.755 670.651H489.438L489.679 700.115C489.699 702.687 490.735 705.147 492.562 706.959C494.388 708.771 496.856 709.787 499.429 709.787H632.029V771.388H632.042ZM778.194 690.294H644.184C643.417 690.099 642.624 689.962 641.792 689.962C640.96 689.962 640.173 690.099 639.4 690.294H509.114L508.951 670.657H778.194V690.294Z" fill="white"></path> <path fill-rule="evenodd" clip-rule="evenodd" d="M448.057 395.654H324.082C321.496 395.654 319.016 396.682 317.188 398.51C315.359 400.338 314.332 402.818 314.332 405.404C314.332 407.99 315.359 410.47 317.188 412.299C319.016 414.127 321.496 415.154 324.082 415.154H448.057C450.642 415.154 453.122 414.127 454.951 412.299C456.779 410.47 457.807 407.99 457.807 405.404C457.807 402.818 456.779 400.338 454.951 398.51C453.122 396.682 450.642 395.654 448.057 395.654ZM448.057 445.6H324.082C321.496 445.6 319.016 446.628 317.188 448.456C315.359 450.284 314.332 452.764 314.332 455.35C314.332 457.936 315.359 460.416 317.188 462.245C319.016 464.073 321.496 465.1 324.082 465.1H448.057C450.642 465.1 453.122 464.073 454.951 462.245C456.779 460.416 457.807 457.936 457.807 455.35C457.807 452.764 456.779 450.284 454.951 448.456C453.122 446.628 450.642 445.6 448.057 445.6ZM448.057 497.327H324.082C321.496 497.327 319.016 498.355 317.188 500.183C315.359 502.011 314.332 504.491 314.332 507.077C314.332 509.663 315.359 512.143 317.188 513.972C319.016 515.8 321.496 516.827 324.082 516.827H448.057C450.642 516.827 453.122 515.8 454.951 513.972C456.779 512.143 457.807 509.663 457.807 507.077C457.807 504.491 456.779 502.011 454.951 500.183C453.122 498.355 450.642 497.327 448.057 497.327Z" fill="white"></path> <defs> <linearGradient id="paint0_linear_3408_147" x1="158.104" y1="921.896" x2="921.896" y2="158.104" gradientUnits="userSpaceOnUse"> <stop stop-color="#4D0000"></stop> <stop offset="1" stop-color="#F03224"></stop> </linearGradient> </defs> </svg> 