<?xml version="1.0" encoding="UTF-8"?> <svg xmlns="http://www.w3.org/2000/svg" width="98" height="19" viewBox="0 0 98 19" fill="none"><path d="M8.23961 3.26397C8.47909 2.52692 9.52182 2.52692 9.7613 3.26397L10.8415 6.58839C10.9486 6.918 11.2557 7.14117 11.6023 7.14117H15.0978C15.8728 7.14117 16.195 8.13287 15.568 8.58839L12.7401 10.643C12.4597 10.8467 12.3424 11.2078 12.4495 11.5374L13.5297 14.8618C13.7692 15.5989 12.9256 16.2118 12.2986 15.7563L9.47069 13.7017C9.1903 13.4979 8.81062 13.4979 8.53023 13.7017L5.70231 15.7563C5.07534 16.2118 4.23175 15.5989 4.47123 14.8618L5.5514 11.5374C5.6585 11.2078 5.54118 10.8467 5.26079 10.643L2.43287 8.58839C1.8059 8.13287 2.12812 7.14117 2.9031 7.14117H6.3986C6.74518 7.14117 7.05234 6.91801 7.15944 6.58839L8.23961 3.26397Z" fill="#FFBA39"></path><path d="M28.2396 3.26397C28.4791 2.52692 29.5218 2.52692 29.7613 3.26397L30.8415 6.58839C30.9486 6.918 31.2557 7.14117 31.6023 7.14117H35.0978C35.8728 7.14117 36.195 8.13287 35.568 8.58839L32.7401 10.643C32.4597 10.8467 32.3424 11.2078 32.4495 11.5374L33.5297 14.8618C33.7692 15.5989 32.9256 16.2118 32.2986 15.7563L29.4707 13.7017C29.1903 13.4979 28.8106 13.4979 28.5302 13.7017L25.7023 15.7563C25.0753 16.2118 24.2318 15.5989 24.4712 14.8618L25.5514 11.5374C25.6585 11.2078 25.5412 10.8467 25.2608 10.643L22.4329 8.58839C21.8059 8.13287 22.1281 7.14117 22.9031 7.14117H26.3986C26.7452 7.14117 27.0523 6.91801 27.1594 6.58839L28.2396 3.26397Z" fill="#FFBA39"></path><path d="M48.2396 3.26397C48.4791 2.52692 49.5218 2.52692 49.7613 3.26397L50.8415 6.58839C50.9486 6.918 51.2557 7.14117 51.6023 7.14117H55.0978C55.8728 7.14117 56.195 8.13287 55.568 8.58839L52.7401 10.643C52.4597 10.8467 52.3424 11.2078 52.4495 11.5374L53.5297 14.8618C53.7692 15.5989 52.9256 16.2118 52.2986 15.7563L49.4707 13.7017C49.1903 13.4979 48.8106 13.4979 48.5302 13.7017L45.7023 15.7563C45.0753 16.2118 44.2318 15.5989 44.4712 14.8618L45.5514 11.5374C45.6585 11.2078 45.5412 10.8467 45.2608 10.643L42.4329 8.58839C41.8059 8.13287 42.1281 7.14117 42.9031 7.14117H46.3986C46.7452 7.14117 47.0523 6.91801 47.1594 6.58839L48.2396 3.26397Z" fill="#FFBA39"></path><path d="M68.2396 3.26397C68.4791 2.52692 69.5218 2.52692 69.7613 3.26397L70.8415 6.58839C70.9486 6.918 71.2557 7.14117 71.6023 7.14117H75.0978C75.8728 7.14117 76.195 8.13287 75.568 8.58839L72.7401 10.643C72.4597 10.8467 72.3424 11.2078 72.4495 11.5374L73.5297 14.8618C73.7692 15.5989 72.9256 16.2118 72.2986 15.7563L69.4707 13.7017C69.1903 13.4979 68.8106 13.4979 68.5302 13.7017L65.7023 15.7563C65.0753 16.2118 64.2318 15.5989 64.4712 14.8618L65.5514 11.5374C65.6585 11.2078 65.5412 10.8467 65.2608 10.643L62.4329 8.58839C61.8059 8.13287 62.1281 7.14117 62.9031 7.14117H66.3986C66.7452 7.14117 67.0523 6.91801 67.1594 6.58839L68.2396 3.26397Z" fill="#FFBA39"></path><path d="M88.2396 3.26397C88.4791 2.52692 89.5218 2.52692 89.7613 3.26397L90.8415 6.58839C90.9486 6.918 91.2557 7.14117 91.6023 7.14117H95.0978C95.8728 7.14117 96.195 8.13287 95.568 8.58839L92.7401 10.643C92.4597 10.8467 92.3424 11.2078 92.4495 11.5374L93.5297 14.8618C93.7692 15.5989 92.9256 16.2118 92.2986 15.7563L89.4707 13.7017C89.1903 13.4979 88.8106 13.4979 88.5302 13.7017L85.7023 15.7563C85.0753 16.2118 84.2318 15.5989 84.4712 14.8618L85.5514 11.5374C85.6585 11.2078 85.5412 10.8467 85.2608 10.643L82.4329 8.58839C81.8059 8.13287 82.1281 7.14117 82.9031 7.14117H86.3986C86.7452 7.14117 87.0523 6.91801 87.1594 6.58839L88.2396 3.26397Z" fill="#FFBA39"></path></svg> 