<?xml version="1.0" encoding="UTF-8"?> <svg xmlns="http://www.w3.org/2000/svg" viewBox="0 0 100 100" fill-rule="evenodd"><rect x="0" y="0" width="100" height="100" fill="#f2f4f4" rx="50" ry="50"></rect><g style="transform-origin: center center; transform: scale(0.6);"><path d="M93.995 22.82c0-6.447-5.246-11.693-11.693-11.693S70.609 16.373 70.609 22.82c0 5.938 4.453 10.846 10.192 11.586V48.5H52.5V34.406c5.74-.74 10.193-5.648 10.193-11.586 0-6.447-5.246-11.693-11.693-11.693S39.307 16.373 39.307 22.82c0 5.938 4.453 10.846 10.193 11.586V48.5H21.198V34.406c5.74-.74 10.193-5.648 10.193-11.586 0-6.447-5.246-11.693-11.693-11.693-6.448 0-11.693 5.246-11.693 11.693 0 5.938 4.453 10.846 10.193 11.586v31.188c-5.74.74-10.193 5.647-10.193 11.585 0 6.447 5.246 11.693 11.693 11.693 6.447 0 11.693-5.246 11.693-11.693 0-5.938-4.453-10.845-10.193-11.585V51.5H49.5v14.094c-5.74.74-10.193 5.647-10.193 11.585 0 6.447 5.246 11.693 11.693 11.693s11.693-5.246 11.693-11.693c0-5.938-4.453-10.845-10.193-11.585V51.5h29.802a1.5 1.5 0 0 0 1.5-1.5V34.406c5.74-.74 10.193-5.648 10.193-11.586zm-51.688 0c0-4.793 3.899-8.693 8.693-8.693s8.693 3.899 8.693 8.693-3.899 8.693-8.693 8.693c-4.793 0-8.693-3.9-8.693-8.693zm-31.302 0c0-4.793 3.9-8.693 8.693-8.693s8.693 3.899 8.693 8.693-3.899 8.693-8.693 8.693-8.693-3.9-8.693-8.693zm17.386 54.359c0 4.794-3.899 8.693-8.693 8.693s-8.693-3.899-8.693-8.693c0-4.793 3.9-8.692 8.693-8.692s8.693 3.899 8.693 8.692zm31.302 0c0 4.794-3.899 8.693-8.693 8.693-4.793 0-8.693-3.899-8.693-8.693 0-4.793 3.899-8.692 8.693-8.692 4.794-.001 8.693 3.899 8.693 8.692zm22.609-45.666c-4.793 0-8.692-3.9-8.692-8.693s3.899-8.693 8.692-8.693c4.794 0 8.693 3.899 8.693 8.693s-3.899 8.693-8.693 8.693z" fill="#f97f02"></path></g></svg> 