<?xml version="1.0" encoding="UTF-8"?> <svg xmlns="http://www.w3.org/2000/svg" width="1799" height="273" viewBox="0 0 1799 273" fill="none"><g clip-path="url(#clip0_68_2)"><path d="M252 40L270.22 41.34C285.508 42.3541 300.63 45.1155 315.29 49.57C330.75 54.37 343.44 63.46 354.62 74.89C360.62 81.01 366.51 87.18 372.52 93.26C376.62 97.4 381.39 96.92 384.33 91.89C385.409 89.7127 386.208 87.4077 386.71 85.03C387.91 80.75 389.61 78.91 394.03 78.52C403.51 77.69 412.31 80.14 420.42 84.92C423.84 86.92 423.85 89.98 420.16 91.41C413.854 93.7755 407.396 95.7133 400.83 97.21C387.36 100.45 373.74 103.09 360.3 106.47C342.4 110.96 327.53 120.88 314.24 133.4C311.922 135.64 309.482 137.75 306.93 139.72C312.07 129.55 320.4 121.85 328.09 112.98C263.742 109.69 199.268 109.69 134.92 112.98C142.47 122.07 151.05 129.81 156.11 140.33C153.49 137.91 150.82 135.55 148.27 133.06C131.19 116.35 110.53 106.99 87.2698 102.71C75.6098 100.57 63.9998 98.07 52.5198 95.16C48.1498 94.05 44.1898 91.35 40.0498 89.37V86.7C48.8298 80.33 58.7198 77.86 69.4398 78.58C72.9598 78.81 75.0498 80.98 75.9798 84.3C76.3508 86.1319 76.8249 87.9415 77.3998 89.72C80.1298 96.33 85.9298 98.41 91.0398 92.72C96.8298 86.3 102.96 80.18 109.04 74.05C119.83 63.23 132.04 54.56 146.76 49.85C161.7 45.1914 177.142 42.328 192.76 41.32C198.72 40.8867 204.676 40.4467 210.63 40H252ZM308.57 106.07C316.31 105.46 324.1 105.6 331.76 104.49C337.673 103.622 343.481 102.144 349.09 100.08C355.9 97.57 357.63 91.93 354.2 85.54C353.049 83.5145 351.742 81.582 350.29 79.76C336.63 61.89 318.24 52.88 296.09 51.38C287.38 50.79 283.78 53.53 282.73 62.14C281.73 70.55 281.83 79.14 281.83 87.64C281.986 90.627 282.603 93.5718 283.66 96.37C285.72 102.68 290.28 105.88 296.89 106.05C300.8 106.16 304.69 106.07 308.57 106.07ZM277.57 55.67C262.28 68.35 253.24 84.84 247.92 103.79H263.31C263.17 86.18 269.48 70.72 277.61 55.72L277.57 55.67Z" fill="#212A31"></path><path d="M351.87 183.77C367.65 183.77 376.35 193.49 374.96 209.85C374.7 212.706 374.171 215.532 373.38 218.29C371.46 225.07 366.73 229.1 360.1 231C349.54 234 338.38 231 332.97 224.09C327.05 216.52 325.87 195.76 336.45 188.09C340.19 185.34 345.17 183.79 351.87 183.77ZM361.73 207.91C361.502 205.428 361.121 202.964 360.59 200.53C359.27 195.7 356.3 193.76 351.2 193.95C346.63 194.12 343.37 196.59 342.74 201.32C342.195 205.359 342.155 209.45 342.62 213.5C343.24 218.71 346.25 221.26 350.84 221.5C356.48 221.77 359.26 219.84 360.75 214.34C361.2 212.217 361.528 210.07 361.73 207.91Z" fill="#F97F02"></path><path d="M120.51 184.04C125.78 199.72 131 215.32 136.38 231.21H122.25L119.85 222.77H104.22L101.8 231.21H87.7998C88.0798 230.15 88.2798 229.21 88.5698 228.34C93.1198 214.57 97.7298 200.81 102.19 187.01C102.92 184.75 103.91 183.87 106.36 184.01C111 184.2 115.66 184.04 120.51 184.04ZM117 211.93L112.29 193.72L111.66 193.8C110.16 199.75 108.66 205.7 107.09 211.9L117 211.93Z" fill="#212A31"></path><path d="M198.86 184.141C204.13 184.141 209.23 184.081 214.32 184.211C214.769 184.272 215.197 184.439 215.569 184.698C215.942 184.957 216.247 185.301 216.46 185.701C221.56 200.701 226.56 215.701 231.76 231.271C227.36 231.271 223.31 231.421 219.29 231.141C218.51 231.091 217.51 229.491 217.17 228.431C215.31 222.561 215.37 222.541 209.29 222.521H207.29C200.21 222.521 200.29 222.521 197.74 229.301C197.554 229.757 197.266 230.164 196.899 230.491C196.531 230.819 196.094 231.058 195.62 231.191C191.62 231.381 187.67 231.281 183.22 231.281L198.86 184.141ZM212.7 212.041C211 205.551 209.41 199.471 207.81 193.391H207.2L202.48 212.011L212.7 212.041Z" fill="#F97F02"></path><path d="M250.59 184.44C250.59 194.44 250.53 203.86 250.59 213.29C250.59 218.93 253.41 221.64 258.72 221.5C262.81 221.4 265.22 219.5 265.47 215.27C265.84 208.96 265.77 202.62 265.85 196.27C265.85 193.16 265.92 190.05 265.85 186.94C265.8 185.07 266.6 184.37 268.43 184.41C271.64 184.48 274.86 184.41 278.37 184.41C278.46 185.53 278.6 186.48 278.6 187.41C278.6 195.96 278.65 204.52 278.6 213.07C278.52 224.41 271.46 231.59 260.12 231.84C257.461 231.979 254.795 231.824 252.17 231.38C242.96 229.55 237.88 223.56 237.68 214.16C237.49 205.16 237.68 196.16 237.61 187.16C237.61 185.51 237.87 184.32 239.91 184.36C243.33 184.49 246.75 184.44 250.59 184.44Z" fill="#F97F02"></path><path d="M178.36 186.98C177.02 190.32 175.77 193.47 174.49 196.67C168.13 194.97 161.69 190.96 156.27 197.67C152.61 202.23 152.27 212.72 155.65 217.33C161.48 225.14 168.85 220.57 176.19 219.14C176.19 222.19 176.28 225.14 176.12 228.08C176.054 228.484 175.893 228.866 175.649 229.195C175.406 229.524 175.087 229.79 174.72 229.97C166.34 232.74 157.93 233.46 149.91 228.97C142.98 225.09 140.98 218.31 140.22 210.97C138.96 198.77 144.44 188.5 154.44 185.05C162.45 182.36 170.35 183.5 178.36 186.98Z" fill="#212A31"></path><path d="M286.84 194.721V184.721H322.45V194.591H311.25V231.021H298.25V194.721H286.84Z" fill="#F97F02"></path><path d="M328.43 162.31C333.89 158.19 338.97 153.39 344.88 150.09C365.99 138.34 387.37 127.09 408.67 115.65C410.51 122.7 407.1 137.17 398.03 141.17C388.23 145.49 378.03 149 368.03 152.64C363.893 154.037 359.654 155.107 355.35 155.84C366.35 149.76 378.63 146.21 388.02 137.3C377.02 138.19 367.02 142.35 357.38 147.02C347.74 151.69 338.38 157.39 328.97 162.64L328.43 162.31Z" fill="#212A31"></path><path d="M74.6102 138.06C84.2702 146.24 96.6102 149.66 107.35 156.14C103.14 154.98 98.8702 154.02 94.7602 152.61C85.8502 149.61 76.9202 146.56 68.2002 143.06C59.4802 139.56 55.3502 132.55 54.1202 123.56C53.7802 121.06 53.6902 118.56 53.4502 115.67C54.0909 115.743 54.7215 115.887 55.3302 116.1C75.7502 127.1 96.2802 137.83 116.48 149.18C122.48 152.55 127.55 157.58 133.03 161.88C133.497 162.321 133.841 162.876 134.03 163.49C116.434 150.762 96.5676 141.513 75.5002 136.24L74.6102 138.06Z" fill="#212A31"></path></g><path d="M549.836 117.332C545.543 117.332 541.557 116.667 537.877 115.337C534.25 113.956 531.079 112.012 528.372 109.505C525.713 106.998 523.644 104.031 522.163 100.604C520.682 97.1758 519.94 93.3902 519.94 89.2463C519.94 85.1025 520.682 81.3167 522.163 77.8891C523.644 74.4614 525.713 71.4942 528.372 68.9874C531.079 66.4807 534.25 64.5622 537.877 63.2321C541.557 61.8508 545.543 61.1602 549.836 61.1602C555.101 61.1602 559.749 62.081 563.787 63.9227C567.874 65.7644 571.247 68.4247 573.906 71.9035L562.484 82.1097C560.899 80.1145 559.136 78.5797 557.195 77.5054C555.303 76.3799 553.156 75.8171 550.756 75.8171C548.864 75.8171 547.153 76.1241 545.62 76.738C544.087 77.3519 542.759 78.2472 541.634 79.4238C540.56 80.6005 539.717 82.0329 539.104 83.7212C538.491 85.3581 538.184 87.1999 538.184 89.2463C538.184 91.2928 538.491 93.16 539.104 94.8482C539.717 96.4852 540.56 97.8923 541.634 99.0688C542.759 100.245 544.087 101.141 545.62 101.755C547.153 102.369 548.864 102.675 550.756 102.675C553.156 102.675 555.303 102.138 557.195 101.064C559.136 99.9384 560.899 98.3782 562.484 96.383L573.906 106.589C571.247 110.017 567.874 112.677 563.787 114.57C559.749 116.412 555.101 117.332 549.836 117.332ZM595.931 82.3399H619.847V95.3854H595.931V82.3399ZM597.157 102.445H623.987V116.105H579.373V62.388H622.99V76.0474H597.157V102.445ZM643.513 116.105V72.5174L647.423 76.431H627.799V62.388H677.012V76.431H657.388L661.297 72.5174V116.105H643.513ZM711.877 78.8867C718.417 78.8867 723.528 80.3703 727.208 83.3375C730.94 86.2535 732.804 90.6789 732.804 96.6132C732.804 103.008 730.71 107.868 726.518 111.193C722.326 114.468 716.681 116.105 709.577 116.105H682.977V62.388H700.761V78.8867H711.877ZM708.35 103.443C710.138 103.443 711.622 102.88 712.796 101.755C714.023 100.578 714.636 98.9666 714.636 96.9201C714.636 94.8737 714.023 93.4669 712.796 92.6995C711.622 91.9322 710.138 91.5485 708.35 91.5485H700.761V103.443H708.35ZM789.014 117.332C784.721 117.332 780.735 116.667 777.055 115.337C773.424 113.956 770.257 112.012 767.55 109.505C764.891 106.998 762.822 104.031 761.341 100.604C759.856 97.1758 759.118 93.3902 759.118 89.2463C759.118 85.1025 759.856 81.3167 761.341 77.8891C762.822 74.4614 764.891 71.4942 767.55 68.9874C770.257 66.4807 773.424 64.5622 777.055 63.2321C780.735 61.8508 784.721 61.1602 789.014 61.1602C794.275 61.1602 798.927 62.081 802.965 63.9227C807.052 65.7644 810.425 68.4247 813.084 71.9035L801.662 82.1097C800.076 80.1145 798.313 78.5797 796.373 77.5054C794.481 76.3799 792.334 75.8171 789.933 75.8171C788.041 75.8171 786.331 76.1241 784.797 76.738C783.264 77.3519 781.933 78.2472 780.811 79.4238C779.738 80.6005 778.895 82.0329 778.282 83.7212C777.668 85.3581 777.362 87.1999 777.362 89.2463C777.362 91.2928 777.668 93.16 778.282 94.8482C778.895 96.4852 779.738 97.8923 780.811 99.0688C781.933 100.245 783.264 101.141 784.797 101.755C786.331 102.369 788.041 102.675 789.933 102.675C792.334 102.675 794.481 102.138 796.373 101.064C798.313 99.9384 800.076 98.3782 801.662 96.383L813.084 106.589C810.425 110.017 807.052 112.677 802.965 114.57C798.927 116.412 794.275 117.332 789.014 117.332ZM813.275 116.105L836.732 62.388H854.516L877.973 116.105H859.269L841.945 70.9826H848.997L831.673 116.105H813.275ZM827.227 106.743L831.826 93.6971H856.509L861.109 106.743H827.227ZM887.663 117.102C886.538 117.102 885.336 117.026 884.06 116.872C882.782 116.719 881.426 116.463 879.997 116.105L880.917 101.601C881.632 101.755 882.297 101.831 882.91 101.831C884.903 101.831 886.384 101.013 887.356 99.3758C888.325 97.7388 888.991 95.5388 889.35 92.7763C889.705 89.9624 889.935 86.8162 890.039 83.3375L890.729 62.388H936.033V116.105H918.249V72.5941L922.158 76.431H902.611L906.137 72.3639L905.831 82.6468C905.677 87.8138 905.318 92.5206 904.757 96.7667C904.245 100.962 903.35 104.594 902.074 107.663C900.796 110.682 898.98 113.01 896.632 114.647C894.332 116.284 891.343 117.102 887.663 117.102ZM972.8 117.332C968.455 117.332 964.417 116.642 960.689 115.261C957.009 113.879 953.814 111.935 951.107 109.428C948.396 106.871 946.277 103.878 944.744 100.45C943.26 97.0223 942.521 93.288 942.521 89.2463C942.521 85.1537 943.26 81.419 944.744 78.0425C946.277 74.6149 948.396 71.6477 951.107 69.1409C953.814 66.583 957.009 64.6134 960.689 63.2321C964.417 61.8508 968.455 61.1602 972.8 61.1602C977.194 61.1602 981.232 61.8508 984.912 63.2321C988.591 64.6134 991.783 66.583 994.494 69.1409C997.201 71.6477 999.295 74.6149 1000.78 78.0425C1002.31 81.419 1003.08 85.1537 1003.08 89.2463C1003.08 93.288 1002.31 97.0223 1000.78 100.45C999.295 103.878 997.201 106.871 994.494 109.428C991.783 111.935 988.591 113.879 984.912 115.261C981.232 116.642 977.194 117.332 972.8 117.332ZM972.8 102.675C974.487 102.675 976.044 102.369 977.476 101.755C978.957 101.141 980.236 100.271 981.309 99.1455C982.431 97.969 983.302 96.5619 983.915 94.9249C984.529 93.2367 984.835 91.3437 984.835 89.2463C984.835 87.1489 984.529 85.2814 983.915 83.6444C983.302 81.9562 982.431 80.5493 981.309 79.4238C980.236 78.2472 978.957 77.3519 977.476 76.738C976.044 76.1241 974.487 75.8171 972.8 75.8171C971.114 75.8171 969.528 76.1241 968.048 76.738C966.615 77.3519 965.337 78.2472 964.215 79.4238C963.142 80.5493 962.298 81.9562 961.685 83.6444C961.072 85.2814 960.765 87.1489 960.765 89.2463C960.765 91.3437 961.072 93.2367 961.685 94.9249C962.298 96.5619 963.142 97.969 964.215 99.1455C965.337 100.271 966.615 101.141 968.048 101.755C969.528 102.369 971.114 102.675 972.8 102.675ZM1044.39 62.388H1062.48V116.105H1044.39V62.388ZM1027.68 116.105H1009.59V62.388H1027.68V116.105ZM1045.62 96.3062H1026.45V81.419H1045.62V96.3062ZM1099.31 117.332C1094.97 117.332 1090.93 116.642 1087.2 115.261C1083.52 113.879 1080.33 111.935 1077.62 109.428C1074.91 106.871 1072.79 103.878 1071.25 100.45C1069.77 97.0223 1069.03 93.288 1069.03 89.2463C1069.03 85.1537 1069.77 81.419 1071.25 78.0425C1072.79 74.6149 1074.91 71.6477 1077.62 69.1409C1080.33 66.583 1083.52 64.6134 1087.2 63.2321C1090.93 61.8508 1094.97 61.1602 1099.31 61.1602C1103.71 61.1602 1107.74 61.8508 1111.42 63.2321C1115.1 64.6134 1118.3 66.583 1121 69.1409C1123.72 71.6477 1125.81 74.6149 1127.29 78.0425C1128.82 81.419 1129.59 85.1537 1129.59 89.2463C1129.59 93.288 1128.82 97.0223 1127.29 100.45C1125.81 103.878 1123.72 106.871 1121 109.428C1118.3 111.935 1115.1 113.879 1111.42 115.261C1107.74 116.642 1103.71 117.332 1099.31 117.332ZM1099.31 102.675C1101 102.675 1102.56 102.369 1103.99 101.755C1105.47 101.141 1106.75 100.271 1107.82 99.1455C1108.95 97.969 1109.81 96.5619 1110.43 94.9249C1111.04 93.2367 1111.35 91.3437 1111.35 89.2463C1111.35 87.1489 1111.04 85.2814 1110.43 83.6444C1109.81 81.9562 1108.95 80.5493 1107.82 79.4238C1106.75 78.2472 1105.47 77.3519 1103.99 76.738C1102.56 76.1241 1101 75.8171 1099.31 75.8171C1097.62 75.8171 1096.04 76.1241 1094.56 76.738C1093.13 77.3519 1091.85 78.2472 1090.73 79.4238C1089.65 80.5493 1088.81 81.9562 1088.2 83.6444C1087.58 85.2814 1087.28 87.1489 1087.28 89.2463C1087.28 91.3437 1087.58 93.2367 1088.2 94.9249C1088.81 96.5619 1089.65 97.969 1090.73 99.1455C1091.85 100.271 1093.13 101.141 1094.56 101.755C1096.04 102.369 1097.62 102.675 1099.31 102.675ZM1136.1 116.105V62.388H1163.32C1169.96 62.388 1175.1 63.6158 1178.72 66.0714C1182.4 68.527 1184.24 71.9802 1184.24 76.431C1184.24 80.7796 1182.56 84.2328 1179.18 86.7907C1175.81 89.2976 1171.26 90.5509 1165.54 90.5509L1167.07 86.407C1173.15 86.407 1177.93 87.6094 1181.41 90.0137C1184.88 92.418 1186.62 95.9225 1186.62 100.527C1186.62 105.285 1184.73 109.07 1180.95 111.884C1177.17 114.698 1171.77 116.105 1164.77 116.105H1136.1ZM1153.89 103.443H1163.93C1165.41 103.443 1166.51 103.085 1167.22 102.369C1167.99 101.601 1168.37 100.527 1168.37 99.1455C1168.37 97.7642 1167.99 96.7412 1167.22 96.076C1166.51 95.3599 1165.41 95.0017 1163.93 95.0017H1153.89V103.443ZM1153.89 83.0305H1161.55C1163.09 83.0305 1164.21 82.698 1164.92 82.0329C1165.64 81.3679 1166 80.3959 1166 79.1169C1166 77.7868 1165.64 76.7892 1164.92 76.1241C1164.21 75.4079 1163.09 75.0498 1161.55 75.0498H1153.89V83.0305ZM518.33 210.283L541.787 156.567H559.571L583.028 210.283H564.324L547 165.161H554.052L536.728 210.283H518.33ZM532.282 200.921L536.881 187.876H561.564L566.164 200.921H532.282ZM587.979 210.283V156.567H615.192C621.837 156.567 626.973 157.794 630.6 160.25C634.28 162.706 636.119 166.159 636.119 170.61C636.119 174.958 634.433 178.412 631.06 180.969C627.687 183.476 623.14 184.729 617.415 184.729L618.948 180.586C625.032 180.586 629.809 181.788 633.283 184.192C636.76 186.597 638.496 190.101 638.496 194.705C638.496 199.463 636.607 203.249 632.823 206.063C629.043 208.877 623.652 210.283 616.649 210.283H587.979ZM605.763 197.621H615.805C617.29 197.621 618.387 197.263 619.102 196.547C619.868 195.78 620.251 194.705 620.251 193.324C620.251 191.943 619.868 190.92 619.102 190.255C618.387 189.539 617.29 189.18 615.805 189.18H605.763V197.621ZM605.763 177.209H613.429C614.962 177.209 616.088 176.877 616.802 176.212C617.52 175.546 617.875 174.575 617.875 173.296C617.875 171.965 617.52 170.968 616.802 170.303C616.088 169.587 614.962 169.228 613.429 169.228H605.763V177.209ZM656.388 210.283V166.696L660.297 170.61H640.673V156.567H689.887V170.61H670.263L674.172 166.696V210.283H656.388ZM722.396 211.511C718.051 211.511 714.012 210.82 710.284 209.439C706.605 208.058 703.41 206.114 700.702 203.607C697.991 201.049 695.873 198.056 694.34 194.629C692.855 191.201 692.117 187.467 692.117 183.425C692.117 179.332 692.855 175.598 694.34 172.221C695.873 168.793 697.991 165.826 700.702 163.32C703.41 160.762 706.605 158.792 710.284 157.411C714.012 156.029 718.051 155.339 722.396 155.339C726.79 155.339 730.828 156.029 734.508 157.411C738.187 158.792 741.379 160.762 744.09 163.32C746.797 165.826 748.891 168.793 750.375 172.221C751.908 175.598 752.675 179.332 752.675 183.425C752.675 187.467 751.908 191.201 750.375 194.629C748.891 198.056 746.797 201.049 744.09 203.607C741.379 206.114 738.187 208.058 734.508 209.439C730.828 210.82 726.79 211.511 722.396 211.511ZM722.396 196.854C724.082 196.854 725.64 196.547 727.072 195.933C728.553 195.319 729.832 194.45 730.905 193.324C732.027 192.148 732.898 190.741 733.511 189.104C734.124 187.415 734.431 185.522 734.431 183.425C734.431 181.328 734.124 179.46 733.511 177.823C732.898 176.135 732.027 174.728 730.905 173.602C729.832 172.426 728.553 171.531 727.072 170.917C725.64 170.303 724.082 169.996 722.396 169.996C720.709 169.996 719.124 170.303 717.643 170.917C716.211 171.531 714.932 172.426 713.81 173.602C712.737 174.728 711.894 176.135 711.281 177.823C710.667 179.46 710.361 181.328 710.361 183.425C710.361 185.522 710.667 187.415 711.281 189.104C711.894 190.741 712.737 192.148 713.81 193.324C714.932 194.45 716.211 195.319 717.643 195.933C719.124 196.547 720.709 196.854 722.396 196.854ZM759.184 210.283V156.567H774.055L795.519 191.636H787.7L808.55 156.567H823.422L823.575 210.283H807.094L806.941 181.43H809.547L795.289 205.449H787.317L772.445 181.43H775.665V210.283H759.184ZM860.286 211.511C855.941 211.511 851.903 210.82 848.175 209.439C844.495 208.058 841.3 206.114 838.593 203.607C835.882 201.049 833.763 198.056 832.23 194.629C830.746 191.201 830.007 187.467 830.007 183.425C830.007 179.332 830.746 175.598 832.23 172.221C833.763 168.793 835.882 165.826 838.593 163.32C841.3 160.762 844.495 158.792 848.175 157.411C851.903 156.029 855.941 155.339 860.286 155.339C864.68 155.339 868.719 156.029 872.398 157.411C876.078 158.792 879.269 160.762 881.98 163.32C884.687 165.826 886.782 168.793 888.266 172.221C889.799 175.598 890.566 179.332 890.566 183.425C890.566 187.467 889.799 191.201 888.266 194.629C886.782 198.056 884.687 201.049 881.98 203.607C879.269 206.114 876.078 208.058 872.398 209.439C868.719 210.82 864.68 211.511 860.286 211.511ZM860.286 196.854C861.973 196.854 863.53 196.547 864.962 195.933C866.443 195.319 867.722 194.45 868.795 193.324C869.917 192.148 870.788 190.741 871.402 189.104C872.015 187.415 872.321 185.522 872.321 183.425C872.321 181.328 872.015 179.46 871.402 177.823C870.788 176.135 869.917 174.728 868.795 173.602C867.722 172.426 866.443 171.531 864.962 170.917C863.53 170.303 861.973 169.996 860.286 169.996C858.6 169.996 857.015 170.303 855.534 170.917C854.102 171.531 852.823 172.426 851.701 173.602C850.628 174.728 849.785 176.135 849.171 177.823C848.558 179.46 848.251 181.328 848.251 183.425C848.251 185.522 848.558 187.415 849.171 189.104C849.785 190.741 850.628 192.148 851.701 193.324C852.823 194.45 854.102 195.319 855.534 195.933C857.015 196.547 858.6 196.854 860.286 196.854ZM897.074 210.283V156.567H943.605V170.226H914.859V176.442H927.66C934.204 176.442 939.211 177.849 942.685 180.662C946.211 183.425 947.974 187.441 947.974 192.71C947.974 198.184 945.981 202.481 941.995 205.602C938.009 208.723 932.465 210.283 925.361 210.283H897.074ZM914.859 197.621H924.134C925.925 197.621 927.305 197.238 928.273 196.47C929.298 195.703 929.807 194.603 929.807 193.171C929.807 190.408 927.918 189.027 924.134 189.027H914.859V197.621ZM954.194 210.283V156.567H971.978V184.499L990.452 156.567H1007.47V210.283H989.685V182.427L971.288 210.283H954.194ZM1020.99 211.281C1019.86 211.281 1018.66 211.204 1017.38 211.051C1016.11 210.897 1014.75 210.642 1013.32 210.283L1014.24 195.78C1014.96 195.933 1015.62 196.01 1016.23 196.01C1018.23 196.01 1019.71 195.191 1020.68 193.554C1021.65 191.917 1022.32 189.717 1022.67 186.955C1023.03 184.141 1023.26 180.995 1023.36 177.516L1024.05 156.567H1069.36V210.283H1051.57V166.773L1055.48 170.61H1035.93L1039.46 166.543L1039.15 176.825C1039 181.992 1038.64 186.699 1038.08 190.945C1037.57 195.14 1036.68 198.773 1035.4 201.842C1034.12 204.86 1032.31 207.188 1029.95 208.825C1027.65 210.462 1024.67 211.281 1020.99 211.281ZM1095.39 176.519H1119.31V189.564H1095.39V176.519ZM1096.62 196.624H1123.45V210.283H1078.83V156.567H1122.45V170.226H1096.62V196.624ZM1130.79 210.283V156.567H1148.57V184.499L1167.05 156.567H1184.06V210.283H1166.28V182.427L1147.88 210.283H1130.79ZM1157.39 153.497C1151.3 153.497 1146.99 152.371 1144.43 150.121C1141.93 147.818 1140.68 144.544 1140.68 140.298H1152.71C1152.71 141.986 1153.04 143.24 1153.71 144.058C1154.42 144.826 1155.65 145.209 1157.39 145.209C1159.18 145.209 1160.43 144.826 1161.14 144.058C1161.86 143.24 1162.22 141.986 1162.22 140.298H1174.25C1174.25 144.544 1172.95 147.818 1170.34 150.121C1167.79 152.371 1163.47 153.497 1157.39 153.497ZM1243.56 211.511C1239.27 211.511 1235.28 210.846 1231.6 209.516C1227.97 208.135 1224.8 206.191 1222.1 203.684C1219.44 201.177 1217.37 198.21 1215.89 194.782C1214.4 191.354 1213.66 187.569 1213.66 183.425C1213.66 179.281 1214.4 175.495 1215.89 172.068C1217.37 168.64 1219.44 165.673 1222.1 163.166C1224.8 160.659 1227.97 158.741 1231.6 157.411C1235.28 156.029 1239.27 155.339 1243.56 155.339C1248.82 155.339 1253.47 156.26 1257.51 158.101C1261.6 159.943 1264.97 162.603 1267.63 166.082L1256.21 176.288C1254.62 174.293 1252.86 172.758 1250.92 171.684C1249.03 170.558 1246.88 169.996 1244.48 169.996C1242.59 169.996 1240.88 170.303 1239.34 170.917C1237.81 171.531 1236.48 172.426 1235.36 173.602C1234.28 174.779 1233.44 176.212 1232.83 177.9C1232.22 179.537 1231.91 181.378 1231.91 183.425C1231.91 185.471 1232.22 187.339 1232.83 189.027C1233.44 190.664 1234.28 192.071 1235.36 193.247C1236.48 194.424 1237.81 195.319 1239.34 195.933C1240.88 196.547 1242.59 196.854 1244.48 196.854C1246.88 196.854 1249.03 196.317 1250.92 195.243C1252.86 194.117 1254.62 192.557 1256.21 190.562L1267.63 200.768C1264.97 204.196 1261.6 206.856 1257.51 208.749C1253.47 210.59 1248.82 211.511 1243.56 211.511ZM1296.08 210.283V156.567H1347.97V210.283H1330.19V166.773L1334.1 170.61H1309.95L1313.86 166.773V210.283H1296.08ZM1357.46 210.283V156.567H1383.29C1388.3 156.567 1392.62 157.385 1396.25 159.022C1399.93 160.659 1402.76 163.013 1404.76 166.082C1406.75 169.1 1407.75 172.682 1407.75 176.825C1407.75 180.969 1406.75 184.551 1404.76 187.569C1402.76 190.587 1399.93 192.94 1396.25 194.629C1392.62 196.266 1388.3 197.084 1383.29 197.084H1367.5L1375.55 189.334V210.283H1357.46ZM1375.55 191.329L1367.5 183.118H1382.14C1384.65 183.118 1386.49 182.555 1387.66 181.43C1388.89 180.304 1389.5 178.769 1389.5 176.825C1389.5 174.882 1388.89 173.347 1387.66 172.221C1386.49 171.096 1384.65 170.533 1382.14 170.533H1367.5L1375.55 162.322V191.329ZM1441.27 211.511C1436.93 211.511 1432.89 210.82 1429.16 209.439C1425.48 208.058 1422.28 206.114 1419.58 203.607C1416.87 201.049 1414.75 198.056 1413.21 194.629C1411.73 191.201 1410.99 187.467 1410.99 183.425C1410.99 179.332 1411.73 175.598 1413.21 172.221C1414.75 168.793 1416.87 165.826 1419.58 163.32C1422.28 160.762 1425.48 158.792 1429.16 157.411C1432.89 156.029 1436.93 155.339 1441.27 155.339C1445.66 155.339 1449.7 156.029 1453.38 157.411C1457.06 158.792 1460.26 160.762 1462.96 163.32C1465.67 165.826 1467.77 168.793 1469.25 172.221C1470.78 175.598 1471.55 179.332 1471.55 183.425C1471.55 187.467 1470.78 191.201 1469.25 194.629C1467.77 198.056 1465.67 201.049 1462.96 203.607C1460.26 206.114 1457.06 208.058 1453.38 209.439C1449.7 210.82 1445.66 211.511 1441.27 211.511ZM1441.27 196.854C1442.96 196.854 1444.51 196.547 1445.95 195.933C1447.43 195.319 1448.71 194.45 1449.78 193.324C1450.9 192.148 1451.77 190.741 1452.39 189.104C1453 187.415 1453.31 185.522 1453.31 183.425C1453.31 181.328 1453 179.46 1452.39 177.823C1451.77 176.135 1450.9 174.728 1449.78 173.602C1448.71 172.426 1447.43 171.531 1445.95 170.917C1444.51 170.303 1442.96 169.996 1441.27 169.996C1439.58 169.996 1438 170.303 1436.52 170.917C1435.09 171.531 1433.81 172.426 1432.69 173.602C1431.61 174.728 1430.77 176.135 1430.16 177.823C1429.54 179.46 1429.24 181.328 1429.24 183.425C1429.24 185.522 1429.54 187.415 1430.16 189.104C1430.77 190.741 1431.61 192.148 1432.69 193.324C1433.81 194.45 1435.09 195.319 1436.52 195.933C1438 196.547 1439.58 196.854 1441.27 196.854ZM1478.06 210.283V156.567H1524.59V170.226H1495.85V176.442H1508.65C1515.19 176.442 1520.2 177.849 1523.67 180.662C1527.2 183.425 1528.96 187.441 1528.96 192.71C1528.96 198.184 1526.97 202.481 1522.98 205.602C1519 208.723 1513.45 210.283 1506.35 210.283H1478.06ZM1495.85 197.621H1505.12C1506.91 197.621 1508.29 197.238 1509.26 196.47C1510.28 195.703 1510.79 194.603 1510.79 193.171C1510.79 190.408 1508.9 189.027 1505.12 189.027H1495.85V197.621ZM1551.74 176.519H1575.65V189.564H1551.74V176.519ZM1552.96 196.624H1579.79V210.283H1535.18V156.567H1578.8V170.226H1552.96V196.624ZM1587.13 210.283V156.567H1627.99V170.61H1601L1604.91 166.696V210.283H1587.13ZM1657.39 211.511C1653.05 211.511 1649.01 210.82 1645.28 209.439C1641.6 208.058 1638.41 206.114 1635.7 203.607C1632.99 201.049 1630.87 198.056 1629.33 194.629C1627.85 191.201 1627.11 187.467 1627.11 183.425C1627.11 179.332 1627.85 175.598 1629.33 172.221C1630.87 168.793 1632.99 165.826 1635.7 163.32C1638.41 160.762 1641.6 158.792 1645.28 157.411C1649.01 156.029 1653.05 155.339 1657.39 155.339C1661.79 155.339 1665.82 156.029 1669.5 157.411C1673.18 158.792 1676.38 160.762 1679.08 163.32C1681.79 165.826 1683.89 168.793 1685.37 172.221C1686.9 175.598 1687.67 179.332 1687.67 183.425C1687.67 187.467 1686.9 191.201 1685.37 194.629C1683.89 198.056 1681.79 201.049 1679.08 203.607C1676.38 206.114 1673.18 208.058 1669.5 209.439C1665.82 210.82 1661.79 211.511 1657.39 211.511ZM1657.39 196.854C1659.08 196.854 1660.64 196.547 1662.06 195.933C1663.55 195.319 1664.82 194.45 1665.9 193.324C1667.02 192.148 1667.89 190.741 1668.5 189.104C1669.12 187.415 1669.42 185.522 1669.42 183.425C1669.42 181.328 1669.12 179.46 1668.5 177.823C1667.89 176.135 1667.02 174.728 1665.9 173.602C1664.82 172.426 1663.55 171.531 1662.06 170.917C1660.64 170.303 1659.08 169.996 1657.39 169.996C1655.7 169.996 1654.12 170.303 1652.64 170.917C1651.21 171.531 1649.93 172.426 1648.8 173.602C1647.73 174.728 1646.89 176.135 1646.27 177.823C1645.66 179.46 1645.35 181.328 1645.35 183.425C1645.35 185.522 1645.66 187.415 1646.27 189.104C1646.89 190.741 1647.73 192.148 1648.8 193.324C1649.93 194.45 1651.21 195.319 1652.64 195.933C1654.12 196.547 1655.7 196.854 1657.39 196.854ZM1694.18 210.283V156.567H1709.05L1730.52 191.636H1722.7L1743.55 156.567H1758.42L1758.57 210.283H1742.09L1741.94 181.43H1744.54L1730.29 205.449H1722.31L1707.44 181.43H1710.66V210.283H1694.18Z" fill="#212A31"></path><defs><clipPath id="clip0_68_2"><rect width="383.33" height="192.67" fill="white" transform="translate(40 40)"></rect></clipPath></defs></svg> 