<?xml version="1.0" encoding="UTF-8"?> <!-- Creator: CorelDRAW --> <svg xmlns="http://www.w3.org/2000/svg" xmlns:xlink="http://www.w3.org/1999/xlink" xmlns:xodm="http://www.corel.com/coreldraw/odm/2003" xml:space="preserve" width="1080px" height="1080px" style="shape-rendering:geometricPrecision; text-rendering:geometricPrecision; image-rendering:optimizeQuality; fill-rule:evenodd; clip-rule:evenodd" viewBox="0 0 305.23 305.23"> <defs> <style type="text/css"> <![CDATA[ .fil1 {fill:#FEFEFE;fill-rule:nonzero} .fil0 {fill:url(#id0)} ]]> </style> <linearGradient id="id0" gradientUnits="userSpaceOnUse" x1="44.7" y1="260.53" x2="260.53" y2="44.7"> <stop offset="0" style="stop-opacity:1; stop-color:#4D0000"></stop> <stop offset="1" style="stop-opacity:1; stop-color:#F03224"></stop> </linearGradient> </defs> <g id="Слой_x0020_1"> <metadata id="CorelCorpID_0Corel-Layer"></metadata> <circle class="fil0" cx="152.61" cy="152.61" r="152.61"></circle> <path class="fil1" d="M154.21 73l29.09 0 7.02 -7.02c0.32,-0.31 0.55,-0.63 0.7,-0.94 0.25,-0.53 0.33,-1.08 0.24,-1.6 -0.08,-0.5 -0.33,-0.98 -0.73,-1.39l-0.11 -0.11c-0.23,-0.21 -0.51,-0.4 -0.83,-0.55l-5.1 -2.45 -3.71 8.03c-0.68,1.46 -2.4,2.1 -3.86,1.43 -1.46,-0.68 -2.1,-2.4 -1.42,-3.86l6.18 -13.4c0.13,-0.27 0.2,-0.52 0.2,-0.73 0,-0.07 -0.01,-0.13 -0.02,-0.15 -0.06,-0.09 -0.21,-0.19 -0.46,-0.3 -0.61,-0.29 -1.54,-0.45 -2.84,-0.45l-19.43 0c-1.22,0 -2.11,0.16 -2.72,0.43 -0.23,0.1 -0.39,0.21 -0.49,0.3l-0.04 0.07c-0.02,0.03 -0.04,0.1 -0.04,0.19 0,0.2 0.06,0.43 0.17,0.68l6.02 13.39c0.65,1.47 -0.01,3.18 -1.47,3.84 -1.46,0.65 -3.18,-0.01 -3.83,-1.47l-3.62 -8.05 -5.19 2.5c-0.35,0.17 -0.67,0.39 -0.93,0.66 -0.41,0.41 -0.66,0.89 -0.74,1.39 -0.09,0.52 -0.01,1.07 0.24,1.6 0.15,0.31 0.38,0.63 0.7,0.94l7.02 7.02zm-7.15 124.22c-1.61,0 -2.91,-1.3 -2.91,-2.91 0,-1.61 1.3,-2.91 2.91,-2.91l35.7 0c0.06,-2.3 -0.2,-4.25 -0.81,-5.84 -0.56,-1.5 -1.44,-2.71 -2.62,-3.61 -2.57,-1.96 -6.15,-2.22 -9.73,-2.47 -1.53,-0.1 -3.06,-0.21 -4.57,-0.43 -2.91,-0.43 -5.9,-1.06 -8.96,-1.88 -3.02,-0.81 -6.13,-1.82 -9.32,-3.03 -10.47,-3.96 -17.44,-6.41 -24.72,-7.28 -6.78,-0.81 -14.02,-0.27 -24.85,1.66l0 47.89c9.82,2.24 20.46,3.58 31.93,4.01 12.38,0.46 25.75,-0.13 40.11,-1.78 8.6,-0.99 14.57,-1.9 20.27,-3.5 5.72,-1.6 11.29,-3.91 19.14,-7.7 4.38,-2.12 9.02,-4.71 13.95,-7.64 4.88,-2.9 10.14,-6.21 15.76,-9.77 1.81,-1.14 3.8,-3.31 4.75,-5.7 0.61,-1.53 0.74,-3.12 -0.05,-4.42 -2.72,-4.44 -8.81,-1.87 -12.87,-0.15 -0.74,0.31 -1.45,0.61 -1.79,0.74l-41.85 16.45c-0.38,0.17 -0.8,0.27 -1.24,0.27l-38.23 0zm41.5 -7.32l37.7 -14.81c0.71,-0.28 1.17,-0.47 1.66,-0.68 5.9,-2.49 14.75,-6.23 20.08,2.48 1.88,3.08 1.72,6.47 0.48,9.58 -1.42,3.57 -4.36,6.79 -7.02,8.48 -5.57,3.53 -10.83,6.83 -15.92,9.86 -5.03,2.99 -9.81,5.65 -14.39,7.86 -8.16,3.95 -14.01,6.37 -20.09,8.07 -6.08,1.7 -12.29,2.66 -21.18,3.68 -14.6,1.68 -28.26,2.28 -40.97,1.8 -11.45,-0.43 -22.1,-1.73 -31.97,-3.91 -0.22,0.63 -0.58,1.19 -1.04,1.65l-0.01 0.02c-0.79,0.79 -1.88,1.28 -3.08,1.28l-20.75 0c-1.2,0 -2.29,-0.49 -3.08,-1.28l-0.01 -0.02c-0.79,-0.79 -1.28,-1.87 -1.28,-3.07l0 -58.99c0,-1.19 0.49,-2.28 1.28,-3.07l0.01 -0.01c0.79,-0.79 1.88,-1.28 3.08,-1.28l20.75 0c1.2,0 2.29,0.49 3.08,1.28l0.01 0.01c0.79,0.79 1.28,1.88 1.28,3.07l0 0.72c10.89,-1.89 18.37,-2.39 25.54,-1.54 7.88,0.94 15.17,3.5 26.07,7.62 2.99,1.13 5.91,2.08 8.78,2.85 2.84,0.77 5.61,1.34 8.31,1.74 1.33,0.2 2.72,0.29 4.11,0.39 4.45,0.31 8.91,0.63 12.86,3.65 2.07,1.58 3.59,3.64 4.54,6.18 0.71,1.88 1.1,4.01 1.17,6.39zm-26.33 -33.34c-2.49,0 -3.74,-1.3 -3.74,-3.91l0 -4.55 -2.59 0c-1.84,0 -2.76,-0.84 -2.76,-2.53 0,-1.69 0.92,-2.53 2.76,-2.53l2.59 0 0 -3.92 -2.59 0c-1.84,0 -2.76,-0.84 -2.76,-2.53 0,-1.68 0.92,-2.53 2.76,-2.53l2.59 0 0 -14.84c0,-2.46 1.23,-3.69 3.69,-3.69l10.07 0c4.45,0 7.85,1.11 10.21,3.31 2.36,2.21 3.54,5.11 3.54,8.72 0,3.49 -1.19,6.29 -3.57,8.4 -2.38,2.11 -5.68,3.16 -9.9,3.16l-6.56 0 0 3.92 6.91 0c1.84,0 2.76,0.84 2.76,2.53 0,1.69 -0.92,2.53 -2.76,2.53l-6.91 0 0 4.55c0,2.61 -1.24,3.91 -3.74,3.91zm3.63 -22.5l5.47 0c2.41,0 4.27,-0.46 5.58,-1.38 1.3,-0.92 1.95,-2.45 1.95,-4.6 0,-2.15 -0.64,-3.74 -1.92,-4.78 -1.29,-1.03 -3.16,-1.55 -5.61,-1.55l-5.47 0 0 12.31zm-74.51 29.3l-17.84 0 0 56.07 17.84 0 0 -56.07zm61.4 -70.41l-22.41 38.38c-2.34,4.01 -4.17,7.96 -5.23,11.89 -1.03,3.83 -1.36,7.66 -0.75,11.52 0.25,1.58 -0.83,3.07 -2.41,3.32 -1.58,0.25 -3.07,-0.83 -3.32,-2.41 -0.75,-4.73 -0.37,-9.36 0.86,-13.93 1.22,-4.49 3.24,-8.91 5.82,-13.32l22.09 -37.84c-0.14,-0.13 -0.28,-0.26 -0.42,-0.4 -1.76,-1.75 -2.85,-4.18 -2.85,-6.85 0,-0.1 0.01,-0.21 0.01,-0.31 0,-0.1 -0.01,-0.2 -0.01,-0.3 0,-2.66 1.09,-5.08 2.85,-6.84l0.01 -0.01 -0.01 0c0.31,-0.31 0.64,-0.6 0.98,-0.86l-4.89 -4.89c-0.76,-0.76 -1.36,-1.63 -1.81,-2.56 -0.78,-1.62 -1.02,-3.37 -0.75,-5.03 0.28,-1.7 1.07,-3.29 2.36,-4.58 0.68,-0.69 1.54,-1.29 2.55,-1.78l5.31 -2.55 -0.02 -0.05c-0.45,-1.02 -0.69,-2.05 -0.69,-3.05 0,-1.24 0.35,-2.43 1.08,-3.49l0.16 -0.21c0.67,-0.89 1.59,-1.63 2.79,-2.17 1.33,-0.6 3.02,-0.95 5.08,-0.95l19.43 0c2.17,0 3.92,0.37 5.27,1 1.26,0.58 2.2,1.39 2.85,2.35 0.7,1.04 1.02,2.19 1.02,3.38 0,1.05 -0.25,2.12 -0.74,3.17l-0.04 0.09 5.17 2.48c0.91,0.44 1.7,0.98 2.36,1.61l0.2 0.17c1.28,1.29 2.07,2.88 2.35,4.58 0.27,1.66 0.03,3.41 -0.75,5.03 -0.45,0.93 -1.05,1.8 -1.81,2.56l-4.82 4.82c0.39,0.28 0.75,0.59 1.08,0.93l0.18 0.19c1.65,1.75 2.67,4.09 2.67,6.66 0,0.1 0,0.21 0,0.31 0,0.1 0,0.2 0,0.3 0,2.67 -1.09,5.1 -2.85,6.85l-0.19 0.19 21.87 37.43c3.87,6.64 6.49,13.27 6.98,20.09 0.5,6.94 -1.2,13.95 -5.98,21.2 -0.89,1.34 -2.69,1.71 -4.03,0.82 -1.34,-0.88 -1.7,-2.69 -0.82,-4.03 4.01,-6.07 5.44,-11.88 5.03,-17.58 -0.42,-5.81 -2.75,-11.63 -6.21,-17.56l-22.08 -37.81c-0.47,0.07 -0.94,0.1 -1.42,0.1l-30.02 0c-0.36,0 -0.72,-0.02 -1.08,-0.06zm31.1 -13.51l-30.02 0c-1.07,0 -2.03,0.44 -2.74,1.14l0.01 0c-0.63,0.64 -1.05,1.48 -1.13,2.42 0.07,0.89 0.44,1.7 1.01,2.32l0.12 0.11c0.7,0.7 1.67,1.14 2.73,1.14l30.02 0c0.48,0 0.93,-0.08 1.35,-0.24 0.06,-0.02 0.11,-0.05 0.17,-0.07 0.46,-0.19 0.87,-0.47 1.22,-0.82l0.01 -0.01c0.62,-0.63 1.04,-1.47 1.11,-2.42 -0.07,-0.94 -0.49,-1.79 -1.12,-2.43 -0.71,-0.7 -1.67,-1.14 -2.74,-1.14z"></path> </g> </svg> 