<?xml version="1.0" encoding="UTF-8"?> <svg xmlns="http://www.w3.org/2000/svg" width="442" height="258" viewBox="0 0 442 258" fill="none"> <g clip-path="url(#clip0_7_2)"> <path fill-rule="evenodd" clip-rule="evenodd" d="M59.8104 242.233C61.2524 243.259 65.1642 235.455 58.5559 234.694C55.6087 234.029 49.1198 234.35 45.7632 234.358V250.189C49.279 250.203 56.6029 250.556 59.5644 249.59C63.8276 248.199 63.6248 242.804 59.8104 242.233ZM115.017 243.624L111.364 234.365L103.674 234.356L103.673 250.192H108.864L108.923 238.907L113.295 250.219L116.732 250.221L120.518 239.104L120.523 250.192H125.707V234.356L117.896 234.364L115.017 243.624ZM154.7 237.283C154.171 236.811 154.333 236.525 154.316 236.377C154.781 232.515 161.572 233.074 165.449 232.612L164.969 228.094C158.089 228.531 151.818 229.258 149.537 234.118C146.982 239.565 148.269 247.166 152.518 249.473C156.705 251.747 164.881 250.757 165.363 243.016C165.94 233.743 156.492 234.114 154.7 237.283ZM28.1988 250.218L29.3501 246.453L35.8468 246.44L37.3463 250.221L43.7665 250.254L43.5436 249.659L36.6519 229.655L28.7844 229.678L21.7877 250.218L28.1988 250.218ZM181.336 241.321L181.299 250.198L186.893 250.201L186.769 234.346L180.447 234.39L174.405 243.383L174.357 234.366L169.018 234.353L168.883 250.195L175.203 250.211L181.336 241.321ZM368.954 238.631L375.543 238.529L375.507 234.325L363.09 234.348L363.154 250.216L368.947 250.201L368.954 238.631ZM350.338 243.916L359.937 243.767C362.286 232.714 346.255 230.441 344.051 239.61C341.199 251.474 354.765 252.012 358.816 249.304L358.843 245.52C356.497 245.951 352.441 247.493 350.633 245.903C350.022 245.367 349.734 244.81 350.219 244.086C350.255 244.032 350.294 243.976 350.338 243.916ZM198.488 238.57L201.775 238.55L201.939 250.211L207.706 250.223L207.719 234.355L193.304 234.44C193.126 236.943 192.738 242.502 191.873 244.858C191.382 246.197 190.92 246.327 189.129 246.126L189.191 249.451C189.458 250.279 193.184 250.53 194.363 249.994C197.709 248.477 198.299 241.875 198.488 238.57ZM265.87 250.035C266.781 250.567 270.752 250.353 271.79 250.203L271.811 238.571L275.985 238.566L275.97 250.186L281.776 250.096V234.364L265.855 234.356L265.87 250.035ZM70.3652 250.024C70.6767 250.215 70.4198 250.19 71.0023 250.306L76.2855 250.195L76.3057 238.581C77.2884 238.581 78.274 238.575 79.2567 238.583C80.7036 238.595 80.8696 238.741 81.6614 238.304L81.6664 234.353L64.8344 234.411L64.8341 238.422L70.3421 238.468L70.3652 250.024ZM224.686 250.218L229.719 250.209L229.635 234.338L223.261 234.361L216.767 243.518L216.891 234.356H211.74V250.192L218.017 250.223L224.72 240.864L224.686 250.218ZM255.209 235.19C240.811 229.21 237.116 245.902 244.798 249.614C248.431 251.37 251.543 250.366 254.703 249.204L254.617 244.834C251.645 246.057 247.384 247.601 246.901 243.08C246.317 237.611 249.472 238.116 253.612 239.164L255.209 235.19ZM349.74 240.302C350.013 238.726 350.388 237.894 352.123 237.835C353.908 237.775 354.423 238.744 354.66 240.316L349.74 240.302ZM312.397 238.305C316.471 236.9 316.38 245.577 313.874 246.299C311.401 247.011 310.728 244.907 310.599 243.033C310.445 240.815 310.547 238.944 312.397 238.305ZM321.27 244.185C323.609 232.232 306.693 230.682 304.891 240.029C303.882 245.26 306.388 249.415 310.817 250.292C316.554 251.429 320.376 248.75 321.27 244.185ZM90.7382 238.518C95.1101 235.913 95.2882 244.927 93.1104 246.129C91.0347 247.275 89.7991 245.404 89.5612 243.632C89.3065 241.73 89.4651 239.277 90.7382 238.518ZM83.815 244.465C85.7184 253.866 102.756 252.446 100.123 240.092C98.1141 230.664 81.3029 232.056 83.815 244.465ZM384.818 238.491C388.999 235.891 389.478 244.789 387.203 246.107C383.318 248.359 382.281 240.068 384.818 238.491ZM394.142 244.744C395.475 239.592 392.834 235.453 388.752 234.378C383.361 232.958 379.057 235.48 377.989 239.581C374.817 251.76 391.64 254.414 394.142 244.744ZM136.671 238.281C140.567 236.808 140.69 245.475 138.151 246.28C135.718 247.052 134.959 244.946 134.839 243.019C134.704 240.844 134.864 238.965 136.671 238.281ZM145.595 243.625C146.294 238.573 143.484 234.758 138.878 234.142C133.223 233.386 129.674 236.103 129.045 240.656C128.325 245.868 130.946 249.738 135.653 250.395C141.396 251.196 144.933 248.413 145.595 243.625ZM51.5466 243.84C52.0973 243.791 54.4997 243.659 55.7891 243.905C56.969 244.13 56.9322 245.302 56.3983 245.968C55.6651 246.883 53.6517 246.62 51.5881 246.56L51.5466 243.84ZM51.5508 238.028C52.7473 237.942 55.6239 237.659 56.1095 238.448C56.9958 240.152 55.0658 240.314 53.8599 240.314L51.5453 240.261L51.5508 238.028ZM293.085 238.527C296.932 236.732 297.033 245.082 294.895 245.941C291.105 247.464 290.544 239.713 293.085 238.527ZM291.56 248.749C302.073 256.056 305.197 238.708 298.895 234.734C295.205 232.408 292.028 235.922 291.456 236.304L290.673 234.367L285.889 234.36V257.086L291.721 257.09L291.56 248.749ZM32.7682 233.376L34.9539 241.883L30.5281 241.863L32.7682 233.376ZM156.71 239.38C160.369 238.282 160.469 246.083 157.463 246.386C154.847 246.65 152.019 240.79 156.71 239.38ZM334.995 241.273C335.542 243.258 334.913 246.075 333.133 246.364C331.192 246.679 330.331 244.883 329.991 243.305C329.496 239.577 333.969 237.545 334.995 241.273ZM329.687 237.508C330.065 232.851 333.918 233.1 341.029 232.657L340.553 228.192C338.273 228.048 332.996 228.786 330.944 229.448C327.945 230.415 326.311 231.712 325.159 234.037C322.55 239.297 323.826 247.192 328.149 249.542C330.644 250.898 334.741 250.809 337.243 249.405C342.091 246.684 342.448 237.731 337.34 235.792C332.716 234.036 329.803 236.671 329.687 237.508Z" fill="white"></path> <path fill-rule="evenodd" clip-rule="evenodd" d="M100.264 21.428C93.7162 25.4188 81.1973 36.0334 76.2427 41.594C73.745 44.3976 55.4889 63.6282 53.3549 63.6282C49.9355 63.6282 45.4916 59.568 44.433 57.0331C41.4501 49.8941 42.8335 42.9925 32.9544 42.9925C27.0207 42.9925 -0.000183105 46.9425 -0.000183105 54.4567C-0.000183105 56.2079 0.265317 55.3463 0.784417 57.514C3.07392 57.7001 14.6676 62.0601 18.6382 63.05C25.558 64.7764 31.0384 65.2391 37.8043 67.3113C40.2528 68.0606 76.6658 75.0924 77.6784 75.0924C78.5274 77.1397 91.4517 81.0817 94.3045 82.5901C100.069 85.6408 104.841 87.9667 110.208 91.5557C114.012 94.0973 121.13 99.4261 124.171 102.412C126.321 104.522 134.74 114.371 136.526 114.835C135.503 111.101 127.366 101.414 124.619 98.1543C121.934 94.9639 111.45 84.2391 110.618 82.2361L220.496 79.2056L331.9 82.7352C329.862 85.7 321.87 91.5771 318.258 96.1976C316.659 98.2449 307.12 111.345 306.792 112.542C309.901 111.445 316.116 103.483 318.979 100.721C320.979 98.792 330.315 92.0287 332.953 90.6399C338.493 87.7229 342.528 84.819 348.377 81.9709C354.297 79.0884 359.521 77.84 365.793 75.2424C376.713 70.7209 441.748 62.5741 441.748 54.4567C441.748 48.2733 417.891 42.9925 409.578 42.9925H408.009C396.042 42.9925 401.012 63.6282 388.393 63.6282C385.904 63.6282 366.073 41.286 362.022 38.1088C352.08 30.311 344.241 21.6798 332.145 16.0039C308.406 4.86241 276.955 0.192708 242.452 0.192708L229.109 -9.15527e-05C186.641 0.849708 137.52 -1.29309 100.264 21.428ZM15.6923 88.0854C15.6923 95.5463 18.5082 104.637 21.804 108.882C27.3177 115.984 30.4286 115.979 39.6793 118.985C49.6309 122.218 71.818 131.42 82.3864 131.649C76.0801 126.31 42.2747 114.862 40.8006 109.485H43.9393C50.0476 109.485 75.9638 120.557 80.6314 123.423C84.9516 126.075 93.968 128.95 97.883 131.84C101.57 134.562 109.118 141.524 112.203 143.114C111.743 137.74 98.5456 126.763 92.889 124.476C90.5733 123.54 83.0036 119.293 80.1619 117.766C75.6384 115.335 71.579 113.93 66.9526 111.526C62.0576 108.982 58.0627 107.807 53.2426 105.773C49.0631 104.01 45.3409 100.869 40.6995 98.8838C34.7026 96.319 21.5952 85.5067 15.6923 85.028V88.0854ZM328.761 143.114C330.867 142.889 341.879 133.348 344.909 131.328C348.526 128.915 360.126 124.23 364.258 122.661C372.442 119.555 399.49 109.348 407.335 108.95L358.577 130.885V132.414H361.716L365.639 130.885C367.682 130.885 400.505 119.926 404.547 118.341C411.722 115.527 416.103 114.436 420.269 108.435C423.014 104.481 426.056 94.5203 426.056 88.0854V85.028C422.555 85.1041 404.524 96.4613 400.936 98.7746C392.078 104.489 383.77 106.439 374.513 111.251C367.191 115.057 355.917 121.4 348.849 124.466C344.422 126.386 339.896 129.038 337.389 132.411C335.808 134.538 329.187 141.56 328.761 143.114ZM239.313 72.0353H257.359C257.359 62.5791 260.317 47.2637 262.96 40.0406C263.927 37.3987 267.04 29.224 268.544 27.137C269.966 25.1638 275.773 17.0036 276.191 15.4782C262.534 24.3864 243.713 53.6381 239.313 72.0353ZM277.76 43.7568V48.3424C277.76 55.0712 281.504 66.0708 284.323 70.2283C287.502 74.9195 302.058 74.3281 309.93 74.3281H333.469C341.464 74.3281 364.07 62.5791 364.07 59.0426C364.07 47.4595 346.382 32.8904 338.748 27.1501C329.928 20.5187 309.416 13.9497 294.237 13.9497H289.53C282.699 13.9497 277.76 34.9658 277.76 43.7568Z" fill="white"></path> <path fill-rule="evenodd" clip-rule="evenodd" d="M370.801 166.889C379.392 165.829 382.44 172.088 382.768 179.557C383.104 187.231 381.652 194.607 373.958 195.522C364.983 196.589 361.873 190.343 361.582 182.65C361.287 174.862 362.985 167.853 370.801 166.889ZM263.194 187.276L263.113 156.444C261.537 156.041 254.493 156.267 252.004 156.264C251.434 156.264 250.765 156.227 250.215 156.24C248.701 156.279 248.947 156.343 248.711 156.656C249.198 165.415 248.754 175.421 248.749 184.317C248.744 194.125 250.896 199.984 257.427 203.804C263.615 207.422 274.177 207.92 281.561 205.328C285.337 204.002 287.996 201.917 289.889 199.505C295.443 192.424 293.972 181.123 293.972 172.847C293.972 168.404 294.464 160.433 293.867 156.31L279.51 156.448L279.46 187.497C279.447 192.685 276.752 195.684 271.194 195.621C266.03 195.562 263.082 192.208 263.194 187.276ZM313.61 167.583L313.836 206.387L328.156 206.279L328.253 167.55L340.902 167.529L340.799 156.428L300.967 156.428L300.951 167.567L313.61 167.583ZM211.102 185.85C211.194 184.85 216.403 165.256 216.513 164.982L222.071 185.905L211.102 185.85ZM205.246 206.284C205.861 205.126 207.696 198.656 207.962 197.058L225.229 197.054C225.487 198.617 227.283 205.169 227.883 206.298L243.295 206.201L225.911 156.15L206.898 156.159L189.856 206.292L205.246 206.284ZM346.66 184.317C347.799 199.786 357.779 208.078 375.298 206.814C391.686 205.631 398.74 194.898 397.722 178.505C396.731 162.542 386.724 154.414 368.93 155.776C352.696 157.018 345.448 167.87 346.66 184.317Z" fill="#FF0000"></path> <path fill-rule="evenodd" clip-rule="evenodd" d="M83.1238 186.41C84.2158 183.161 85.0732 179.442 85.9579 176.126L87.9301 168.204C88.0197 167.801 88.1229 167.187 88.2366 166.809L88.5911 165.757L93.994 185.986C93.8654 186.695 94.2196 186.171 93.7249 186.57L83.1238 186.41ZM160.984 159.98C153.165 155.974 140.331 155.011 132.05 159.076C124.767 162.65 119.719 169.846 119.212 180.394C118.669 191.717 122.282 199.866 129.399 204.234C133.341 206.654 138.157 207.671 143.63 207.706C150.208 207.747 153.241 206.679 158.749 204.994L158.734 193.517C153.157 194.791 148.309 198.015 141.318 196.017C135.956 194.485 133.95 189.387 133.82 182.92C133.693 176.599 135.542 170.764 140.033 168.596C146.188 165.625 152.923 169.586 156.728 170.572L160.984 159.98ZM80.2015 197.845L97.1632 197.862C98.1546 200.338 99.2029 206.764 100.222 207.078L115.32 207.062C114.908 205.106 113.82 202.559 113.146 200.608L98.9062 159.543C98.6078 158.634 98.4319 157.356 97.564 156.896L78.9757 156.936L61.8795 207.027L77.4565 207.037L80.2015 197.845Z" fill="white"></path> <path fill-rule="evenodd" clip-rule="evenodd" d="M409.096 243.627L405.442 234.368L397.752 234.358L397.751 250.195H402.943L403.001 238.909L407.373 250.221L410.811 250.223L414.597 239.106L414.602 250.195H419.786V234.358L411.975 234.366L409.096 243.627Z" fill="white"></path> </g> <defs> <clipPath id="clip0_7_2"> <rect width="441.748" height="257.09" fill="white"></rect> </clipPath> </defs> </svg> 