<?xml version="1.0" encoding="UTF-8"?> <svg xmlns="http://www.w3.org/2000/svg" width="1081" height="1081" viewBox="0 0 1081 1081" fill="none"> <path d="M540.067 1080.13C838.338 1080.13 1080.13 838.338 1080.13 540.067C1080.13 241.796 838.338 0 540.067 0C241.796 0 0 241.796 0 540.067C0 838.338 241.796 1080.13 540.067 1080.13Z" fill="url(#paint0_linear_3409_212)"></path> <path fill-rule="evenodd" clip-rule="evenodd" d="M766.259 683.086C766.602 680.815 766.132 678.496 764.933 676.537C763.733 674.579 761.88 673.107 759.701 672.381L587.614 614.921L641.642 560.893C642.548 559.987 643.266 558.912 643.757 557.729C644.247 556.545 644.499 555.277 644.499 553.996C644.499 552.715 644.247 551.447 643.757 550.263C643.266 549.08 642.548 548.005 641.642 547.1L539.819 445.29L559.15 425.953L588.985 455.788C590.89 457.692 593.386 458.641 595.882 458.641C598.378 458.641 600.874 457.692 602.778 455.788C604.606 453.959 605.633 451.48 605.633 448.894C605.633 446.309 604.606 443.829 602.778 442.001L566.06 405.283L566.053 405.27L566.04 405.263L530.024 369.24C529.124 368.309 528.048 367.566 526.859 367.055C525.669 366.544 524.39 366.275 523.095 366.264C521.801 366.253 520.517 366.499 519.318 366.99C518.12 367.48 517.032 368.204 516.116 369.119C515.201 370.035 514.477 371.123 513.987 372.322C513.496 373.52 513.25 374.804 513.261 376.098C513.272 377.393 513.541 378.672 514.052 379.862C514.563 381.051 515.306 382.127 516.237 383.027L545.377 412.166L526.046 431.504L417.411 322.882L417.405 322.876L351.176 256.654C349.891 255.372 348.274 254.474 346.506 254.061C344.739 253.648 342.891 253.736 341.171 254.315C339.451 254.895 337.927 255.942 336.77 257.341C335.612 258.739 334.868 260.432 334.621 262.231L314.367 410.814C314.302 411.276 314.315 411.724 314.321 412.173L270.589 455.905C268.761 457.733 267.734 460.212 267.734 462.798C267.734 465.383 268.761 467.863 270.589 469.691L494.826 693.922L494.846 693.935C495.765 694.856 496.862 695.581 498.07 696.067C499.201 696.528 500.436 696.782 501.723 696.782H501.931L756.828 691.374C759.124 691.324 761.33 690.466 763.055 688.95C764.781 687.434 765.915 685.357 766.259 683.086ZM351.287 284.337L396.722 329.766L336.948 389.54L351.287 284.337ZM410.508 343.552L620.959 554.003L501.716 673.239L291.266 462.788L410.508 343.552ZM525.766 676.768L572.202 630.332L700.207 673.07L525.766 676.768ZM765.414 718.063C764.622 716.4 763.375 714.996 761.817 714.013C760.259 713.03 758.455 712.508 756.613 712.508C754.772 712.508 752.968 713.03 751.41 714.013C749.852 714.996 748.605 716.4 747.812 718.063C741.046 732.22 707.304 803.999 707.304 826.892C707.304 854.082 729.424 876.201 756.613 876.201C783.803 876.201 805.916 854.082 805.916 826.892C805.916 804.006 772.181 732.22 765.414 718.063ZM756.613 856.701C748.711 856.691 741.135 853.547 735.547 847.959C729.959 842.371 726.815 834.795 726.804 826.892C726.804 815.186 742.664 776.29 756.613 745.428C770.556 776.296 786.416 815.192 786.416 826.892C786.409 834.795 783.267 842.372 777.68 847.96C772.092 853.549 764.516 856.692 756.613 856.701Z" fill="white"></path> <defs> <linearGradient id="paint0_linear_3409_212" x1="158.104" y1="921.896" x2="921.896" y2="158.104" gradientUnits="userSpaceOnUse"> <stop stop-color="#4D0000"></stop> <stop offset="1" stop-color="#F03224"></stop> </linearGradient> </defs> </svg> 