<?xml version="1.0" encoding="UTF-8"?> <!-- Creator: CorelDRAW --> <svg xmlns="http://www.w3.org/2000/svg" xmlns:xlink="http://www.w3.org/1999/xlink" xmlns:xodm="http://www.corel.com/coreldraw/odm/2003" xml:space="preserve" width="1080px" height="1080px" style="shape-rendering:geometricPrecision; text-rendering:geometricPrecision; image-rendering:optimizeQuality; fill-rule:evenodd; clip-rule:evenodd" viewBox="0 0 80.81 80.81"> <defs> <style type="text/css"> <![CDATA[ .fil1 {fill:white} .fil0 {fill:url(#id0)} ]]> </style> <linearGradient id="id0" gradientUnits="userSpaceOnUse" x1="11.83" y1="68.98" x2="68.98" y2="11.83"> <stop offset="0" style="stop-opacity:1; stop-color:#4D0000"></stop> <stop offset="1" style="stop-opacity:1; stop-color:#F03224"></stop> </linearGradient> </defs> <g id="Слой_x0020_1"> <metadata id="CorelCorpID_0Corel-Layer"></metadata> <circle class="fil0" cx="40.41" cy="40.41" r="40.41"></circle> <g id="_1780693778592"> <path class="fil1" d="M27.86 44.81c0.56,0.13 1.65,0.45 2.22,0.46 0.01,0.39 0.13,0.78 0.22,1.16 0.1,0.43 0.16,0.73 0.25,1.14 0.67,3.21 0.78,2.3 -0.81,5.48 -0.47,0.94 -0.88,1.76 -1.35,2.7 -0.47,0.93 -0.91,1.8 -1.35,2.71 -0.81,1.64 -2.13,0.76 -2.13,-0.09 0,-0.53 4.06,-8.01 4.06,-8.4 0,-0.43 -0.14,-0.9 -0.24,-1.32l-0.87 -3.84zm-7.47 -7.47c-0.49,0 -1.01,-0.44 -1.01,-0.92 0,-0.35 1.77,-4.67 2.1,-5.09 0.77,-0.95 1.86,-1.07 3.21,-1.59 3.21,-1.24 3.56,-1.15 7.03,-0.78 2.51,0.27 3.05,0.46 5.02,2.18 0.24,0.21 0.41,0.34 0.65,0.55 0.22,0.2 0.41,0.35 0.65,0.55 2.69,2.27 3.96,1.04 6.61,1.04 0.61,0 1.2,1.05 0.52,1.62 -0.35,0.3 -2,0.47 -2.51,0.54 -1.2,0.18 -2.39,0.09 -3.43,-0.24 -1.87,-0.6 -4.39,-2.93 -5,-2.93 -1.04,0 -0.76,1.08 -0.87,1.8 -0.11,0.77 -0.07,1.54 -0.19,2.31l-0.33 5.02c0,0.61 3.43,1.69 4.19,2.09 1.42,0.74 0.9,1.95 0.89,3.54l-0.42 5.94c-0.29,0.78 -1.8,0.69 -1.65,-0.63l0.32 -6.24c0.08,-1.22 -0.36,-1.1 -2.59,-1.56l-5.31 -1.15c-1.86,-0.52 -1.01,-2.92 -0.96,-5.04l0.33 -4c0.1,-0.68 0.08,-1.38 0.14,-2.08 0.03,-0.36 0.16,-0.6 0,-0.93 -0.46,-0.92 -1.61,-0.15 -3.04,0.39 -3.73,1.4 -2.58,5.61 -4.35,5.61zm-2.49 -1.11c0,2.18 2.53,3.68 4.37,1.6 0.86,-0.97 1.01,-3.4 1.94,-4.15 0.66,-0.53 1.41,-0.63 2.09,-0.95l-0.47 5.53c-0.01,0.9 -0.32,3.25 -0.26,3.77 0.1,0.9 0.34,1.04 0.48,1.54 0.35,1.21 0.78,3.6 1.13,4.96 0.22,0.85 0.36,1.1 0.14,1.54l-2.71 5.41c-0.83,1.65 -1.86,2.97 -0.49,4.6 0.37,0.44 1.16,0.78 1.72,0.78 1.89,0 2.36,-1.42 3.01,-2.71 0.65,-1.31 1.25,-2.5 1.9,-3.81 0.34,-0.67 0.62,-1.24 0.96,-1.91 1.06,-2.12 0.99,-1.99 0.45,-4.45 -0.18,-0.81 -0.33,-1.56 -0.51,-2.34l3.04 0.64c0,0.59 -0.07,0.84 -0.09,1.29l-0.23 5.3c0.42,2.31 3.16,2.83 4.4,0.91 0.41,-0.64 0.22,-1.62 0.36,-2.87l0.35 -6.1c0,-2.24 -2.55,-3.02 -4.3,-3.72 -0.32,-0.12 -0.57,-0.27 -0.86,-0.34 0,-0.92 0.34,-3.51 0.37,-4.7 0.01,-0.59 0.09,-0.97 0.09,-1.66 0.84,0.19 2.95,2.67 6.64,2.67 0.69,0 2.82,-0.33 3.58,-0.48 0.56,-0.12 0.92,-0.36 1.29,-0.74 0.92,-0.93 0.84,-2.33 0.04,-3.23 -1.27,-1.44 -2.86,-0.53 -5.37,-0.53 -1.4,0 -3.4,-2.4 -5.09,-3.49 -1.41,-0.9 -3.46,-1.1 -5.24,-1.22 -1.96,-0.13 -2.79,-0.44 -5.01,0.44 -1.07,0.43 -3.77,1.26 -4.49,1.78 -1.31,0.94 -1.9,3.11 -2.59,4.79 -0.18,0.42 -0.64,1.3 -0.64,1.85z"></path> <path class="fil1" d="M47.6 49.6c-1.17,0 -2.34,0 -3.51,0 -0.94,0 -1.04,0.41 -1.75,1.85l-1.26 2.33c-0.23,0.47 -1.15,2.05 -1.23,2.37l-5.25 0c-0.7,0 -1.08,-0.08 -1.33,0.43l-0.48 1.27c-0.18,0.47 -0.34,0.86 -0.49,1.27 -0.17,0.46 -0.9,2.24 -0.93,2.57l-7.19 0c-0.8,-0.01 -1.76,-0.05 -1.76,0.73 0,0.34 0.26,0.74 0.56,0.74l9.03 0c0.53,0 1.17,-2.15 1.35,-2.62 0.21,-0.54 1.02,-2.51 1.05,-2.91 0.59,0 5.73,0.06 6.05,-0.04 0.49,-0.14 0.64,-0.76 0.87,-1.16l2.86 -5.35c0.89,0 1.78,0 2.67,0 2.06,0 1.28,0.44 3.99,-4.04 0.68,-1.13 12.06,-19.99 12.06,-20.22 0,-0.68 -0.88,-1.23 -1.42,-0.4l-13 21.68c-0.31,0.52 -0.62,0.99 -0.89,1.5z"></path> <path class="fil1" d="M61.43 35.31l0 26.47c0,0.98 1.48,0.92 1.48,-0.09l0 -26.29c0,-1.01 -1.48,-1.07 -1.48,-0.09z"></path> <path class="fil1" d="M29.34 21.94c0,-3.68 5.53,-3.71 5.53,0 0,3.53 -5.53,3.52 -5.53,0zm-1.48 -0.1c0,2.45 1.97,4.31 4.25,4.31 2.28,0 4.24,-1.86 4.24,-4.31 0,-2.34 -1.97,-4.19 -4.24,-4.19 -2.28,0 -4.25,1.85 -4.25,4.19z"></path> <path class="fil1" d="M55.44 45.55l0 16.23c0,0.9 1.48,1.08 1.48,-0.28l0 -15.68c0,-1.17 -1.48,-0.96 -1.48,-0.27z"></path> <path class="fil1" d="M49.35 53.85l0 7.47c0,1.61 1.57,1.6 1.57,0l0 -7.47c0,-1.37 -1.57,-1.36 -1.57,0z"></path> <path class="fil1" d="M43.45 55.78l0 5.91c0,0.41 0.3,0.74 0.68,0.79 0.35,0.06 0.8,-0.29 0.8,-0.61l0 -6.27c0,-0.69 -1.48,-0.94 -1.48,0.18z"></path> <path class="fil1" d="M37.46 60.03c0,0.96 -0.26,2.49 0.73,2.49 0.98,0 0.74,-1.63 0.74,-2.49 0,-0.99 -1.47,-0.99 -1.47,0z"></path> </g> </g> </svg> 