<?xml version="1.0" encoding="UTF-8"?> <svg xmlns="http://www.w3.org/2000/svg" width="1081" height="1081" viewBox="0 0 1081 1081" fill="none"> <path d="M540.067 1080.13C838.338 1080.13 1080.13 838.338 1080.13 540.067C1080.13 241.796 838.338 0 540.067 0C241.796 0 0 241.796 0 540.067C0 838.338 241.796 1080.13 540.067 1080.13Z" fill="url(#paint0_linear_3410_226)"></path> <path fill-rule="evenodd" clip-rule="evenodd" d="M694.463 558.828H654.566V523.748C654.566 521.162 653.539 518.682 651.711 516.853C649.882 515.025 647.402 513.998 644.816 513.998H401.671V474.614C443.433 470.434 476.155 435.088 476.155 392.24V269.5H496.844C499.43 269.5 501.91 268.473 503.738 266.644C505.567 264.816 506.594 262.336 506.594 259.75C506.594 257.164 505.567 254.684 503.738 252.856C501.91 251.027 499.43 250 496.844 250H289.89C287.305 250 284.825 251.027 282.996 252.856C281.168 254.684 280.14 257.164 280.14 259.75C280.14 262.336 281.168 264.816 282.996 266.644C284.825 268.473 287.305 269.5 289.89 269.5H310.574V392.24C310.574 434.087 341.812 468.693 382.171 474.185V513.998H233.75C231.164 513.998 228.684 515.025 226.856 516.853C225.027 518.682 224 521.162 224 523.748V613.415C224 616.001 225.027 618.481 226.856 620.309C228.684 622.138 231.164 623.165 233.75 623.165H331.828L248.362 816.351C247.721 817.835 247.459 819.454 247.599 821.064C247.739 822.674 248.277 824.224 249.165 825.574C250.052 826.925 251.261 828.033 252.684 828.8C254.106 829.567 255.697 829.969 257.312 829.969H344.328C348.221 829.969 351.738 827.661 353.278 824.086L440.015 623.341C440.041 623.282 440.047 623.223 440.067 623.171H644.816C647.402 623.171 649.882 622.144 651.711 620.316C653.539 618.487 654.566 616.007 654.566 613.421V578.335H694.463C697.05 578.335 699.531 577.307 701.36 575.478C703.189 573.649 704.217 571.168 704.217 568.581C704.217 565.995 703.189 563.514 701.36 561.685C699.531 559.856 697.05 558.828 694.463 558.828ZM330.074 392.24V269.5H456.655V392.24C456.655 427.138 428.262 455.53 393.364 455.53C358.465 455.53 330.074 427.138 330.074 392.24ZM243.5 533.498H290.521V603.665H243.5V533.498ZM337.919 810.469H272.146L352.992 623.341C353.018 623.282 353.025 623.223 353.044 623.171H418.838L337.919 810.469ZM635.067 603.665H310.021V533.498H635.067V603.665ZM739.144 543.605C741.64 543.605 744.136 542.656 746.041 540.751L807.466 479.327C808.397 478.427 809.14 477.351 809.651 476.162C810.162 474.972 810.431 473.693 810.442 472.398C810.453 471.104 810.207 469.82 809.716 468.621C809.226 467.423 808.502 466.335 807.587 465.419C806.671 464.504 805.583 463.78 804.385 463.289C803.186 462.799 801.902 462.553 800.608 462.564C799.313 462.575 798.034 462.844 796.844 463.355C795.655 463.866 794.579 464.609 793.679 465.54L732.255 526.965C730.893 528.329 729.965 530.065 729.59 531.955C729.214 533.845 729.408 535.804 730.145 537.585C730.882 539.366 732.13 540.888 733.732 541.959C735.334 543.031 737.217 543.603 739.144 543.605ZM845.641 558.828H758.774C756.189 558.828 753.709 559.855 751.88 561.684C750.052 563.512 749.024 565.992 749.024 568.578C749.024 571.164 750.052 573.644 751.88 575.472C753.709 577.301 756.189 578.328 758.774 578.328H845.641C848.226 578.328 850.706 577.301 852.535 575.472C854.363 573.644 855.391 571.164 855.391 568.578C855.391 565.992 854.363 563.512 852.535 561.684C850.706 559.855 848.226 558.828 845.641 558.828ZM746.041 596.404C745.142 595.473 744.066 594.731 742.876 594.22C741.687 593.709 740.407 593.44 739.113 593.428C737.818 593.417 736.534 593.664 735.336 594.154C734.138 594.644 733.049 595.368 732.134 596.284C731.218 597.199 730.494 598.288 730.004 599.486C729.514 600.684 729.267 601.968 729.278 603.263C729.29 604.557 729.558 605.837 730.069 607.026C730.58 608.216 731.323 609.292 732.255 610.191L793.679 671.616C795.584 673.52 798.08 674.469 800.576 674.469C803.072 674.469 805.568 673.52 807.472 671.616C809.3 669.788 810.327 667.308 810.327 664.723C810.327 662.137 809.3 659.658 807.472 657.83L746.041 596.404Z" fill="white"></path> <defs> <linearGradient id="paint0_linear_3410_226" x1="158.104" y1="921.896" x2="921.896" y2="158.104" gradientUnits="userSpaceOnUse"> <stop stop-color="#4D0000"></stop> <stop offset="1" stop-color="#F03224"></stop> </linearGradient> </defs> </svg> 