<?xml version="1.0" encoding="UTF-8"?> <svg xmlns="http://www.w3.org/2000/svg" width="1081" height="1081" viewBox="0 0 1081 1081" fill="none"> <path d="M540.067 1080.13C838.338 1080.13 1080.13 838.338 1080.13 540.067C1080.13 241.796 838.338 0 540.067 0C241.796 0 0 241.796 0 540.067C0 838.338 241.796 1080.13 540.067 1080.13Z" fill="url(#paint0_linear_3415_269)"></path> <path fill-rule="evenodd" clip-rule="evenodd" d="M454.262 673.38C445.194 682.558 434.394 689.845 422.489 694.818C410.584 699.791 397.81 702.352 384.907 702.352C372.005 702.352 359.231 699.791 347.326 694.818C335.421 689.845 324.621 682.558 315.552 673.38C298.73 656.169 288.633 633.497 287.095 609.479C285.556 585.461 292.678 561.687 307.167 542.47C308.67 540.479 309.352 537.988 309.074 535.51C308.796 533.031 307.579 530.753 305.672 529.145C303.007 526.87 300.862 524.92 299.172 523.1C280.748 504.314 270.428 479.051 270.428 452.738C270.428 426.425 280.748 401.161 299.172 382.375C310.797 370.527 325.271 361.866 341.206 357.222C357.142 352.578 374.003 352.107 390.172 355.855C391.492 356.156 392.86 356.179 394.189 355.923C395.518 355.666 396.779 355.136 397.891 354.366C399.004 353.595 399.944 352.602 400.652 351.448C401.36 350.294 401.82 349.006 402.002 347.665C403.874 333.176 410.45 319.703 420.722 309.315C426.814 303.12 434.078 298.201 442.091 294.842C450.103 291.484 458.704 289.754 467.392 289.754C476.08 289.754 484.682 291.484 492.694 294.842C500.707 298.201 507.971 303.12 514.062 309.315C516.431 311.832 518.604 314.527 520.562 317.375C521.408 318.549 522.503 319.519 523.77 320.217C525.037 320.915 526.443 321.322 527.886 321.409C529.33 321.496 530.775 321.261 532.116 320.721C533.458 320.18 534.662 319.348 535.642 318.285L536.877 316.855L537.982 315.62C547.051 306.442 557.851 299.156 569.756 294.182C581.661 289.209 594.435 286.648 607.337 286.648C620.24 286.648 633.014 289.209 644.919 294.182C656.824 299.156 667.624 306.442 676.692 315.62C695.117 334.406 705.437 359.67 705.437 385.983C705.437 412.296 695.117 437.559 676.692 456.345C674.978 458.201 674.051 460.651 674.107 463.177C674.163 465.703 675.198 468.109 676.993 469.887C678.788 471.665 681.204 472.677 683.73 472.71C686.257 472.742 688.698 471.792 690.537 470.06C712.558 447.615 724.894 417.426 724.894 385.983C724.894 354.539 712.558 324.35 690.537 301.905C669.394 280.511 640.823 268.083 610.758 267.199C580.692 266.315 551.441 277.045 529.077 297.16L527.647 295.665C519.742 287.633 510.317 281.254 499.922 276.9C489.527 272.546 478.37 270.303 467.1 270.303C455.83 270.303 444.673 272.546 434.278 276.9C423.883 281.254 414.458 287.633 406.552 295.665C395.748 306.567 388.07 320.171 384.322 335.055C366.266 332.459 347.852 334.155 330.573 340.005C313.295 345.854 297.638 355.694 284.872 368.725C262.852 391.17 250.516 421.359 250.516 452.803C250.516 484.246 262.852 514.435 284.872 536.88L286.107 538.115C271.404 561.014 264.902 588.223 267.665 615.296C270.428 642.368 282.291 667.703 301.317 687.16C312.2 698.175 325.16 706.921 339.448 712.89C353.735 718.859 369.066 721.933 384.55 721.933C400.034 721.933 415.364 718.859 429.652 712.89C443.94 706.921 456.9 698.175 467.782 687.16C469.497 685.304 470.424 682.855 470.368 680.328C470.312 677.802 469.277 675.396 467.482 673.618C465.687 671.84 463.271 670.828 460.745 670.796C458.218 670.763 455.777 671.713 453.937 673.445L454.262 673.38Z" fill="white"></path> <path fill-rule="evenodd" clip-rule="evenodd" d="M468.497 464.729C466.671 466.557 465.646 469.035 465.646 471.619C465.646 474.203 466.671 476.681 468.497 478.509L650.497 667.009C651.374 667.976 652.435 668.756 653.619 669.305C654.803 669.854 656.085 670.159 657.389 670.203C658.693 670.247 659.993 670.029 661.211 669.562C662.43 669.094 663.542 668.387 664.482 667.482C665.421 666.577 666.17 665.492 666.683 664.292C667.196 663.093 667.463 661.802 667.468 660.497C667.474 659.192 667.217 657.9 666.713 656.696C666.21 655.492 665.47 654.402 664.537 653.489L482.537 464.989C481.645 464.029 480.569 463.258 479.372 462.722C478.175 462.187 476.883 461.899 475.572 461.875C474.262 461.85 472.959 462.091 471.744 462.581C470.528 463.072 469.424 463.802 468.497 464.729ZM695.997 634.249C697.682 634.248 699.339 633.809 700.804 632.977C702.27 632.144 703.495 630.946 704.359 629.499C705.223 628.052 705.698 626.405 705.736 624.72C705.774 623.035 705.375 621.369 704.577 619.884L600.577 424.884C599.362 422.6 597.289 420.892 594.814 420.136C592.34 419.381 589.666 419.639 587.382 420.854C585.098 422.07 583.39 424.143 582.634 426.617C581.878 429.092 582.137 431.765 583.352 434.049L687.352 629.049C688.182 630.622 689.426 631.938 690.95 632.854C692.473 633.771 694.219 634.253 695.997 634.249ZM629.632 704.189C630.932 701.956 631.292 699.299 630.634 696.8C629.976 694.302 628.353 692.167 626.122 690.864L437.622 580.364C435.389 579.054 432.728 578.684 430.223 579.337C427.718 579.989 425.575 581.609 424.264 583.842C422.954 586.074 422.585 588.736 423.237 591.241C423.889 593.746 425.509 595.889 427.742 597.199L616.242 707.699C618.475 708.999 621.132 709.359 623.631 708.701C626.129 708.043 628.264 706.42 629.567 704.189H629.632ZM823.007 610.979C821.179 609.153 818.701 608.128 816.117 608.128C813.533 608.128 811.055 609.153 809.227 610.979L620.727 805.979C619.023 807.857 618.118 810.325 618.204 812.859C618.29 815.393 619.359 817.794 621.186 819.553C623.012 821.312 625.452 822.29 627.987 822.28C630.523 822.27 632.955 821.272 634.767 819.499L823.267 624.499C824.98 622.649 825.91 620.208 825.862 617.687C825.813 615.166 824.79 612.762 823.007 610.979Z" fill="white"></path> <defs> <linearGradient id="paint0_linear_3415_269" x1="158.104" y1="921.896" x2="921.896" y2="158.104" gradientUnits="userSpaceOnUse"> <stop stop-color="#4D0000"></stop> <stop offset="1" stop-color="#F03224"></stop> </linearGradient> </defs> </svg> 