<?xml version="1.0" encoding="UTF-8"?> <svg xmlns="http://www.w3.org/2000/svg" width="1081" height="1081" viewBox="0 0 1081 1081" fill="none"> <path d="M540.067 1080.13C838.338 1080.13 1080.13 838.338 1080.13 540.067C1080.13 241.796 838.338 0 540.067 0C241.796 0 0 241.796 0 540.067C0 838.338 241.796 1080.13 540.067 1080.13Z" fill="url(#paint0_linear_3415_270)"></path> <path fill-rule="evenodd" clip-rule="evenodd" d="M767.5 339.8C771.4 335.9 771.4 330.05 767.5 326.15L766.85 325.5L710.3 281.95C708.35 280.65 706.4 280 704.45 280H491.25C486.05 280 481.5 284.55 481.5 289.75V361.25C481.5 366.45 486.05 371 491.25 371H550.4L502.3 440.55C499.05 445.1 500.35 450.95 504.9 454.2C509.45 457.45 515.3 456.15 518.55 451.6L573.8 371.65L618 392.45V436H596.55C593.3 436 590.05 437.3 588.75 440.55L457.45 635.55C456.15 636.85 455.5 638.8 456.15 640.75V790.25C456.15 795.45 460.7 800 465.9 800H732.4C737.6 800 742.15 795.45 742.15 790.25V445.75C742.15 440.55 737.6 436 732.4 436H709V398.95L767.5 339.8ZM475 780.5V657H722V780.5H475ZM722 637.5H479.55L601.75 455.5H722V637.5ZM637.5 436V385.95C637.5 382.05 635.55 378.8 631.65 377.5L579.65 352.8C578.35 352.15 577.05 352.15 575.75 352.15H501V299.5H700.55L745.4 333.95L692.1 387.9C690.15 389.85 689.5 392.45 689.5 395.05V436H637.5ZM419.75 325.5C415.44 325.5 411.307 327.212 408.26 330.26C405.212 333.307 403.5 337.44 403.5 341.75C403.5 346.06 405.212 350.193 408.26 353.24C411.307 356.288 415.44 358 419.75 358C424.06 358 428.193 356.288 431.24 353.24C434.288 350.193 436 346.06 436 341.75C436 337.44 434.288 333.307 431.24 330.26C428.193 327.212 424.06 325.5 419.75 325.5ZM361.25 371C356.94 371 352.807 372.712 349.76 375.76C346.712 378.807 345 382.94 345 387.25C345 391.56 346.712 395.693 349.76 398.74C352.807 401.788 356.94 403.5 361.25 403.5C365.56 403.5 369.693 401.788 372.74 398.74C375.788 395.693 377.5 391.56 377.5 387.25C377.5 382.94 375.788 378.807 372.74 375.76C369.693 372.712 365.56 371 361.25 371ZM361.25 286.5C356.94 286.5 352.807 288.212 349.76 291.26C346.712 294.307 345 298.44 345 302.75C345 307.06 346.712 311.193 349.76 314.24C352.807 317.288 356.94 319 361.25 319C365.56 319 369.693 317.288 372.74 314.24C375.788 311.193 377.5 307.06 377.5 302.75C377.5 298.44 375.788 294.307 372.74 291.26C369.693 288.212 365.56 286.5 361.25 286.5Z" fill="white"></path> <defs> <linearGradient id="paint0_linear_3415_270" x1="158.104" y1="921.896" x2="921.896" y2="158.104" gradientUnits="userSpaceOnUse"> <stop stop-color="#4D0000"></stop> <stop offset="1" stop-color="#F03224"></stop> </linearGradient> </defs> </svg> 