<?xml version="1.0" encoding="UTF-8"?> <svg xmlns="http://www.w3.org/2000/svg" width="381" height="340" viewBox="0 0 381 340" fill="none"><path d="M62.3804 318.769H140.07V312.899C140.07 286.569 139.91 260.239 140.12 233.909C140.29 213.599 149.84 198.319 167.8 189.489C185.58 180.749 203.58 182.479 219.58 194.379C232.4 203.919 239.08 217.299 239.17 233.459C239.31 259.789 239.21 286.119 239.21 312.449C239.21 314.409 239.21 316.379 239.21 318.629H316.87C316.87 316.729 316.87 314.809 316.87 312.889C316.87 264.559 316.86 216.239 316.91 167.909C316.91 165.449 317.24 162.959 317.75 160.549C318.84 155.329 322.89 152.329 328.15 152.589C332.89 152.819 336.88 156.429 337.59 161.279C337.81 162.749 337.68 164.269 337.68 165.769C337.68 219.429 337.55 273.089 337.84 326.749C337.88 334.279 333.22 339.799 324.56 339.759C294.23 339.609 263.89 339.699 233.56 339.699C222.08 339.699 218.63 336.299 218.63 324.929C218.62 294.599 218.63 264.269 218.63 233.939C218.63 219.129 207.13 206.109 193.08 204.979C177.42 203.719 163.71 213.729 160.92 228.539C160.62 230.159 160.73 231.859 160.73 233.519C160.73 264.179 160.73 294.849 160.73 325.509C160.73 335.979 157.08 339.689 146.75 339.689C116.42 339.689 86.0804 339.689 55.7504 339.689C45.2204 339.689 41.6904 336.159 41.6904 325.709C41.6904 271.879 41.6904 218.059 41.6904 164.229C41.6904 155.459 48.1404 150.229 55.5004 153.509C58.0104 154.629 60.2204 157.529 61.4304 160.139C62.5404 162.549 62.3604 165.659 62.3604 168.459C62.4104 216.289 62.3904 264.109 62.3904 311.939V318.759L62.3804 318.769Z" fill="#F97F02"></path><path d="M380.071 143.789C378.151 146.389 376.731 149.729 374.201 151.419C370.361 153.989 366.041 153.279 362.151 150.389C350.691 141.889 339.151 133.509 327.651 125.069C303.461 107.319 279.301 89.5394 255.091 71.8094C234.491 56.7294 213.791 41.7794 193.311 26.5494C190.361 24.3594 188.541 24.7494 185.941 26.6594C150.281 52.8794 114.581 79.0294 78.8806 105.189C58.4006 120.189 37.9306 135.199 17.4206 150.159C12.1006 154.039 4.76057 153.409 1.82057 148.999C-1.48943 144.019 0.0805697 137.219 5.40057 133.329C62.9206 91.2294 120.451 49.1394 177.951 7.0094C189.151 -1.1906 189.961 -1.2806 201.291 7.0294C233.781 30.8594 266.241 54.7094 298.751 78.5094C323.781 96.8294 348.851 115.099 373.921 133.349C377.221 135.749 379.661 138.469 378.811 142.969C379.231 143.239 379.651 143.499 380.071 143.769V143.789Z" fill="#F97F02"></path></svg> 