<?xml version="1.0" encoding="UTF-8"?> <svg xmlns="http://www.w3.org/2000/svg" width="1081" height="1081" viewBox="0 0 1081 1081" fill="none"> <path d="M540.067 1080.13C838.338 1080.13 1080.13 838.338 1080.13 540.067C1080.13 241.796 838.338 0 540.067 0C241.796 0 0 241.796 0 540.067C0 838.338 241.796 1080.13 540.067 1080.13Z" fill="url(#paint0_linear_3409_213)"></path> <path fill-rule="evenodd" clip-rule="evenodd" d="M850.312 447.375C849.941 446.143 849.33 444.997 848.513 444.002C847.697 443.008 846.692 442.185 845.556 441.58C844.42 440.976 843.176 440.603 841.895 440.482C840.614 440.361 839.321 440.494 838.092 440.875L728.502 475L772.312 391.15C773.51 388.857 773.749 386.182 772.975 383.714C772.201 381.245 770.478 379.186 768.185 377.988C767.05 377.394 765.809 377.03 764.533 376.917C763.257 376.803 761.971 376.942 760.749 377.325C758.28 378.099 756.22 379.822 755.022 382.115L701.852 483.45L635.552 504.12L553.002 444.06V374.445L633.927 293.52C635.036 292.671 635.95 291.594 636.607 290.361C637.263 289.128 637.647 287.769 637.733 286.375C637.818 284.981 637.603 283.585 637.102 282.281C636.601 280.977 635.826 279.796 634.829 278.818C633.832 277.84 632.637 277.088 631.324 276.612C630.011 276.136 628.611 275.947 627.219 276.059C625.827 276.171 624.475 276.581 623.255 277.261C622.035 277.941 620.975 278.875 620.147 280L553.002 346.885V231.25C553.002 228.664 551.975 226.184 550.147 224.356C548.318 222.527 545.838 221.5 543.252 221.5C540.666 221.5 538.187 222.527 536.358 224.356C534.53 226.184 533.502 228.664 533.502 231.25V346.885L466.357 280C465.465 279.042 464.388 278.274 463.192 277.741C461.996 277.208 460.705 276.921 459.396 276.898C458.087 276.875 456.787 277.116 455.573 277.606C454.359 278.097 453.256 278.827 452.33 279.753C451.404 280.678 450.674 281.781 450.184 282.995C449.693 284.209 449.453 285.51 449.476 286.819C449.499 288.128 449.785 289.419 450.318 290.615C450.851 291.811 451.619 292.887 452.577 293.78L533.502 374.445V443.995L451.017 504.055L384.912 483.45L332.002 382.115C330.804 379.788 328.731 378.032 326.238 377.233C323.745 376.435 321.037 376.659 318.71 377.858C316.383 379.056 314.627 381.129 313.828 383.622C313.03 386.115 313.254 388.823 314.452 391.15L358.587 475L248.672 440.94C247.43 440.475 246.106 440.269 244.781 440.334C243.456 440.399 242.158 440.734 240.967 441.317C239.776 441.901 238.717 442.722 237.854 443.729C236.991 444.736 236.342 445.909 235.948 447.175C235.554 448.442 235.422 449.776 235.562 451.095C235.701 452.414 236.107 453.691 236.757 454.847C237.407 456.004 238.285 457.016 239.339 457.821C240.393 458.626 241.601 459.208 242.887 459.53L352.802 493.85L268.692 537.985C266.4 539.183 264.677 541.243 263.903 543.711C263.129 546.18 263.367 548.855 264.565 551.148C265.763 553.44 267.823 555.163 270.291 555.937C272.76 556.711 275.435 556.473 277.727 555.275L379.062 502.105L445.102 522.71L476.432 619.3L434.962 675.46L321.862 692.49C320.582 692.682 319.352 693.124 318.243 693.792C317.133 694.459 316.166 695.339 315.396 696.38C314.627 697.421 314.07 698.604 313.757 699.86C313.445 701.116 313.383 702.422 313.575 703.702C313.767 704.983 314.209 706.213 314.877 707.322C315.544 708.432 316.424 709.399 317.465 710.168C319.567 711.723 322.201 712.378 324.787 711.99L418.647 697.82L350.332 790.25C348.952 792.334 348.425 794.868 348.859 797.33C349.294 799.791 350.658 801.992 352.668 803.477C354.679 804.962 357.183 805.618 359.664 805.31C362.144 805.001 364.412 803.752 365.997 801.82L434.377 709L448.547 802.86C448.89 805.169 450.049 807.278 451.814 808.805C453.579 810.331 455.834 811.174 458.167 811.18H459.662C460.931 810.982 462.149 810.536 463.244 809.866C464.34 809.197 465.293 808.317 466.048 807.278C466.803 806.239 467.345 805.062 467.644 803.813C467.942 802.564 467.991 801.268 467.787 800L450.757 687.03L492.097 631H593.822L635.162 687.03L618.002 800C617.809 801.268 617.867 802.561 618.174 803.807C618.481 805.052 619.03 806.224 619.791 807.257C620.552 808.289 621.509 809.162 622.607 809.824C623.706 810.486 624.924 810.925 626.192 811.115H627.687C630.016 811.166 632.287 810.381 634.087 808.902C635.888 807.424 637.099 805.35 637.502 803.055L651.542 709L719.857 801.82C721.443 803.752 723.711 805.001 726.191 805.31C728.672 805.618 731.176 804.962 733.186 803.477C735.197 801.992 736.561 799.791 736.995 797.33C737.43 794.868 736.903 792.334 735.522 790.25L667.207 697.625L761.002 711.73C763.588 712.118 766.222 711.463 768.325 709.908C770.428 708.354 771.827 706.028 772.215 703.442C772.603 700.857 771.947 698.223 770.393 696.12C768.839 694.017 766.513 692.618 763.927 692.23L650.827 675.395L609.812 619.82L641.272 522.71L707.702 502.04L809.037 555.21C810.173 555.803 811.414 556.167 812.69 556.281C813.965 556.394 815.251 556.256 816.473 555.872C817.696 555.489 818.831 554.869 819.813 554.047C820.796 553.225 821.607 552.218 822.2 551.083C822.793 549.947 823.157 548.706 823.271 547.43C823.384 546.154 823.245 544.869 822.862 543.646C822.479 542.424 821.859 541.289 821.037 540.307C820.215 539.324 819.208 538.513 818.072 537.92L734.027 493.85L843.942 459.595C846.407 458.818 848.462 457.094 849.656 454.803C850.851 452.512 851.087 449.84 850.312 447.375ZM592.002 611.5H494.502L464.342 518.485L543.252 461.09L622.162 518.55L592.002 611.5Z" fill="white"></path> <defs> <linearGradient id="paint0_linear_3409_213" x1="158.104" y1="921.896" x2="921.896" y2="158.104" gradientUnits="userSpaceOnUse"> <stop stop-color="#4D0000"></stop> <stop offset="1" stop-color="#F03224"></stop> </linearGradient> </defs> </svg> 