<?xml version="1.0" encoding="UTF-8"?> <svg xmlns="http://www.w3.org/2000/svg" width="1081" height="1081" viewBox="0 0 1081 1081" fill="none"> <path d="M540.067 1080.13C838.338 1080.13 1080.13 838.338 1080.13 540.067C1080.13 241.796 838.338 0 540.067 0C241.796 0 0 241.796 0 540.067C0 838.338 241.796 1080.13 540.067 1080.13Z" fill="url(#paint0_linear_3415_275)"></path> <g clip-path="url(#clip0_3415_275)"> <path fill-rule="evenodd" clip-rule="evenodd" d="M738.823 595.007C738.696 594.415 738.484 593.865 738.23 593.315L677.216 465.786C675.566 462.274 672.012 460.031 668.119 460.031H415.092C411.157 460.031 407.603 462.274 405.952 465.828L345.531 593.357C345.531 593.399 345.488 593.442 345.488 593.484C314.262 601.566 291.117 629.872 291.117 663.553V708.404C291.117 741.238 313.077 768.995 343.077 777.838V842.83C343.077 855.058 354.416 865.001 368.422 865.001H400.029C413.992 865.001 425.374 855.016 425.374 842.83V780.842H658.387V842.83C658.387 855.016 669.769 865.001 683.774 865.001H715.382C729.345 865.001 740.727 855.016 740.727 842.83V776.273C750.501 772.676 759.429 766.964 766.833 759.559C780.415 746.062 788.074 727.698 788.074 708.531C788.074 708.489 788.074 708.446 788.074 708.404V663.511C788.074 631.734 767.426 604.697 738.823 595.007ZM384.204 646.332C362.329 646.332 344.6 664.103 344.557 685.978C344.557 707.854 362.371 725.667 384.204 725.667C406.079 725.667 423.893 707.854 423.893 685.978C423.851 664.103 406.122 646.332 384.246 646.332H384.204ZM384.204 705.442C373.499 705.442 364.783 696.726 364.783 685.978C364.783 675.231 373.499 666.515 384.246 666.515C394.951 666.515 403.668 675.231 403.668 685.978C403.668 696.726 394.951 705.442 384.204 705.442ZM699.557 643.793C677.681 643.835 659.91 661.564 659.91 683.482C659.91 705.357 677.681 723.129 699.557 723.129C721.432 723.129 739.203 705.357 739.203 683.482C739.203 661.564 721.475 643.835 699.557 643.793ZM699.557 702.946C688.81 702.903 680.093 694.229 680.093 683.482C680.093 672.735 688.81 664.018 699.557 664.018C710.304 664.018 719.02 672.735 719.02 683.482C719.02 694.229 710.304 702.903 699.557 702.946ZM585.356 693.002H493.877C488.292 693.002 483.765 697.487 483.765 703.073C483.765 708.658 488.292 713.185 493.877 713.185H585.356C590.941 713.185 595.427 708.658 595.427 703.073C595.427 697.487 590.941 693.002 585.356 693.002ZM421.481 480.256H661.73L714.789 591.114H368.929L421.481 480.256ZM405.191 842.703C404.979 843.295 403.16 844.776 400.029 844.776H368.422C365.29 844.776 363.471 843.295 363.259 842.83V780.842H363.513H405.191V842.703ZM720.501 842.703C720.332 843.295 718.47 844.776 715.339 844.776H683.732C680.643 844.776 678.782 843.295 678.612 842.83V780.842H715.678C717.286 780.842 718.894 780.715 720.501 780.588V842.703ZM767.849 708.446C767.849 722.325 762.433 735.399 752.532 745.3C742.8 755.074 729.556 760.617 715.72 760.617H715.678H363.513C334.741 760.617 311.342 737.219 311.342 708.446V663.553C311.342 634.781 334.741 611.34 363.513 611.34H715.678C744.45 611.34 767.849 634.781 767.849 663.553V708.446Z" fill="white"></path> <path fill-rule="evenodd" clip-rule="evenodd" d="M440.688 384.63C468.868 384.63 491.801 361.696 491.801 333.516C491.801 309.779 456.809 235.437 449.827 220.754C448.135 217.243 444.581 215 440.688 215C436.795 215 433.283 217.243 431.591 220.754C424.567 235.437 389.617 309.779 389.617 333.516C389.617 361.696 412.55 384.63 440.688 384.63ZM440.688 249.104C455.159 281.092 471.576 321.415 471.576 333.516C471.576 350.568 457.74 364.404 440.688 364.404C423.636 364.404 409.842 350.568 409.8 333.516C409.8 321.373 426.26 281.092 440.688 249.104ZM638.498 384.63C666.635 384.63 689.568 361.696 689.568 333.516C689.568 309.779 654.618 235.437 647.595 220.754C645.902 217.243 642.39 215 638.498 215C634.605 215 631.051 217.243 629.358 220.754C622.377 235.437 587.384 309.822 587.384 333.516C587.384 361.696 610.318 384.63 638.498 384.63ZM638.498 249.104C652.926 281.092 669.385 321.373 669.385 333.516C669.385 350.568 655.507 364.404 638.498 364.404C621.446 364.404 607.61 350.568 607.61 333.516C607.61 321.415 624.027 281.092 638.498 249.104Z" fill="white"></path> </g> <defs> <linearGradient id="paint0_linear_3415_275" x1="158.104" y1="921.896" x2="921.896" y2="158.104" gradientUnits="userSpaceOnUse"> <stop stop-color="#4D0000"></stop> <stop offset="1" stop-color="#F03224"></stop> </linearGradient> <clipPath id="clip0_3415_275"> <rect width="497.185" height="650" fill="white" transform="translate(291 215)"></rect> </clipPath> </defs> </svg> 