<?xml version="1.0" encoding="UTF-8"?> <svg xmlns="http://www.w3.org/2000/svg" width="1080" height="1080" viewBox="0 0 1080 1080" fill="none"> <path d="M539.922 1079.84C838.113 1079.84 1079.84 838.113 1079.84 539.922C1079.84 241.732 838.113 0 539.922 0C241.732 0 0 241.732 0 539.922C0 838.113 241.732 1079.84 539.922 1079.84Z" fill="url(#paint0_linear_3406_107)"></path> <path fill-rule="evenodd" clip-rule="evenodd" d="M635.55 447.928L431.508 610.343C429.578 611.984 428.362 614.31 428.116 616.831C427.871 619.352 428.615 621.87 430.192 623.852C431.769 625.834 434.055 627.125 436.566 627.452C439.078 627.779 441.618 627.117 443.65 625.605L647.692 463.19C649.622 461.55 650.838 459.223 651.084 456.702C651.329 454.181 650.585 451.664 649.008 449.682C647.431 447.7 645.145 446.408 642.634 446.081C640.122 445.754 637.582 446.416 635.55 447.928ZM456.351 509.496C461.713 513.439 467.804 516.279 474.27 517.851C480.737 519.423 487.452 519.696 494.025 518.654C521.624 514.358 540.591 488.41 536.308 460.811C532.011 433.205 506.05 414.238 478.464 418.535C450.859 422.825 431.892 448.773 436.188 476.372C437.189 482.953 439.487 489.27 442.948 494.956C446.409 500.642 450.965 505.584 456.351 509.496ZM481.454 437.801C489.619 436.548 497.947 438.582 504.616 443.456C511.284 448.33 515.75 455.648 517.035 463.807C518.295 471.973 516.264 480.305 511.389 486.975C506.514 493.646 499.191 498.11 491.029 499.388C486.986 500.031 482.855 499.863 478.877 498.896C474.899 497.928 471.153 496.18 467.856 493.753C464.544 491.347 461.742 488.308 459.613 484.811C457.484 481.314 456.07 477.429 455.454 473.382C454.194 465.217 456.224 456.886 461.098 450.216C465.972 443.546 473.293 439.081 481.454 437.801ZM593.436 553.884C565.493 553.884 542.756 576.615 542.756 604.552C542.756 632.489 565.493 655.213 593.436 655.213C621.38 655.213 644.11 632.482 644.11 604.552C644.117 576.615 621.38 553.884 593.436 553.884ZM593.436 635.713C585.172 635.706 577.248 632.421 571.403 626.58C565.557 620.738 562.268 612.816 562.256 604.552C562.256 587.366 576.244 573.384 593.436 573.384C610.629 573.384 624.61 587.366 624.61 604.552C624.6 612.815 621.312 620.737 615.467 626.579C609.623 632.421 601.7 635.706 593.436 635.713Z" fill="white"></path> <path fill-rule="evenodd" clip-rule="evenodd" d="M788.838 483.04C769.514 473.414 749.54 463.456 744.093 450.586C738.535 437.449 746.179 416.545 753.57 396.33C763.606 368.874 773.992 340.489 755.149 321.658C736.611 303.114 709.116 309.49 682.518 315.665C663.473 320.085 643.778 324.655 630.388 318.993C617.349 313.468 606.689 296.653 596.38 280.39C581.774 257.347 565.225 231.23 536.885 231.23C508.493 231.23 492.263 257.926 477.943 281.482C467.784 298.193 457.273 315.477 444.241 320.989C430.87 326.644 410.948 321.626 391.675 316.783C364.876 310.043 337.166 303.081 318.602 321.658C299.856 340.391 309.086 368.939 318.017 396.551C324.55 416.74 331.297 437.618 325.7 450.852C320.253 463.755 301.156 473.622 282.69 483.17C257.132 496.385 228.168 511.361 228.168 539.935C228.168 568.418 256.007 583.992 280.571 597.733C298.166 607.574 316.36 617.753 321.846 630.714C327.468 644.006 321.579 664.436 315.892 684.189C308.046 711.411 299.934 739.569 318.602 758.224C337.842 777.458 368.685 761.448 398.513 745.946C420.191 734.688 444.767 721.909 457.546 727.323C470.02 732.601 478.379 758.374 485.756 781.111C496.52 814.306 507.661 848.639 536.892 848.639C566.155 848.639 576.925 814.274 587.338 781.039C594.488 758.231 602.594 732.374 615.054 727.109C627.833 721.707 652.689 734.519 674.614 745.829C704.761 761.383 735.928 777.458 755.155 758.231C774.012 739.381 763.683 711.392 753.699 684.319C746.361 664.416 738.769 643.837 744.313 630.714C749.767 617.824 769.676 607.58 788.929 597.674C816.782 583.342 845.584 568.528 845.584 539.935C845.564 511.309 816.723 496.937 788.838 483.04ZM779.992 580.339C757.651 591.831 734.55 603.719 726.341 623.128C717.793 643.356 726.744 667.614 735.395 691.073C743.618 713.368 751.385 734.421 741.356 744.444C732.204 753.603 706.347 740.271 683.545 728.506C656.557 714.583 628.652 700.192 607.449 709.156C586.675 717.937 577.543 747.057 568.722 775.222C560.415 801.735 551.822 829.152 536.885 829.152C521.825 829.152 512.913 801.677 504.294 775.105C495.207 747.09 485.815 718.119 465.138 709.377C460.549 707.433 455.661 706.582 450.546 706.582C431.995 706.582 410.48 717.762 389.517 728.649C367.027 740.343 341.521 753.59 332.382 744.444C321.852 733.921 328.053 712.393 334.625 689.597C341.255 666.581 348.112 642.784 339.799 623.122C331.706 604.005 310.549 592.169 290.087 580.722C268.273 568.522 247.668 556.991 247.668 539.948C247.668 523.243 269.027 512.193 291.647 500.506C313.188 489.365 335.47 477.847 343.66 458.457C352.084 438.541 344.199 414.153 336.568 390.565C329.119 367.529 322.08 345.76 332.389 335.464C343.14 324.7 364.408 330.05 386.924 335.711C409.31 341.347 432.476 347.171 451.839 338.968C470.663 331.012 482.838 310.992 494.609 291.628C507.388 270.607 519.459 250.75 536.885 250.75C554.494 250.75 566.837 270.23 579.909 290.848C591.823 309.64 604.134 329.075 622.796 336.972C642.029 345.104 664.858 339.806 686.932 334.678C709.324 329.484 730.475 324.57 741.369 335.464C751.412 345.5 743.566 366.944 735.266 389.648C726.582 413.412 717.592 437.982 726.146 458.197C734.401 477.704 757.658 489.3 780.154 500.506C803.769 512.277 826.077 523.392 826.077 539.948C826.064 556.627 803.684 568.145 779.992 580.339Z" fill="white"></path> <defs> <linearGradient id="paint0_linear_3406_107" x1="158.098" y1="921.747" x2="921.747" y2="158.098" gradientUnits="userSpaceOnUse"> <stop stop-color="#4D0000"></stop> <stop offset="1" stop-color="#F03224"></stop> </linearGradient> </defs> </svg> 