<?xml version="1.0" encoding="UTF-8"?> <svg xmlns="http://www.w3.org/2000/svg" width="1081" height="1081" viewBox="0 0 1081 1081" fill="none"> <path d="M540.067 1080.13C838.338 1080.13 1080.13 838.338 1080.13 540.067C1080.13 241.796 838.338 0 540.067 0C241.796 0 0 241.796 0 540.067C0 838.338 241.796 1080.13 540.067 1080.13Z" fill="url(#paint0_linear_3424_50)"></path> <path fill-rule="evenodd" clip-rule="evenodd" d="M506.348 681.311H313.265C318.309 588.849 394.652 515.184 487.777 515.184C514.258 515.184 539.693 520.995 563.385 532.448C564.54 533.025 565.799 533.367 567.087 533.454C568.375 533.541 569.668 533.371 570.89 532.954C572.112 532.537 573.239 531.882 574.206 531.026C575.173 530.17 575.96 529.13 576.522 527.968C577.083 526.805 577.409 525.542 577.478 524.253C577.548 522.964 577.361 521.673 576.928 520.457C576.495 519.24 575.825 518.122 574.956 517.167C574.087 516.211 573.038 515.438 571.868 514.892C545.66 502.18 516.899 495.611 487.771 495.684C380.651 495.684 293.492 583.324 293.492 691.061C293.492 693.647 294.519 696.127 296.348 697.955C298.176 699.784 300.656 700.811 303.242 700.811H506.341C507.622 700.812 508.89 700.56 510.073 700.07C511.256 699.581 512.331 698.863 513.236 697.958C514.142 697.053 514.861 695.978 515.351 694.795C515.841 693.613 516.094 692.345 516.094 691.064C516.095 689.784 515.843 688.516 515.354 687.333C514.864 686.15 514.146 685.075 513.241 684.169C512.336 683.264 511.261 682.545 510.079 682.055C508.896 681.564 507.628 681.312 506.348 681.311ZM491.671 473.435C554.441 473.435 605.505 422.377 605.505 359.613C605.505 296.862 554.441 245.805 491.671 245.805C428.926 245.805 377.882 296.856 377.882 359.613C377.882 422.377 428.926 473.435 491.671 473.435ZM491.671 265.311C543.684 265.311 586.005 307.62 586.005 359.62C586.005 411.626 543.684 453.941 491.671 453.941C439.677 453.941 397.382 411.626 397.382 359.62C397.382 307.613 439.677 265.311 491.671 265.311Z" fill="white"></path> <path fill-rule="evenodd" clip-rule="evenodd" d="M772.848 564.309H551.848C549.262 564.309 546.782 565.336 544.953 567.164C543.125 568.993 542.098 571.473 542.098 574.059V782.059C542.098 784.644 543.125 787.124 544.953 788.953C546.782 790.781 549.262 791.809 551.848 791.809H620.098V838.004C620.097 839.285 620.348 840.553 620.838 841.736C621.328 842.92 622.046 843.995 622.951 844.9C623.857 845.806 624.932 846.524 626.115 847.014C627.299 847.503 628.567 847.755 629.848 847.754C632.552 847.754 635.191 846.63 637.076 844.556L698.995 792.075C701.27 792.075 772.854 791.809 772.854 791.809C775.44 791.809 777.92 790.781 779.748 788.953C781.577 787.124 782.604 784.644 782.604 782.059V574.059C782.604 572.778 782.352 571.509 781.861 570.326C781.371 569.143 780.652 568.067 779.746 567.162C778.84 566.257 777.764 565.538 776.581 565.049C775.397 564.559 774.129 564.308 772.848 564.309ZM763.098 772.309H696.57C694.861 772.309 691.864 772.374 687.873 775.578L639.598 812.745V782.059C639.598 779.473 638.57 776.993 636.742 775.164C634.913 773.336 632.434 772.309 629.848 772.309H561.591V583.809H763.091L763.098 772.309Z" fill="white"></path> <path fill-rule="evenodd" clip-rule="evenodd" d="M639.6 651.872C642.186 651.872 644.666 650.845 646.495 649.017C648.323 647.188 649.35 644.708 649.35 642.122C649.35 633.646 656.247 626.756 664.716 626.756C673.186 626.756 680.089 633.653 680.089 642.122C680.081 646.077 678.553 649.876 675.821 652.734C673.089 655.593 669.361 657.29 665.412 657.475C665.178 657.488 662.318 657.488 662.084 657.488C657.527 657.488 653.224 659.887 652.659 664.853L652.594 691.054C652.594 693.64 653.621 696.12 655.449 697.949C657.278 699.777 659.758 700.804 662.344 700.804C664.93 700.804 667.41 699.777 669.238 697.949C671.067 696.12 672.094 693.64 672.094 691.054V676.163C687.778 672.763 699.582 658.808 699.582 642.116C699.582 622.889 683.937 607.25 664.71 607.25C645.483 607.25 629.844 622.889 629.844 642.116C629.845 644.703 630.874 647.184 632.703 649.013C634.533 650.842 637.013 651.871 639.6 651.872ZM662.35 713.811C658.04 713.811 653.907 715.523 650.86 718.571C647.812 721.618 646.1 725.751 646.1 730.061C646.1 734.371 647.812 738.504 650.86 741.551C653.907 744.599 658.04 746.311 662.35 746.311C666.66 746.311 670.793 744.599 673.841 741.551C676.888 738.504 678.6 734.371 678.6 730.061C678.6 725.751 676.888 721.618 673.841 718.571C670.793 715.523 666.66 713.811 662.35 713.811Z" fill="white"></path> <defs> <linearGradient id="paint0_linear_3424_50" x1="158.104" y1="921.896" x2="921.896" y2="158.104" gradientUnits="userSpaceOnUse"> <stop stop-color="#4D0000"></stop> <stop offset="1" stop-color="#F03224"></stop> </linearGradient> </defs> </svg> 