<?xml version="1.0" encoding="UTF-8"?> <svg xmlns="http://www.w3.org/2000/svg" width="1081" height="1081" viewBox="0 0 1081 1081" fill="none"> <path d="M540.067 1080.13C838.338 1080.13 1080.13 838.338 1080.13 540.067C1080.13 241.796 838.338 0 540.067 0C241.796 0 0 241.796 0 540.067C0 838.338 241.796 1080.13 540.067 1080.13Z" fill="url(#paint0_linear_3410_221)"></path> <path fill-rule="evenodd" clip-rule="evenodd" d="M782 614.781H464.962V297.75C464.962 295.164 463.935 292.684 462.107 290.856C460.278 289.027 457.798 288 455.212 288H297.75C295.164 288 292.684 289.027 290.856 290.856C289.027 292.684 288 295.164 288 297.75V782C288 784.586 289.027 787.066 290.856 788.894C292.684 790.723 295.164 791.75 297.75 791.75H782C784.586 791.75 787.066 790.723 788.894 788.894C790.723 787.066 791.75 784.586 791.75 782V624.531C791.75 621.945 790.723 619.465 788.894 617.637C787.066 615.808 784.586 614.781 782 614.781ZM445.462 307.5V614.781H307.5V549.625H354.813C357.399 549.625 359.879 548.598 361.708 546.769C363.536 544.941 364.563 542.461 364.563 539.875C364.563 537.289 363.536 534.809 361.708 532.981C359.879 531.152 357.399 530.125 354.813 530.125H307.5V466.945H394.223C396.809 466.945 399.289 465.918 401.117 464.089C402.946 462.261 403.973 459.781 403.973 457.195C403.973 454.609 402.946 452.129 401.117 450.301C399.289 448.472 396.809 447.445 394.223 447.445H307.5V384.265H354.813C357.399 384.265 359.879 383.238 361.708 381.409C363.536 379.581 364.563 377.101 364.563 374.515C364.563 371.929 363.536 369.449 361.708 367.621C359.879 365.792 357.399 364.765 354.813 364.765H307.5V307.5H445.462ZM772.25 772.25H307.5V634.281H772.25V772.25Z" fill="white"></path> <path fill-rule="evenodd" clip-rule="evenodd" d="M703.246 744.514C725.996 744.514 744.502 726.002 744.502 703.252C744.502 680.502 725.99 661.996 703.246 661.996C692.308 662.008 681.821 666.358 674.085 674.092C666.35 681.827 661.998 692.313 661.984 703.252C661.984 726.002 680.496 744.514 703.246 744.514ZM703.246 681.496C709.015 681.501 714.545 683.795 718.624 687.874C722.703 691.953 724.997 697.483 725.002 703.252C724.995 709.02 722.701 714.55 718.623 718.63C714.544 722.709 709.015 725.005 703.246 725.014C697.477 725.007 691.946 722.712 687.866 718.632C683.786 714.552 681.491 709.021 681.484 703.252C681.493 697.483 683.789 691.954 687.868 687.875C691.948 683.797 697.478 681.503 703.246 681.496Z" fill="white"></path> <defs> <linearGradient id="paint0_linear_3410_221" x1="158.104" y1="921.896" x2="921.896" y2="158.104" gradientUnits="userSpaceOnUse"> <stop stop-color="#4D0000"></stop> <stop offset="1" stop-color="#F03224"></stop> </linearGradient> </defs> </svg> 