<?xml version="1.0" encoding="UTF-8"?> <svg xmlns="http://www.w3.org/2000/svg" width="1081" height="1081" viewBox="0 0 1081 1081" fill="none"> <path d="M540.067 1080.13C838.338 1080.13 1080.13 838.338 1080.13 540.067C1080.13 241.796 838.338 0 540.067 0C241.796 0 0 241.796 0 540.067C0 838.338 241.796 1080.13 540.067 1080.13Z" fill="url(#paint0_linear_3429_111)"></path> <path fill-rule="evenodd" clip-rule="evenodd" d="M882.408 276.809C881.713 275.011 880.5 273.46 878.923 272.351C877.346 271.243 875.475 270.627 873.548 270.582L815.763 269.23L817.07 211.432C817.114 209.503 816.585 207.604 815.55 205.976C814.515 204.348 813.02 203.063 811.254 202.285C809.489 201.507 807.532 201.27 805.632 201.605C803.731 201.939 801.973 202.83 800.579 204.165L731.53 270.12C729.658 271.903 728.571 274.355 728.507 276.939L727.025 338.65L709.924 355.751C664.541 313.683 603.857 287.904 537.251 287.904C397.027 287.904 282.945 402.012 282.945 542.262C282.945 682.461 397.027 796.523 537.251 796.523C677.476 796.523 791.557 682.461 791.557 542.262C791.557 475.631 765.778 414.934 723.71 369.538L738.745 354.503L803.992 356.024H804.219C806.722 356.024 809.133 355.062 810.947 353.327L880.048 287.384C882.908 284.661 883.838 280.488 882.408 276.809ZM772.051 542.262C772.051 671.71 666.718 777.023 537.245 777.023C407.771 777.023 302.439 671.71 302.439 542.262C302.439 412.763 407.771 307.404 537.245 307.404C598.481 307.404 654.29 330.993 696.137 369.531L660.049 405.619C627.471 376.317 584.415 358.442 537.251 358.442C435.923 358.442 353.49 440.901 353.49 542.256C353.49 643.584 435.923 726.017 537.251 726.017C638.612 726.017 721.065 643.584 721.065 542.256C721.065 495.066 703.177 451.984 673.836 419.399L709.917 383.318C748.462 425.178 772.051 481.013 772.051 542.262ZM595.953 542.23C595.953 574.593 569.621 600.918 537.258 600.918C504.894 600.918 478.563 574.587 478.563 542.23C478.563 509.866 504.894 483.535 537.258 483.535C549.92 483.535 561.626 487.604 571.227 494.448L530.348 535.327C529.443 536.232 528.725 537.308 528.235 538.491C527.746 539.674 527.494 540.942 527.494 542.222C527.494 543.503 527.747 544.771 528.237 545.954C528.727 547.137 529.446 548.211 530.352 549.117C531.257 550.022 532.332 550.74 533.515 551.23C534.699 551.719 535.967 551.971 537.247 551.971C538.528 551.971 539.796 551.718 540.978 551.228C542.161 550.737 543.236 550.019 544.141 549.113L585.02 508.235C592.127 518.145 595.951 530.034 595.953 542.23ZM585.13 480.538C571.46 469.847 554.606 464.037 537.251 464.035C494.137 464.035 459.056 499.115 459.056 542.23C459.056 585.344 494.13 620.418 537.251 620.418C580.372 620.418 615.446 585.344 615.446 542.23C615.446 524.173 609.232 507.572 598.917 494.325L660.017 433.218C685.835 462.254 701.558 500.448 701.558 542.262C701.558 632.84 627.848 706.524 537.245 706.524C446.667 706.524 372.983 632.84 372.983 542.262C372.983 451.659 446.667 377.949 537.245 377.949C579.033 377.949 617.201 393.653 646.23 419.438L585.13 480.538ZM800.404 336.44L757.796 335.445L788.691 304.551C789.622 303.651 790.365 302.576 790.876 301.386C791.387 300.196 791.656 298.917 791.667 297.622C791.678 296.328 791.432 295.044 790.941 293.846C790.451 292.647 789.727 291.559 788.812 290.643C787.896 289.728 786.808 289.004 785.609 288.514C784.411 288.024 783.127 287.777 781.833 287.788C780.538 287.799 779.259 288.068 778.069 288.579C776.88 289.09 775.804 289.833 774.904 290.764L747.006 318.662L747.897 281.45L779.539 251.257L779.545 251.251L797.037 234.533L796.042 278.538C795.985 281.122 796.956 283.623 798.741 285.491C800.527 287.36 802.981 288.443 805.565 288.502L849.557 289.529L800.404 336.44Z" fill="white"></path> <defs> <linearGradient id="paint0_linear_3429_111" x1="158.104" y1="921.896" x2="921.896" y2="158.104" gradientUnits="userSpaceOnUse"> <stop stop-color="#4D0000"></stop> <stop offset="1" stop-color="#F03224"></stop> </linearGradient> </defs> </svg> 