<?xml version="1.0" encoding="UTF-8"?> <svg xmlns="http://www.w3.org/2000/svg" width="1081" height="1081" viewBox="0 0 1081 1081" fill="none"> <path d="M540.067 1080.13C838.338 1080.13 1080.13 838.338 1080.13 540.067C1080.13 241.796 838.338 0 540.067 0C241.796 0 0 241.796 0 540.067C0 838.338 241.796 1080.13 540.067 1080.13Z" fill="url(#paint0_linear_3429_117)"></path> <path fill-rule="evenodd" clip-rule="evenodd" d="M682.951 579.877C682.182 578.162 680.933 576.706 679.355 575.684C677.778 574.662 675.938 574.118 674.059 574.118H582.773L543.37 494.499C542.563 492.872 541.317 491.503 539.773 490.545C538.229 489.588 536.448 489.081 534.632 489.082C532.815 489.083 531.035 489.591 529.492 490.549C527.949 491.507 526.704 492.878 525.898 494.506L486.508 574.124H398.465C396.604 574.123 394.782 574.655 393.213 575.657C391.644 576.659 390.395 578.089 389.613 579.778C388.831 581.467 388.549 583.345 388.8 585.189C389.051 587.033 389.825 588.767 391.029 590.186L455.971 666.73L435.873 755.695C435.465 757.494 435.576 759.371 436.193 761.109C436.809 762.847 437.905 764.374 439.355 765.514C440.804 766.654 442.547 767.359 444.382 767.549C446.216 767.738 448.066 767.403 449.718 766.583L534.634 724.476L619.563 766.583C621.214 767.398 623.063 767.73 624.895 767.541C626.727 767.351 628.468 766.647 629.917 765.51C632.875 763.19 634.233 759.374 633.401 755.702L613.336 666.873L681.345 590.355C682.594 588.949 683.41 587.212 683.695 585.353C683.98 583.494 683.722 581.592 682.951 579.877ZM595.435 657.656C594.407 658.813 593.669 660.198 593.282 661.697C592.896 663.196 592.872 664.765 593.212 666.275L609.871 740.004L538.963 704.859C537.617 704.189 536.134 703.841 534.631 703.841C533.127 703.841 531.644 704.189 530.298 704.859L459.409 740.004L476.062 666.281C476.396 664.806 476.382 663.274 476.022 661.806C475.662 660.337 474.966 658.972 473.989 657.818L419.525 593.618H492.559C496.264 593.618 499.651 591.518 501.295 588.19L534.627 520.811L567.972 588.19C568.779 589.82 570.024 591.192 571.569 592.151C573.114 593.11 574.897 593.618 576.715 593.618H652.349L595.435 657.656Z" fill="white"></path> <path fill-rule="evenodd" clip-rule="evenodd" d="M546.5 416.844V372.625H653.75C656.336 372.625 658.816 371.598 660.644 369.769C662.473 367.941 663.5 365.461 663.5 362.875V258.875C663.5 256.289 662.473 253.809 660.644 251.981C658.816 250.152 656.336 249.125 653.75 249.125H426.25C423.664 249.125 421.184 250.152 419.356 251.981C417.527 253.809 416.5 256.289 416.5 258.875V362.875C416.5 365.461 417.527 367.941 419.356 369.769C421.184 371.598 423.664 372.625 426.25 372.625H527V416.884C411.82 422.415 319.812 517.841 319.812 634.367C319.812 754.435 417.494 852.117 537.562 852.117C657.631 852.117 755.312 754.435 755.312 634.367C755.312 517.295 662.434 421.557 546.5 416.844ZM436 268.625H644V353.125H436V268.625ZM537.562 832.617C428.245 832.617 339.312 743.677 339.312 634.367C339.312 526.967 425.178 439.302 531.856 436.26C534.397 436.195 539.025 436.195 541.716 436.221C649.109 438.451 735.812 526.441 735.812 634.367C735.812 743.677 646.873 832.617 537.562 832.617Z" fill="white"></path> <defs> <linearGradient id="paint0_linear_3429_117" x1="158.104" y1="921.896" x2="921.896" y2="158.104" gradientUnits="userSpaceOnUse"> <stop stop-color="#4D0000"></stop> <stop offset="1" stop-color="#F03224"></stop> </linearGradient> </defs> </svg> 