<?xml version="1.0" encoding="UTF-8"?> <svg xmlns="http://www.w3.org/2000/svg" width="1081" height="1081" viewBox="0 0 1081 1081" fill="none"> <path d="M540.067 1080.13C838.338 1080.13 1080.13 838.338 1080.13 540.067C1080.13 241.796 838.338 0 540.067 0C241.796 0 0 241.796 0 540.067C0 838.338 241.796 1080.13 540.067 1080.13Z" fill="url(#paint0_linear_3409_205)"></path> <path fill-rule="evenodd" clip-rule="evenodd" d="M843.7 558.031C826.54 490.171 809.965 483.671 755.04 471.646L746.395 469.501C710.58 461.506 646.165 413.211 624.975 397.286C602.641 380.786 575.587 371.92 547.82 372.001H439.205C411.45 372.001 405.08 375.576 396.305 384.416L395.265 385.586L361.92 431.801C357.5 436.286 353.795 440.771 350.48 444.801C342.355 454.681 336.96 461.246 327.015 463.131L274.43 469.631C249.47 474.376 234 489.001 234 508.501V602.751C234 605.336 235.027 607.816 236.856 609.645C238.684 611.473 241.164 612.501 243.75 612.501H293.085C296.057 625.393 303.312 636.898 313.665 645.136C324.019 653.375 336.859 657.86 350.09 657.86C363.321 657.86 376.161 653.375 386.515 645.136C396.868 636.898 404.123 625.393 407.095 612.501H631.085C634.057 625.393 641.312 636.898 651.665 645.136C662.019 653.375 674.859 657.86 688.09 657.86C701.321 657.86 714.161 653.375 724.515 645.136C734.868 636.898 742.123 625.393 745.095 612.501H801.385C808.035 612.486 814.594 610.956 820.563 608.026C826.533 605.096 831.756 600.844 835.836 595.592C839.915 590.341 842.744 584.229 844.107 577.72C845.469 571.211 845.33 564.477 843.7 558.031ZM365.56 457.151C368.875 453.121 372.06 448.961 376.285 444.996L377 443.501L410.345 397.286C414.57 393.061 417.365 391.176 438.88 391.176H547.43C571.009 391.161 593.963 398.752 612.885 412.821C641.095 434.011 664.885 450.456 685.295 462.676H360.295L365.56 457.151ZM350.155 638.501C342.442 638.501 334.901 636.213 328.488 631.928C322.074 627.642 317.076 621.551 314.124 614.425C311.172 607.299 310.4 599.457 311.904 591.892C313.409 584.327 317.124 577.378 322.578 571.923C328.032 566.469 334.981 562.755 342.546 561.25C350.112 559.745 357.953 560.517 365.08 563.469C372.206 566.421 378.297 571.42 382.582 577.833C386.868 584.247 389.155 591.787 389.155 599.501C389.155 609.844 385.046 619.764 377.732 627.078C370.418 634.392 360.498 638.501 350.155 638.501ZM688.155 638.501C680.442 638.501 672.901 636.213 666.488 631.928C660.074 627.642 655.076 621.551 652.124 614.425C649.172 607.299 648.4 599.457 649.904 591.892C651.409 584.327 655.124 577.378 660.578 571.923C666.032 566.469 672.981 562.755 680.546 561.25C688.112 559.745 695.953 560.517 703.08 563.469C710.206 566.421 716.297 571.42 720.582 577.833C724.868 584.247 727.155 591.787 727.155 599.501C727.155 609.844 723.046 619.764 715.732 627.078C708.418 634.392 698.498 638.501 688.155 638.501ZM820.43 583.706C818.18 586.61 815.292 588.959 811.99 590.571C808.688 592.182 805.059 593.014 801.385 593.001H746.2C744.546 578.749 737.712 565.602 726.999 556.059C716.285 546.517 702.437 541.244 688.09 541.244C673.743 541.244 659.895 546.517 649.181 556.059C638.468 565.602 631.634 578.749 629.98 593.001H408.2C406.546 578.749 399.712 565.602 388.998 556.059C378.285 546.517 364.437 541.244 350.09 541.244C335.743 541.244 321.895 546.517 311.182 556.059C300.468 565.602 293.634 578.749 291.98 593.001H253.5V508.501C253.5 494.786 272.285 490.171 277.485 489.001L328.705 482.501H723.06C729.211 485.208 735.582 487.383 742.105 489.001L750.88 490.951C800.8 501.871 809.835 503.951 824.785 563.036C825.67 566.586 825.738 570.291 824.984 573.871C824.23 577.452 822.673 580.814 820.43 583.706Z" fill="white"></path> <defs> <linearGradient id="paint0_linear_3409_205" x1="158.104" y1="921.896" x2="921.896" y2="158.104" gradientUnits="userSpaceOnUse"> <stop stop-color="#4D0000"></stop> <stop offset="1" stop-color="#F03224"></stop> </linearGradient> </defs> </svg> 