<?xml version="1.0" encoding="UTF-8"?> <svg xmlns="http://www.w3.org/2000/svg" width="650" height="650" viewBox="0 0 650 650" fill="none"> <mask id="mask0_3426_90" style="mask-type:alpha" maskUnits="userSpaceOnUse" x="0" y="0" width="650" height="650"> <path fill-rule="evenodd" clip-rule="evenodd" d="M161.542 0.285381L189.345 0L478.628 0.111696C483.014 0.156384 485.741 0.21124 488.469 0.285381C502.811 0.66624 517.277 1.50618 531.46 4.02594C545.859 6.57922 559.249 10.7565 572.321 17.3418C585.168 23.8032 596.938 32.2471 607.133 42.3383C617.329 52.4052 625.871 64.0301 632.407 76.7406C639.079 89.6756 643.294 102.913 645.877 117.147C648.426 131.168 649.275 145.469 649.66 159.647C649.842 166.153 649.921 172.66 649.954 179.178L649.994 190.765L650 447.539C650 455.267 650 462.994 649.954 470.733C649.921 477.239 649.842 483.746 649.66 490.252C649.275 504.419 648.426 518.732 645.877 532.741C643.294 546.975 639.079 560.224 632.407 573.159C625.871 585.858 617.329 597.483 607.133 607.562C596.938 617.641 585.168 626.096 572.321 632.558C559.249 639.143 545.859 643.32 531.46 645.874C517.277 648.393 502.811 649.233 488.469 649.614L445.262 649.95L171.376 649.788C166.989 649.743 164.266 649.688 161.542 649.614C147.201 649.233 132.734 648.393 118.551 645.874C104.153 643.32 90.7634 639.143 77.6903 632.558C64.8324 626.096 53.0735 617.641 42.8777 607.562C32.6828 597.483 24.1404 585.858 17.5927 573.159C10.9322 560.224 6.71733 546.975 4.12342 532.741C1.5742 518.732 0.736321 504.419 0.351399 490.252C0.169602 483.746 0.0903904 477.239 0.0568748 470.733L0.00712872 459.132L0 202.36C0 194.632 -2.45927e-07 186.894 0.0568748 179.178C0.0903904 172.66 0.169602 166.153 0.351399 159.647C0.736321 145.469 1.5742 131.168 4.12342 117.147C6.71733 102.913 10.9322 89.6756 17.5927 76.7406C24.1404 64.0301 32.6828 52.4052 42.8777 42.3383C53.0735 32.2471 64.8324 23.8032 77.6903 17.3418C90.7634 10.7565 104.153 6.57922 118.551 4.02594C132.734 1.50618 147.201 0.66624 161.542 0.285381Z" fill="white"></path> </mask> <g mask="url(#mask0_3426_90)"> <path d="M650 -0.0390625H0V649.961H650V-0.0390625Z" fill="#19AA1E"></path> <path fill-rule="evenodd" clip-rule="evenodd" d="M0 -0.0390625H650V213.242L0 111.68V-0.0390625Z" fill="#FFB919"></path> <path fill-rule="evenodd" clip-rule="evenodd" d="M0 578.867L650 477.305V649.961H0V578.867Z" fill="#82D714"></path> <path fill-rule="evenodd" clip-rule="evenodd" d="M0 98.8242L226.888 134.275C255.131 116.397 288.732 106.595 325 106.595C375.233 106.595 420.35 125.399 453.201 158.419C457.347 162.586 461.257 166.943 464.924 171.468L650 200.386V226.084L483.717 200.103C496.07 223.81 502.734 250.223 502.734 277.179C502.734 312.003 494.945 346.725 478.844 381.584L478.353 382.641L471.515 397.294H455.344C421.954 397.294 399.804 407.283 385.323 424.984C373.952 438.883 367.377 457.619 365.165 478.063L365.098 478.701L364.774 481.968L364.637 483.389L364.374 486.168C363.528 495.296 362.961 503.036 362.674 509.344L650 464.448V490.147L0 591.709V566.011L287.65 521.065L287.523 515.295L287.486 513.668L287.462 512.835L287.418 511.547C287.158 504.551 286.517 495.583 285.49 484.715L285.293 482.654L284.942 479.085C282.877 458.534 276.4 439.56 265.06 425.455C250.73 407.633 228.785 397.498 195.662 397.297L194.656 397.294H178.485L171.647 382.641C155.213 347.426 147.266 312.355 147.266 277.179C147.266 232.944 165.212 190.168 196.799 158.419C197.711 157.503 198.632 156.597 199.562 155.703L0 124.522V98.8242Z" fill="white"></path> <path fill-rule="evenodd" clip-rule="evenodd" d="M325 131.992C415.746 131.992 477.344 201.84 477.344 277.186C477.344 307.435 470.744 338.912 455.344 371.91C366.051 371.91 344.009 435.858 339.842 476.093L339.575 478.774C338.163 493.134 337.346 504.656 337.124 513.343L312.937 517.121L312.931 516.339C312.84 507.234 311.98 494.462 310.351 478.022L310.279 477.305C306.429 437.156 284.851 371.91 194.656 371.91C179.256 338.912 172.656 307.435 172.656 277.186C172.656 201.84 234.254 131.992 325 131.992Z" fill="#0073FA"></path> </g> </svg> 