<?xml version="1.0" encoding="UTF-8" standalone="no"?> <svg xmlns="http://www.w3.org/2000/svg" width="2000.000000pt" height="2000.000000pt" viewBox="0 0 2000.000000 2000.000000" preserveAspectRatio="xMidYMid meet"> <metadata> Created by potrace 1.14, written by Peter Selinger 2001-2017 </metadata> <g transform="translate(0.000000,2000.000000) scale(0.100000,-0.100000)" fill="#000000" stroke="none"> <path d="M8477 15583 c-3 -2 -46 -6 -95 -8 -50 -1 -95 -6 -100 -9 -6 -3 -13 0 -15 6 -4 10 -6 10 -6 0 -1 -9 -6 -10 -18 -4 -32 16 -223 5 -254 -14 -4 -2 -10 0 -14 6 -4 6 -11 8 -16 4 -6 -3 -46 -7 -89 -8 -43 -2 -85 -8 -93 -14 -10 -9 -16 -9 -25 0 -7 7 -12 8 -12 3 0 -6 -21 -9 -47 -8 -27 0 -64 -4 -84 -11 -22 -8 -45 -9 -58 -4 -14 5 -20 4 -16 -2 4 -7 -3 -7 -19 0 -14 5 -26 6 -26 1 0 -4 -11 -7 -25 -6 -14 2 -25 -2 -25 -8 0 -7 -5 -5 -10 3 -7 11 -10 11 -10 2 0 -7 -4 -10 -10 -7 -5 3 -10 1 -10 -6 0 -10 -3 -10 -12 -1 -8 8 -17 8 -30 1 -10 -5 -23 -7 -28 -4 -6 3 -10 2 -10 -4 0 -5 -8 -8 -17 -6 -10 1 -28 -2 -41 -6 -14 -6 -21 -5 -17 0 3 6 -6 6 -24 1 -16 -4 -32 -6 -35 -3 -3 3 -8 -2 -12 -11 -5 -13 -9 -14 -21 -4 -9 7 -17 8 -21 2 -4 -5 -22 -9 -40 -9 -19 1 -36 -3 -38 -7 -3 -5 -9 -6 -14 -3 -5 3 -11 1 -15 -5 -4 -7 -12 -7 -25 0 -12 6 -21 6 -25 1 -3 -6 -14 -8 -25 -6 -11 2 -20 -1 -20 -7 0 -6 -2 -9 -6 -6 -3 3 -22 2 -42 -3 -54 -14 -94 -21 -119 -23 -13 0 -23 -4 -23 -9 0 -4 -3 -6 -7 -6 -5 1 -10 1 -13 -1 -3 -1 -17 -3 -32 -6 -16 -2 -38 -6 -50 -8 -13 -2 -36 -9 -53 -16 -26 -10 -68 -18 -127 -23 -9 -1 -14 -6 -11 -11 4 -5 -1 -7 -9 -3 -9 3 -19 3 -22 -1 -4 -3 -16 -7 -28 -9 -12 -2 -28 -9 -37 -16 -12 -9 -13 -9 -7 1 10 17 -5 15 -32 -4 -17 -12 -22 -12 -22 -2 0 8 -3 9 -8 3 -7 -10 -22 -16 -57 -21 -11 -1 -22 -3 -25 -4 -3 -1 -8 -2 -12 -1 -5 0 -8 -3 -8 -8 0 -5 -16 -8 -35 -6 -27 1 -35 -1 -31 -12 3 -8 2 -11 -4 -8 -5 3 -37 -1 -72 -9 -34 -8 -66 -12 -69 -10 -4 2 -9 0 -11 -5 -1 -5 -21 -12 -42 -15 -22 -4 -45 -11 -53 -17 -7 -6 -13 -8 -13 -3 0 4 -12 -3 -27 -17 -14 -13 -23 -18 -19 -12 5 9 2 11 -8 7 -9 -3 -16 -10 -16 -14 0 -5 -8 -7 -17 -6 -10 2 -25 0 -33 -4 -8 -4 -35 -17 -58 -29 -24 -11 -48 -18 -53 -15 -5 3 -9 0 -9 -6 0 -6 -4 -8 -10 -5 -5 3 -10 1 -10 -4 0 -6 -9 -11 -19 -11 -11 0 -23 -5 -26 -10 -4 -6 -11 -8 -16 -5 -5 4 -9 1 -9 -5 0 -6 -4 -9 -9 -6 -8 6 -77 -26 -95 -44 -5 -5 -20 -10 -33 -10 -13 0 -23 -4 -23 -8 0 -4 -17 -14 -37 -21 -21 -8 -41 -18 -44 -23 -4 -6 -18 -11 -32 -11 -14 -1 -23 -5 -20 -9 4 -7 -12 -12 -29 -9 -5 0 -8 -3 -8 -8 0 -7 -36 -22 -62 -25 -4 -1 -13 -7 -19 -13 -7 -7 -21 -13 -31 -13 -10 0 -18 -4 -18 -9 0 -4 -25 -19 -55 -33 -30 -14 -52 -28 -48 -31 3 -4 1 -7 -6 -7 -13 0 -61 -32 -101 -67 -13 -13 -30 -23 -37 -23 -6 0 -18 -9 -26 -20 -8 -11 -17 -17 -20 -13 -4 3 -7 1 -7 -5 0 -7 -6 -12 -14 -12 -8 0 -22 -10 -31 -22 -8 -13 -17 -21 -19 -18 -3 3 -16 -5 -30 -17 -15 -13 -31 -23 -36 -23 -6 0 -10 -4 -10 -10 0 -5 -4 -10 -10 -10 -9 0 -42 -25 -75 -57 -7 -7 -19 -14 -26 -15 -7 -2 -23 -13 -35 -25 -12 -13 -25 -23 -29 -23 -4 0 -20 -13 -35 -28 -15 -16 -45 -42 -66 -57 -21 -16 -53 -44 -71 -62 -18 -18 -50 -44 -73 -59 -22 -15 -40 -31 -40 -36 0 -5 -4 -7 -9 -4 -5 3 -36 -21 -69 -54 -34 -33 -65 -60 -69 -60 -13 0 -92 -78 -86 -84 4 -3 -1 -6 -10 -6 -9 0 -24 -13 -34 -30 -9 -16 -21 -30 -25 -30 -4 0 -8 -6 -8 -14 0 -7 -18 -26 -40 -41 -22 -15 -40 -32 -40 -36 0 -5 -4 -8 -8 -6 -11 3 -152 -140 -144 -147 3 -3 0 -6 -6 -6 -7 0 -12 -4 -12 -10 0 -14 -37 -50 -52 -50 -6 0 -9 -3 -5 -6 9 -9 -19 -34 -38 -34 -9 0 -14 4 -11 9 7 11 -125 151 -142 151 -7 0 -11 4 -8 8 3 5 -7 15 -22 23 -15 8 -30 18 -34 24 -4 5 -8 7 -8 3 0 -4 -10 3 -23 15 -13 12 -33 29 -46 37 -13 8 -37 25 -54 38 -17 12 -38 22 -47 22 -8 0 -24 6 -35 13 -11 7 -30 12 -43 11 -12 -1 -22 3 -22 7 0 5 -5 9 -11 9 -5 0 -8 -4 -4 -9 3 -5 -7 -3 -22 4 -26 13 -80 27 -110 28 -7 0 -13 4 -13 9 0 5 -4 7 -8 4 -5 -3 -35 2 -66 10 -32 8 -65 13 -73 10 -7 -3 -16 1 -19 9 -3 8 -12 11 -21 8 -12 -5 -14 -3 -8 6 6 10 3 11 -12 2 -11 -6 -23 -8 -26 -5 -9 9 -77 10 -77 1 0 -4 -4 -6 -9 -2 -17 10 -71 13 -71 3 0 -5 -4 -7 -9 -3 -16 9 -71 13 -71 4 0 -5 -7 -6 -15 -3 -8 4 -23 3 -32 -1 -10 -5 -45 -9 -78 -10 -33 -2 -73 -6 -90 -9 -26 -6 -115 -17 -153 -19 -7 0 -10 -7 -7 -15 4 -11 2 -12 -7 -4 -7 5 -29 8 -48 6 -38 -5 -75 -12 -75 -14 0 -3 -42 -12 -68 -13 -15 -1 -27 -5 -27 -9 0 -3 -11 -5 -25 -3 -14 1 -25 -2 -25 -7 0 -6 -7 -8 -15 -5 -8 4 -17 2 -21 -4 -3 -5 -14 -7 -25 -4 -10 4 -19 2 -19 -4 0 -5 -9 -8 -20 -6 -11 2 -20 -1 -20 -7 0 -6 -11 -8 -25 -6 -14 3 -25 2 -25 -1 0 -4 -8 -8 -17 -9 -21 -2 -57 -10 -60 -12 -2 -2 -12 -4 -23 -5 -11 -1 -23 -4 -27 -5 -5 -1 -11 -2 -16 -1 -4 0 -7 -2 -7 -6 0 -5 -10 -9 -23 -10 -31 -3 -50 -8 -62 -14 -5 -4 -18 -5 -27 -4 -10 2 -18 0 -18 -5 0 -4 -7 -11 -16 -14 -8 -3 -12 -2 -9 4 3 6 -1 7 -9 4 -9 -3 -16 -10 -16 -14 0 -4 -13 -7 -29 -6 -17 1 -28 -1 -25 -5 4 -8 -57 -35 -70 -31 -5 2 -17 -5 -27 -14 -11 -9 -19 -14 -19 -10 0 3 -11 -1 -25 -10 -14 -9 -25 -13 -25 -9 0 4 -6 2 -13 -4 -8 -6 -17 -8 -20 -4 -4 3 -7 1 -7 -5 0 -6 -16 -19 -35 -28 -19 -9 -35 -21 -35 -27 0 -6 -3 -8 -6 -4 -4 3 -12 1 -20 -6 -33 -30 -42 -35 -48 -30 -3 4 -6 1 -6 -5 0 -5 -17 -21 -37 -33 -21 -13 -45 -30 -54 -39 -36 -31 -49 -41 -49 -34 0 4 -18 -11 -40 -34 -22 -22 -40 -38 -40 -36 0 3 -6 -1 -14 -8 -8 -7 -12 -16 -10 -19 2 -4 -5 -14 -16 -24 -11 -10 -20 -24 -20 -31 0 -7 -3 -14 -7 -16 -10 -4 -73 -85 -73 -93 0 -4 -6 -13 -13 -20 -27 -31 -32 -41 -34 -65 -2 -39 -14 -93 -24 -112 -5 -9 -10 -33 -11 -52 -2 -20 -6 -36 -9 -36 -6 0 -9 -13 -11 -64 -1 -19 -6 -32 -10 -30 -13 8 -17 -165 -4 -183 4 -7 6 -19 3 -27 -3 -7 0 -19 6 -25 6 -6 8 -11 4 -11 -4 0 -1 -13 7 -29 9 -16 13 -31 10 -33 -5 -5 21 -111 31 -128 3 -6 0 -10 -7 -10 -8 0 -7 -4 4 -10 9 -6 15 -19 13 -30 -2 -11 0 -22 5 -25 5 -3 7 -12 3 -20 -3 -8 -1 -15 3 -15 5 0 18 -18 28 -40 11 -22 23 -40 28 -40 4 0 8 -6 8 -14 0 -8 3 -16 8 -18 16 -7 61 -76 54 -83 -4 -5 -2 -5 4 -2 6 3 18 -8 28 -24 10 -17 35 -43 57 -58 21 -16 35 -32 31 -36 -4 -5 -2 -5 5 -1 7 4 21 -1 32 -11 33 -30 50 -43 56 -43 4 0 13 -7 22 -15 8 -8 19 -12 25 -9 6 4 8 3 5 -3 -4 -5 5 -16 18 -23 14 -7 25 -17 25 -22 0 -4 7 -8 15 -8 8 0 15 -4 15 -10 0 -5 7 -10 16 -10 8 0 22 -7 30 -15 9 -8 27 -18 42 -22 15 -3 33 -12 40 -19 7 -7 21 -11 31 -9 22 4 33 -15 21 -35 -4 -7 -6 -24 -4 -37 3 -15 1 -22 -6 -18 -6 4 -10 -5 -11 -22 -1 -31 -3 -42 -17 -90 -6 -17 -8 -34 -5 -37 3 -3 0 -12 -7 -21 -9 -10 -12 -51 -12 -133 0 -64 -4 -137 -9 -162 -6 -25 -13 -65 -17 -90 -4 -25 -7 -1273 -7 -2775 l0 -2730 22 -81 c105 -395 416 -686 803 -751 25 -5 3726 -8 8225 -8 l8180 0 82 22 c347 92 602 328 712 659 16 49 34 112 38 139 8 52 11 5438 3 5557 -3 38 -7 68 -10 68 -3 0 -5 10 -6 23 -1 19 -9 63 -14 77 -1 3 -3 10 -5 15 -1 6 -3 12 -4 15 -3 7 -10 41 -13 70 -2 14 -6 27 -9 30 -7 5 -12 56 -10 93 1 10 5 16 10 12 5 -3 13 0 16 6 4 5 13 8 20 5 7 -2 22 4 34 15 12 11 21 17 21 13 0 -4 11 5 25 20 14 15 25 24 25 20 0 -4 11 3 25 16 14 13 25 20 25 15 0 -4 11 4 24 18 13 14 27 23 30 20 3 -4 6 -1 6 5 0 6 9 13 19 17 11 3 23 15 26 26 4 10 10 17 14 15 9 -6 101 77 101 90 0 5 14 23 30 41 17 18 30 36 30 41 0 4 8 17 18 28 10 10 29 36 43 56 14 21 29 35 33 30 4 -4 7 -2 5 3 -3 14 24 105 31 105 3 0 5 12 4 28 -1 15 1 32 5 37 3 6 6 12 6 15 1 3 10 41 20 85 10 44 19 87 20 95 0 9 4 21 9 28 4 6 5 16 1 21 -3 5 0 13 6 17 8 4 7 9 -2 15 -10 6 -11 9 -2 9 9 0 11 14 7 53 -3 28 -7 63 -7 77 -1 14 -6 28 -11 31 -7 6 -12 28 -18 87 -1 6 -5 12 -10 12 -5 0 -7 4 -4 9 4 5 0 12 -6 14 -10 4 -10 6 0 6 7 1 10 5 7 11 -9 15 -18 52 -19 83 0 15 -4 27 -9 27 -4 0 -6 3 -5 8 1 4 -4 18 -11 31 -8 14 -9 21 -2 17 8 -5 8 0 -1 18 -6 14 -15 26 -20 26 -4 0 -8 5 -8 11 0 6 -6 17 -12 24 -30 34 -38 45 -32 45 4 0 -3 8 -14 19 -12 10 -22 23 -22 30 0 6 -4 11 -10 11 -5 0 -10 5 -10 11 0 7 -10 20 -22 30 -11 11 -18 19 -15 19 3 0 -19 25 -49 55 -31 30 -60 55 -65 55 -5 0 -9 3 -9 8 0 4 -18 18 -40 31 -21 14 -36 29 -33 34 3 6 1 7 -4 4 -6 -4 -27 7 -48 23 -20 16 -45 32 -56 35 -11 4 -17 10 -15 14 3 4 -7 8 -22 9 -15 1 -28 7 -30 12 -2 6 -12 10 -23 10 -10 0 -19 5 -19 10 0 6 -6 10 -14 10 -8 0 -36 10 -63 22 -26 12 -52 22 -58 22 -5 1 -12 4 -15 8 -3 4 -22 8 -43 10 -20 1 -37 5 -37 8 0 5 -27 10 -67 13 -7 0 -13 3 -13 7 0 3 -17 7 -37 8 -21 2 -40 7 -43 11 -3 4 -17 7 -32 7 -16 -1 -28 2 -28 7 0 4 -4 6 -9 2 -5 -3 -12 -1 -15 4 -3 5 -19 8 -36 7 -16 -1 -30 2 -30 7 0 4 -4 5 -10 2 -5 -3 -10 -2 -10 3 0 9 -36 9 -46 0 -3 -4 -20 0 -37 7 -18 7 -40 11 -49 10 -10 -2 -18 0 -18 3 0 4 -16 8 -37 9 -20 1 -41 7 -46 12 -7 7 -16 7 -29 0 -10 -5 -18 -6 -18 -1 0 5 -10 8 -22 8 -13 -1 -27 1 -33 4 -22 15 -46 20 -39 9 5 -8 2 -9 -12 -1 -11 6 -27 7 -41 1 -13 -5 -23 -5 -23 0 0 4 -12 7 -27 5 -16 -1 -36 5 -47 14 -14 13 -20 14 -23 4 -3 -6 -10 -9 -16 -5 -17 10 -41 10 -49 -1 -4 -6 -14 -4 -24 5 -9 8 -20 12 -23 10 -23 -14 -51 -19 -57 -10 -4 8 -10 7 -16 -2 -7 -11 -11 -11 -15 -2 -3 9 -10 10 -23 3 -13 -7 -21 -7 -25 0 -5 8 -11 8 -20 0 -8 -6 -16 -7 -19 -2 -6 10 -48 8 -65 -3 -6 -3 -11 -1 -11 6 0 9 -3 9 -14 0 -9 -8 -15 -8 -18 -2 -2 7 -13 5 -31 -4 -15 -8 -25 -9 -21 -4 4 7 -2 6 -16 -1 -12 -6 -24 -9 -27 -7 -2 3 -20 -1 -39 -9 -19 -8 -34 -11 -34 -8 0 4 -6 2 -12 -3 -7 -6 -20 -11 -28 -11 -8 -1 -28 -4 -45 -7 -16 -3 -38 -7 -47 -8 -10 -1 -18 -5 -18 -9 0 -4 -9 -5 -21 -3 -11 2 -28 0 -37 -5 -25 -13 -84 -37 -109 -45 -13 -3 -23 -11 -23 -16 0 -5 -7 -9 -15 -9 -8 0 -15 -4 -15 -9 0 -5 -11 -12 -25 -15 -14 -4 -23 -11 -20 -16 3 -6 0 -10 -8 -10 -8 0 -20 -7 -27 -15 -7 -8 -16 -12 -21 -9 -5 3 -9 -2 -9 -10 0 -9 -6 -16 -13 -16 -7 0 -39 -25 -70 -55 l-56 -55 -32 28 c-17 15 -43 40 -57 55 -15 16 -55 58 -89 95 -35 36 -63 70 -63 76 0 5 -3 7 -6 4 -7 -7 -54 39 -54 53 0 6 -4 7 -10 4 -5 -3 -10 2 -10 11 0 10 -2 15 -5 12 -3 -3 -23 12 -45 33 -22 22 -44 39 -48 39 -4 0 -29 19 -54 43 -56 52 -78 69 -78 63 0 -3 -11 6 -25 20 -14 14 -25 29 -25 35 0 6 -4 7 -10 4 -5 -3 -10 2 -10 11 0 10 -3 15 -6 11 -4 -3 -15 4 -25 16 -10 12 -18 19 -19 15 0 -4 -10 3 -23 15 -13 12 -33 29 -46 37 -13 8 -34 25 -47 38 -14 12 -28 22 -33 22 -4 0 -17 9 -29 20 -12 12 -22 17 -22 13 0 -4 -4 -3 -8 2 -13 19 -70 55 -86 55 -9 0 -16 4 -16 8 0 11 -35 52 -44 52 -4 0 -14 6 -21 13 -32 28 -45 37 -45 32 0 -3 -9 3 -19 13 -36 32 -50 42 -60 42 -5 0 -16 9 -24 20 -8 11 -17 17 -20 13 -4 -3 -7 -1 -7 6 0 7 -4 10 -8 7 -5 -3 -15 4 -22 15 -8 10 -20 19 -27 19 -7 0 -13 5 -13 10 0 6 -6 10 -14 10 -8 0 -16 4 -18 8 -4 10 -82 62 -123 82 -16 8 -39 23 -49 33 -11 9 -26 17 -33 17 -7 0 -13 4 -13 9 0 5 -13 14 -30 21 -16 7 -30 16 -30 21 0 5 -6 9 -13 9 -7 0 -22 8 -33 18 -28 24 -74 55 -109 72 -16 8 -35 21 -41 29 -6 8 -24 15 -40 17 -16 2 -30 8 -32 14 -2 5 -10 10 -17 10 -8 0 -21 7 -29 16 -9 8 -16 12 -16 8 0 -4 -9 1 -20 11 -10 9 -26 15 -35 12 -8 -4 -15 -3 -15 1 0 4 -25 18 -55 32 -30 14 -55 28 -55 32 0 5 -3 7 -7 7 -13 -3 -73 25 -73 33 0 4 -7 8 -15 8 -17 0 -56 20 -66 33 -3 5 -8 7 -10 6 -6 -4 -69 25 -69 31 0 3 -8 6 -17 7 -30 2 -73 22 -73 33 0 5 -3 9 -7 8 -9 -2 -82 21 -98 31 -5 3 -12 6 -15 7 -10 2 -46 17 -98 40 -60 28 -66 29 -56 12 4 -7 -2 -5 -13 5 -11 9 -23 14 -26 10 -4 -3 -7 -1 -7 7 0 10 -3 10 -15 0 -12 -10 -15 -10 -15 0 0 7 -7 10 -15 6 -8 -3 -15 -1 -15 5 0 6 -7 9 -15 5 -8 -3 -15 -2 -15 3 0 5 -11 7 -25 6 -14 -2 -25 0 -25 5 0 5 -8 7 -17 5 -10 -1 -22 0 -28 4 -5 3 -19 7 -30 8 -10 2 -22 8 -26 14 -5 8 -8 8 -13 0 -5 -7 -12 -7 -26 1 -10 7 -17 15 -14 19 2 4 -9 4 -26 -1 -19 -5 -28 -5 -25 1 4 5 -3 10 -14 10 -33 2 -39 4 -46 11 -4 4 -13 4 -21 1 -8 -3 -14 1 -14 8 0 7 -2 10 -5 7 -9 -9 -89 12 -97 25 -6 9 -8 9 -8 0 0 -9 -7 -10 -25 -3 -14 5 -25 7 -25 4 0 -4 -7 -1 -15 6 -8 7 -15 9 -15 5 0 -4 -6 -3 -12 3 -7 6 -16 10 -21 10 -25 -1 -97 14 -97 20 0 4 -12 7 -27 6 -16 -1 -32 1 -37 4 -6 3 -19 6 -30 7 -12 1 -37 6 -56 10 -19 4 -47 8 -62 8 -16 0 -28 5 -28 11 0 6 -5 4 -10 -4 -6 -9 -10 -10 -10 -3 0 6 -9 10 -20 8 -11 -2 -20 0 -20 6 0 5 -3 8 -7 7 -5 -1 -35 2 -68 6 -33 5 -78 10 -100 12 -55 5 -68 8 -83 18 -7 4 -19 2 -27 -4 -8 -7 -15 -8 -15 -3 0 5 -10 9 -22 8 -13 -1 -28 2 -35 7 -7 5 -17 7 -23 3 -5 -3 -15 -3 -21 1 -18 11 -89 10 -93 -1 -3 -5 -5 -4 -5 3 -1 6 -6 12 -12 12 -5 0 -7 -6 -4 -12 4 -7 1 -6 -7 2 -7 9 -25 15 -40 15 -16 -1 -28 3 -28 7 0 5 -9 4 -20 -2 -13 -7 -20 -7 -20 -1 0 7 -9 7 -26 1 -14 -6 -23 -6 -20 -2 5 9 -69 6 -84 -3 -6 -3 -10 -1 -10 5 0 8 -6 8 -20 0 -11 -6 -20 -7 -20 -2 0 5 -6 9 -12 9 -23 2 -93 15 -100 20 -5 2 -8 1 -8 -4 0 -9 -238 -8 -247 1 -4 3 -12 1 -19 -5 -8 -7 -14 -7 -19 1 -3 5 -19 10 -36 10 -16 0 -29 4 -29 9 0 6 -12 6 -27 2 -16 -4 -40 -6 -55 -5 -15 2 -30 -2 -34 -7 -4 -6 -11 -6 -20 2 -11 9 -14 9 -14 -1 0 -8 -6 -9 -17 -4 -10 4 -43 8 -73 10 -30 1 -57 3 -60 4 -3 1 -9 2 -14 1 -4 -1 -20 6 -33 15 -14 9 -23 12 -20 7 6 -10 -147 -8 -163 2 -6 3 -10 2 -10 -2 0 -5 -32 -8 -70 -7 -39 1 -72 -2 -75 -6 -2 -4 -24 -5 -47 -2 -24 3 -76 6 -115 6 -40 1 -73 4 -73 9 0 4 -47 7 -105 7 -77 0 -105 -3 -105 -12 0 -9 -4 -8 -10 2 -5 8 -10 10 -10 5 0 -7 -37 -8 -111 -2 -62 4 -145 4 -185 -1 -40 -4 -81 -5 -92 -1 -10 4 -25 3 -32 -1 -7 -5 -24 -4 -37 1 -15 6 -23 5 -23 -2 0 -8 -4 -8 -13 0 -10 8 -17 7 -25 -1 -9 -9 -12 -9 -12 0 0 14 -21 12 -32 -3 -5 -6 -8 -5 -8 3 0 9 -5 10 -19 2 -13 -6 -22 -7 -26 0 -4 6 -15 6 -30 0 -14 -5 -25 -6 -25 -1 0 9 -1285 13 -1293 4z"></path> </g> </svg> 