<?xml version="1.0" encoding="UTF-8"?> <svg xmlns="http://www.w3.org/2000/svg" width="1081" height="1081" viewBox="0 0 1081 1081" fill="none"> <path d="M540.067 1080.13C838.338 1080.13 1080.13 838.338 1080.13 540.067C1080.13 241.796 838.338 0 540.067 0C241.796 0 0 241.796 0 540.067C0 838.338 241.796 1080.13 540.067 1080.13Z" fill="url(#paint0_linear_3409_211)"></path> <path fill-rule="evenodd" clip-rule="evenodd" d="M805.839 385.224H767.294V385.01C767.286 378.264 764.602 371.796 759.832 367.025C755.061 362.255 748.593 359.571 741.847 359.562H650.58C643.834 359.571 637.366 362.255 632.596 367.025C627.825 371.796 625.142 378.264 625.133 385.01V385.224H467.937V385.01C467.928 378.264 465.245 371.796 460.474 367.025C455.704 362.255 449.236 359.571 442.489 359.562H351.216C344.47 359.571 338.002 362.255 333.232 367.025C328.461 371.796 325.778 378.264 325.769 385.01V385.224H275.368C244.265 385.224 218.961 414.982 218.961 451.557V678.44C218.961 715.015 244.265 744.772 275.368 744.772H325.769V744.987C325.778 751.733 328.461 758.201 333.232 762.971C338.002 767.742 344.47 770.425 351.216 770.434H442.489C449.236 770.425 455.704 767.742 460.474 762.971C465.245 758.201 467.928 751.733 467.937 744.987V744.772H625.133V744.987C625.142 751.733 627.825 758.201 632.596 762.971C637.366 767.742 643.834 770.425 650.58 770.434H741.86C748.606 770.425 755.073 767.741 759.842 762.971C764.612 758.2 767.294 751.732 767.301 744.987V744.772H805.846C836.948 744.772 862.253 715.015 862.253 678.44V451.557C862.246 414.982 836.948 385.224 805.839 385.224ZM644.633 385.01C644.633 381.734 647.298 379.062 650.58 379.062H741.853C745.136 379.062 747.801 381.734 747.801 385.01V404.939C747.801 408.215 745.136 410.887 741.86 410.887H650.58C649.004 410.885 647.492 410.258 646.377 409.143C645.262 408.028 644.635 406.516 644.633 404.939V385.01ZM696.223 580.77C686.35 580.77 678.322 572.743 678.322 562.87C678.322 552.996 686.35 544.969 696.223 544.969C706.097 544.969 714.124 552.996 714.124 562.87C714.124 572.743 706.097 580.77 696.223 580.77ZM625.133 404.724V404.939C625.142 411.685 627.825 418.153 632.596 422.924C637.366 427.694 643.834 430.378 650.58 430.387H686.473V526.801C680.175 528.517 674.434 531.848 669.818 536.464C665.202 541.08 661.871 546.821 660.155 553.12H446.071V523.408C446.071 520.822 445.044 518.342 443.215 516.514C441.387 514.685 438.907 513.658 436.321 513.658H406.603V430.387H442.489C449.236 430.378 455.704 427.694 460.474 422.924C465.245 418.153 467.928 411.685 467.937 404.939V404.724H625.133ZM367.141 592.587V533.158H426.571V562.804L426.564 562.87L426.571 562.935V592.594L367.141 592.587ZM345.269 385.01C345.269 381.734 347.94 379.062 351.216 379.062H442.489C445.765 379.062 448.437 381.734 448.437 385.01V404.939C448.433 406.515 447.806 408.026 446.691 409.141C445.577 410.255 444.066 410.883 442.489 410.887H351.216C349.64 410.883 348.129 410.255 347.015 409.141C345.9 408.026 345.272 406.515 345.269 404.939V385.01ZM275.368 725.272C255.016 725.272 238.461 704.264 238.461 678.44V451.557C238.461 425.733 255.016 404.724 275.368 404.724H325.769V404.939C325.778 411.685 328.461 418.153 333.232 422.924C338.002 427.694 344.47 430.378 351.216 430.387H387.103V513.658H357.391C354.806 513.658 352.326 514.685 350.497 516.514C348.669 518.342 347.641 520.822 347.641 523.408V602.337C347.641 604.923 348.669 607.403 350.497 609.232C352.326 611.06 354.806 612.087 357.391 612.087H387.103V699.61H351.216C344.47 699.619 338.002 702.302 333.232 707.073C328.461 711.843 325.778 718.311 325.769 725.058V725.272H275.368ZM448.437 744.987C448.435 746.563 447.808 748.075 446.693 749.19C445.578 750.305 444.066 750.932 442.489 750.934H351.216C349.64 750.932 348.128 750.305 347.013 749.19C345.898 748.075 345.271 746.563 345.269 744.987V725.058C345.269 721.775 347.94 719.11 351.216 719.11H442.489C445.765 719.11 448.437 721.775 448.437 725.058V744.987ZM467.937 725.272V725.058C467.928 718.311 465.245 711.843 460.474 707.073C455.704 702.302 449.236 699.619 442.489 699.61H406.603V612.087H436.321C438.907 612.087 441.387 611.06 443.215 609.232C445.044 607.403 446.071 604.923 446.071 602.337V572.619H660.161C661.877 578.918 665.208 584.659 669.824 589.275C674.44 593.891 680.181 597.222 686.48 598.938V699.61H650.587C643.84 699.619 637.373 702.302 632.602 707.073C627.832 711.843 625.148 718.311 625.139 725.058V725.272H467.937ZM747.801 744.987C747.801 748.269 745.136 750.934 741.86 750.934H650.58C649.003 750.934 647.49 750.307 646.375 749.192C645.26 748.077 644.633 746.564 644.633 744.987V725.058C644.633 721.775 647.298 719.11 650.58 719.11H741.853C745.136 719.11 747.801 721.775 747.801 725.058V744.987ZM842.746 678.44C842.746 704.264 826.191 725.272 805.839 725.272H767.294V725.058C767.286 718.311 764.602 711.843 759.832 707.073C755.061 702.302 748.593 699.619 741.847 699.61H705.967V598.938C721.872 594.635 733.618 580.121 733.618 562.87C733.618 545.619 721.872 531.111 705.967 526.801V430.387H741.853C748.599 430.378 755.066 427.694 759.836 422.923C764.605 418.153 767.288 411.685 767.294 404.939V404.724H805.839C826.191 404.724 842.746 425.733 842.746 451.557V678.44Z" fill="white"></path> <defs> <linearGradient id="paint0_linear_3409_211" x1="158.104" y1="921.896" x2="921.896" y2="158.104" gradientUnits="userSpaceOnUse"> <stop stop-color="#4D0000"></stop> <stop offset="1" stop-color="#F03224"></stop> </linearGradient> </defs> </svg> 