<?xml version="1.0" encoding="UTF-8"?> <!-- Creator: CorelDRAW --> <svg xmlns="http://www.w3.org/2000/svg" xmlns:xlink="http://www.w3.org/1999/xlink" xmlns:xodm="http://www.corel.com/coreldraw/odm/2003" xml:space="preserve" width="1080px" height="1080px" style="shape-rendering:geometricPrecision; text-rendering:geometricPrecision; image-rendering:optimizeQuality; fill-rule:evenodd; clip-rule:evenodd" viewBox="0 0 80.81 80.81"> <defs> <style type="text/css"> <![CDATA[ .fil1 {fill:#FEFEFE;fill-rule:nonzero} .fil2 {fill:white;fill-rule:nonzero} .fil0 {fill:url(#id0)} ]]> </style> <linearGradient id="id0" gradientUnits="userSpaceOnUse" x1="11.83" y1="68.98" x2="68.98" y2="11.83"> <stop offset="0" style="stop-opacity:1; stop-color:#4D0000"></stop> <stop offset="1" style="stop-opacity:1; stop-color:#F03224"></stop> </linearGradient> </defs> <g id="Слой_x0020_1"> <metadata id="CorelCorpID_0Corel-Layer"></metadata> <circle class="fil0" cx="40.41" cy="40.41" r="40.41"></circle> <g id="_1778880467104"> <path class="fil1" d="M38.64 51.51c-0.45,0 -0.81,-0.36 -0.81,-0.81 0,-0.44 0.36,-0.81 0.81,-0.81l9.91 0c0.02,-0.63 -0.06,-1.17 -0.22,-1.62 -0.16,-0.41 -0.4,-0.75 -0.73,-1 -0.72,-0.54 -1.71,-0.61 -2.7,-0.68 -0.43,-0.03 -0.85,-0.06 -1.27,-0.12 -0.81,-0.12 -1.64,-0.3 -2.49,-0.52 -0.84,-0.23 -1.7,-0.51 -2.59,-0.85 -2.91,-1.1 -4.84,-1.78 -6.86,-2.02 -1.88,-0.22 -3.89,-0.07 -6.9,0.46l0 13.3c2.72,0.62 5.68,0.99 8.86,1.11 3.44,0.13 7.15,-0.03 11.14,-0.49 2.39,-0.28 4.05,-0.53 5.63,-0.97 1.59,-0.45 3.14,-1.09 5.31,-2.14 1.22,-0.59 2.51,-1.31 3.88,-2.12 1.35,-0.81 2.81,-1.73 4.37,-2.72 0.51,-0.31 1.06,-0.91 1.32,-1.58 0.17,-0.42 0.21,-0.86 -0.01,-1.22 -0.76,-1.24 -2.45,-0.52 -3.57,-0.05 -0.21,0.09 -0.41,0.17 -0.5,0.21l-11.62 4.56c-0.11,0.05 -0.22,0.08 -0.35,0.08l-10.61 0zm11.52 -2.03l10.47 -4.11c0.2,-0.08 0.32,-0.14 0.46,-0.19 1.64,-0.69 4.1,-1.73 5.58,0.69 0.52,0.85 0.47,1.79 0.13,2.66 -0.4,0.99 -1.21,1.88 -1.95,2.35 -1.55,0.98 -3.01,1.9 -4.42,2.74 -1.4,0.83 -2.72,1.57 -4,2.18 -2.26,1.1 -3.89,1.77 -5.57,2.24 -1.69,0.47 -3.42,0.74 -5.89,1.02 -4.05,0.47 -7.84,0.64 -11.37,0.5 -3.18,-0.12 -6.14,-0.48 -8.88,-1.08 -0.06,0.17 -0.16,0.33 -0.29,0.46l0 0c-0.22,0.22 -0.52,0.36 -0.86,0.36l-5.76 0c-0.33,0 -0.63,-0.14 -0.85,-0.36l-0.01 0c-0.21,-0.22 -0.35,-0.52 -0.35,-0.86l0 -16.37c0,-0.34 0.14,-0.64 0.35,-0.86l0.01 0c0.22,-0.22 0.52,-0.36 0.85,-0.36l5.76 0c0.34,0 0.64,0.14 0.86,0.36l0 0c0.22,0.22 0.36,0.52 0.36,0.86l0 0.19c3.02,-0.52 5.1,-0.66 7.09,-0.42 2.19,0.26 4.21,0.97 7.24,2.11 0.83,0.32 1.64,0.58 2.44,0.79 0.79,0.22 1.55,0.38 2.3,0.49 0.37,0.05 0.76,0.08 1.14,0.11 1.24,0.08 2.48,0.17 3.58,1.01 0.57,0.44 0.99,1.01 1.26,1.71 0.19,0.53 0.3,1.12 0.32,1.78zm-26.99 -7.37l-4.95 0 0 15.57 4.95 0 0 -15.57z"></path> <path class="fil2" d="M41.83 19.92c0.67,-1.13 1.39,-2.04 2.25,-2.72 1.23,-0.98 2.68,-1.48 4.6,-1.48 2.13,0 4.06,0.87 5.45,2.26 1.4,1.4 2.26,3.33 2.26,5.46 0,5.33 -3.69,8.46 -8.41,12.47 -1.74,1.48 -3.63,3.09 -5.54,5 -0.34,0.33 -0.88,0.33 -1.22,0 -1.91,-1.91 -3.8,-3.52 -5.54,-5 -4.72,-4.01 -8.41,-7.14 -8.41,-12.47 0,-2.13 0.86,-4.06 2.26,-5.46 1.39,-1.39 3.32,-2.26 5.45,-2.26 1.92,0 3.37,0.5 4.6,1.48 0.85,0.68 1.57,1.59 2.25,2.72zm3.32 -1.38c-0.96,0.77 -1.75,1.96 -2.55,3.57 -0.08,0.16 -0.21,0.3 -0.39,0.38 -0.42,0.21 -0.94,0.04 -1.15,-0.38 -0.8,-1.61 -1.59,-2.8 -2.55,-3.57 -0.91,-0.73 -2.02,-1.09 -3.53,-1.09 -1.65,0 -3.15,0.67 -4.23,1.75 -1.09,1.09 -1.76,2.58 -1.76,4.24 0,4.53 3.42,7.44 7.8,11.16 1.6,1.36 3.32,2.82 5.04,4.49 1.72,-1.67 3.44,-3.13 5.04,-4.49 4.37,-3.72 7.8,-6.63 7.8,-11.16 0,-1.66 -0.67,-3.15 -1.76,-4.24 -1.08,-1.08 -2.58,-1.75 -4.23,-1.75 -1.51,0 -2.62,0.36 -3.53,1.09z"></path> </g> </g> </svg> 