<?xml version="1.0" encoding="UTF-8"?> <svg xmlns="http://www.w3.org/2000/svg" width="1080" height="1080" viewBox="0 0 1080 1080" fill="none"> <path d="M539.922 1079.84C838.113 1079.84 1079.84 838.113 1079.84 539.922C1079.84 241.732 838.113 0 539.922 0C241.732 0 0 241.732 0 539.922C0 838.113 241.732 1079.84 539.922 1079.84Z" fill="url(#paint0_linear_3406_116)"></path> <path fill-rule="evenodd" clip-rule="evenodd" d="M616.506 546.98L667.219 497.554C669.604 495.259 671.294 492.338 672.096 489.126C672.897 485.913 672.777 482.54 671.749 479.393C670.743 476.222 668.862 473.399 666.324 471.249C663.785 469.099 660.691 467.709 657.397 467.238L587.243 457.072L555.906 393.496C554.442 390.526 552.174 388.027 549.36 386.283C546.546 384.538 543.299 383.619 539.988 383.629L539.936 383.635C536.63 383.632 533.39 384.559 530.585 386.309C527.781 388.06 525.525 390.564 524.076 393.535L492.746 457.066L422.611 467.238C419.305 467.716 416.203 469.118 413.661 471.284C411.119 473.45 409.242 476.29 408.246 479.478C407.23 482.611 407.118 485.966 407.924 489.159C408.73 492.353 410.421 495.253 412.802 497.528L463.522 546.967L451.503 617.128C450.939 620.382 451.296 623.729 452.533 626.791C453.77 629.853 455.838 632.508 458.504 634.457C461.14 636.403 464.265 637.576 467.53 637.846C470.795 638.116 474.07 637.471 476.99 635.985L541.47 603.348L602.687 635.523C605.621 637.087 608.938 637.792 612.255 637.556C615.572 637.321 618.755 636.154 621.439 634.191C624.133 632.25 626.225 629.589 627.475 626.514C628.726 623.439 629.085 620.073 628.511 616.803L616.506 546.98ZM596.421 545.225L608.693 616.667L546.085 583.764C544.709 583.04 543.179 582.656 541.625 582.644C540.07 582.631 538.535 582.991 537.147 583.692L471.296 617.018L483.594 545.219C483.86 543.661 483.743 542.062 483.254 540.56C482.765 539.057 481.918 537.696 480.786 536.593L428.922 486.03L500.611 475.63C502.176 475.403 503.663 474.799 504.942 473.869C506.222 472.939 507.256 471.712 507.956 470.293L539.994 405.332L572.013 470.293C573.43 473.173 576.18 475.175 579.358 475.63L651.112 486.03L599.229 536.593C598.096 537.697 597.248 539.059 596.759 540.563C596.27 542.067 596.154 543.667 596.421 545.225ZM848.562 584.076C847.698 581.353 846.083 578.929 843.903 577.082C841.723 575.235 839.066 574.041 836.238 573.637L789.945 566.935L769.243 524.965C767.988 522.418 766.043 520.275 763.63 518.78C761.217 517.285 758.432 516.498 755.593 516.508H755.554C752.718 516.503 749.937 517.296 747.531 518.798C745.125 520.299 743.191 522.448 741.949 524.997L721.266 566.935L674.934 573.643C672.115 574.059 669.469 575.261 667.301 577.111C665.133 578.96 663.53 581.383 662.675 584.102C661.807 586.79 661.711 589.668 662.4 592.408C663.088 595.148 664.533 597.639 666.569 599.598L700.05 632.254L692.12 678.54C691.631 681.318 691.926 684.176 692.973 686.795C694.021 689.413 695.778 691.687 698.048 693.36C700.313 695.051 703.005 696.073 705.82 696.313C708.635 696.554 711.462 696.001 713.98 694.719L756.607 673.145L796.991 694.394C799.517 695.74 802.373 696.342 805.228 696.131C808.082 695.919 810.818 694.902 813.118 693.198C815.41 691.539 817.186 689.267 818.243 686.643C819.3 684.019 819.594 681.149 819.091 678.365L811.2 632.254L844.662 599.617C846.707 597.655 848.157 595.156 848.847 592.408C849.537 589.659 849.438 586.771 848.562 584.076ZM793.923 621.867C792.793 622.971 791.948 624.332 791.46 625.835C790.972 627.337 790.856 628.935 791.122 630.492L798.415 673.106L761.235 653.548C759.86 652.82 758.331 652.433 756.775 652.42C755.22 652.406 753.684 652.766 752.297 653.47L712.784 673.47L720.148 630.492C720.414 628.935 720.298 627.337 719.81 625.835C719.322 624.332 718.477 622.971 717.347 621.867L686.4 591.681L729.151 585.486C732.329 585.031 735.079 583.029 736.496 580.15L755.612 541.384L774.729 580.15C776.146 583.029 778.895 585.031 782.074 585.486L824.863 591.681L793.923 621.867ZM405.009 573.63L358.716 566.929L338.013 524.958C336.759 522.412 334.814 520.268 332.401 518.773C329.987 517.278 327.202 516.491 324.363 516.502H324.324C321.486 516.497 318.704 517.292 316.296 518.796C313.889 520.3 311.954 522.451 310.713 525.004L290.037 566.929L243.705 573.637C240.882 574.054 238.233 575.257 236.061 577.109C233.89 578.961 232.284 581.387 231.426 584.108C230.557 586.794 230.461 589.67 231.148 592.408C231.836 595.145 233.279 597.635 235.313 599.591L268.801 632.247L260.891 678.527C260.4 681.306 260.695 684.166 261.742 686.785C262.789 689.405 264.548 691.68 266.819 693.354C269.082 695.043 271.774 696.065 274.588 696.304C277.402 696.543 280.228 695.989 282.744 694.706L325.358 673.139L365.762 694.387C368.28 695.733 371.127 696.338 373.975 696.131C376.822 695.924 379.553 694.913 381.849 693.217C384.15 691.559 385.936 689.285 387.001 686.656C388.066 684.027 388.367 681.151 387.868 678.358L379.977 632.247L413.433 599.611C415.474 597.648 416.922 595.15 417.611 592.403C418.3 589.655 418.201 586.77 417.326 584.076C416.462 581.354 414.848 578.93 412.669 577.082C410.491 575.235 407.836 574.039 405.009 573.63ZM362.694 621.867C361.564 622.971 360.719 624.332 360.231 625.835C359.743 627.337 359.627 628.935 359.892 630.492L367.185 673.106L329.986 653.541C328.61 652.816 327.08 652.431 325.525 652.42C323.97 652.408 322.434 652.771 321.048 653.476L281.554 673.464L288.899 630.492C289.165 628.935 289.049 627.337 288.561 625.835C288.073 624.332 287.228 622.971 286.098 621.867L255.151 591.681L297.921 585.486C301.1 585.031 303.849 583.029 305.266 580.15L324.383 541.384L343.499 580.15C344.916 583.029 347.666 585.031 350.844 585.486L393.634 591.681L362.694 621.867Z" fill="white"></path> <defs> <linearGradient id="paint0_linear_3406_116" x1="158.098" y1="921.747" x2="921.747" y2="158.098" gradientUnits="userSpaceOnUse"> <stop stop-color="#4D0000"></stop> <stop offset="1" stop-color="#F03224"></stop> </linearGradient> </defs> </svg> 