<?xml version="1.0" encoding="UTF-8"?> <svg xmlns="http://www.w3.org/2000/svg" viewBox="0 0 100 100" fill-rule="evenodd"><rect x="0" y="0" width="100" height="100" fill="#f2f4f4" rx="50" ry="50"></rect><g style="transform-origin: center center; transform: scale(0.6);"><path d="M95.665 40.723H88.59a1.5 1.5 0 0 0-1.5 1.5v10.522h-6.341l-9.445-11.451a1.5 1.5 0 0 0-1.157-.545H55.045v-7.887a1.5 1.5 0 0 0-1.5-1.5H39.851v-5.363h13.79a1.5 1.5 0 1 0 0-3h-30.58a1.5 1.5 0 1 0 0 3h13.79v5.363h-13.79a1.5 1.5 0 0 0-1.5 1.5v7.887h-7.887a1.5 1.5 0 0 0-1.5 1.5v10.997H5.805v-8.957a1.5 1.5 0 1 0-3 0v20.914a1.5 1.5 0 1 0 3 0v-8.957h6.369v12.57a1.5 1.5 0 0 0 1.5 1.5h8.821l5.248 7.078c.283.381.73.606 1.205.606h51.094a1.5 1.5 0 0 0 1.5-1.5V62.63h5.548v10.363a1.5 1.5 0 0 0 1.5 1.5h7.075a1.5 1.5 0 0 0 1.5-1.5v-30.77a1.5 1.5 0 0 0-1.5-1.5zM80.042 59.63a1.5 1.5 0 0 0-1.5 1.5V75H29.703l-5.248-7.078a1.499 1.499 0 0 0-1.205-.606h-8.076V43.749h7.887a1.5 1.5 0 0 0 1.5-1.5v-7.887h27.484v7.887a1.5 1.5 0 0 0 1.5 1.5H69.44L78.885 55.2c.285.346.709.546 1.157.546h7.048v3.885h-7.048zm14.123 11.863H90.09v-27.77h4.075v27.77z" fill="#f97f02"></path></g></svg> 