<?xml version="1.0" encoding="UTF-8"?> <svg xmlns="http://www.w3.org/2000/svg" width="1080" height="1080" viewBox="0 0 1080 1080" fill="none"> <path d="M539.922 1079.84C838.113 1079.84 1079.84 838.113 1079.84 539.922C1079.84 241.732 838.113 0 539.922 0C241.732 0 0 241.732 0 539.922C0 838.113 241.732 1079.84 539.922 1079.84Z" fill="url(#paint0_linear_3406_108)"></path> <path fill-rule="evenodd" clip-rule="evenodd" d="M769.449 347.144L547.149 249.644C545.921 249.1 544.592 248.818 543.249 248.818C541.905 248.818 540.577 249.1 539.349 249.644L317.049 347.144C315.252 347.908 313.731 349.2 312.686 350.848C311.641 352.497 311.122 354.424 311.199 356.374L321.339 644.779C324.019 678.432 335.687 710.748 355.125 738.35C374.563 765.951 401.057 787.827 431.839 801.689L539.349 850.244C540.607 850.845 541.984 851.156 543.379 851.156C544.773 851.156 546.15 850.845 547.409 850.244L654.919 801.689C685.764 787.79 712.301 765.844 731.743 738.156C751.186 710.468 762.818 678.057 765.419 644.324L775.559 356.374C775.615 354.394 775.058 352.445 773.964 350.793C772.871 349.141 771.294 347.866 769.449 347.144ZM745.724 643.219C743.342 673.384 732.905 702.357 715.503 727.111C698.101 751.865 674.372 771.492 646.794 783.944L543.249 830.679L439.704 783.944C412.247 771.547 388.603 752.035 371.221 727.43C353.838 702.825 343.349 674.02 340.839 643.999L330.894 362.354L543.249 269.339L755.604 362.354L745.724 643.219Z" fill="white"></path> <path fill-rule="evenodd" clip-rule="evenodd" d="M475 426.12V462H406.75C404.164 462 401.684 463.027 399.856 464.855C398.027 466.684 397 469.164 397 471.75V660.25C397 662.835 398.027 665.315 399.856 667.144C401.684 668.972 404.164 670 406.75 670H679.75C682.336 670 684.816 668.972 686.644 667.144C688.473 665.315 689.5 662.835 689.5 660.25V471.75C689.5 469.164 688.473 466.684 686.644 464.855C684.816 463.027 682.336 462 679.75 462H611.5V423.845C611.49 414.543 609.583 405.342 605.894 396.803C602.206 388.265 596.815 380.568 590.05 374.185C583.281 367.75 575.253 362.788 566.471 359.61C557.689 356.433 548.344 355.11 539.025 355.725C521.406 357.127 504.982 365.184 493.09 378.259C481.198 391.335 474.73 408.447 475 426.12ZM670 650.5H416.5V481.5H670V650.5ZM576.66 388.355C581.524 392.895 585.397 398.39 588.036 404.498C590.676 410.605 592.026 417.191 592 423.845V462H494.5V426.12C494.217 413.442 498.757 401.129 507.203 391.669C515.649 382.21 527.371 376.309 540 375.16C546.691 374.708 553.402 375.648 559.712 377.919C566.021 380.19 571.792 383.743 576.66 388.355Z" fill="white"></path> <path fill-rule="evenodd" clip-rule="evenodd" d="M543.25 514.324C535.588 514.461 528.221 517.3 522.45 522.34C516.678 527.381 512.873 534.299 511.707 541.872C510.541 549.446 512.088 557.188 516.075 563.731C520.063 570.275 526.234 575.199 533.5 577.634V608.249C533.5 610.835 534.527 613.315 536.355 615.144C538.184 616.972 540.664 617.999 543.25 617.999C545.836 617.999 548.316 616.972 550.144 615.144C551.973 613.315 553 610.835 553 608.249V577.634C560.265 575.199 566.437 570.275 570.424 563.731C574.412 557.188 575.959 549.446 574.793 541.872C573.626 534.299 569.821 527.381 564.05 522.34C558.278 517.3 550.911 514.461 543.25 514.324ZM543.25 559.824C540.679 559.824 538.165 559.062 536.027 557.633C533.889 556.205 532.223 554.175 531.239 551.799C530.255 549.424 529.998 546.81 530.5 544.288C531.001 541.766 532.239 539.45 534.057 537.632C535.875 535.814 538.192 534.576 540.714 534.074C543.235 533.572 545.849 533.83 548.225 534.814C550.6 535.798 552.63 537.464 554.059 539.602C555.487 541.74 556.25 544.253 556.25 546.824C556.25 550.272 554.88 553.579 552.442 556.017C550.004 558.455 546.698 559.824 543.25 559.824Z" fill="white"></path> <defs> <linearGradient id="paint0_linear_3406_108" x1="158.098" y1="921.747" x2="921.747" y2="158.098" gradientUnits="userSpaceOnUse"> <stop stop-color="#4D0000"></stop> <stop offset="1" stop-color="#F03224"></stop> </linearGradient> </defs> </svg> 