<?xml version="1.0" encoding="UTF-8"?> <svg xmlns="http://www.w3.org/2000/svg" width="1081" height="1081" viewBox="0 0 1081 1081" fill="none"> <path d="M540.067 1080.13C838.338 1080.13 1080.13 838.338 1080.13 540.067C1080.13 241.796 838.338 0 540.067 0C241.796 0 0 241.796 0 540.067C0 838.338 241.796 1080.13 540.067 1080.13Z" fill="url(#paint0_linear_3409_209)"></path> <path fill-rule="evenodd" clip-rule="evenodd" d="M838.348 395.237H758.054V358.168C758.054 355.582 757.027 353.102 755.198 351.274C753.37 349.445 750.89 348.418 748.304 348.418H637.414C634.828 348.418 632.348 349.445 630.52 351.274C628.691 353.102 627.664 355.582 627.664 358.168V395.237H457.188V358.168C457.188 355.582 456.161 353.102 454.333 351.274C452.504 349.445 450.024 348.418 447.438 348.418H336.548C333.963 348.418 331.483 349.445 329.654 351.274C327.826 353.102 326.798 355.582 326.798 358.168V395.237H241.648C239.063 395.237 236.583 396.265 234.754 398.093C232.926 399.922 231.898 402.402 231.898 404.987V742.825C231.898 745.411 232.926 747.891 234.754 749.719C236.583 751.548 239.063 752.575 241.648 752.575H838.348C840.934 752.575 843.414 751.548 845.243 749.719C847.071 747.891 848.098 745.411 848.098 742.825V404.987C848.098 402.402 847.071 399.922 845.243 398.093C843.414 396.265 840.934 395.237 838.348 395.237ZM647.164 367.918H738.554V395.237H647.164V367.918ZM346.298 367.918H437.688V395.237H346.298V367.918ZM828.598 733.075H251.398V414.737H828.598V733.075Z" fill="white"></path> <path fill-rule="evenodd" clip-rule="evenodd" d="M336.551 583.66H447.441C450.027 583.66 452.507 582.633 454.335 580.804C456.164 578.976 457.191 576.496 457.191 573.91C457.191 571.324 456.164 568.844 454.335 567.016C452.507 565.187 450.027 564.16 447.441 564.16H336.551C333.965 564.16 331.485 565.187 329.656 567.016C327.828 568.844 326.801 571.324 326.801 573.91C326.801 576.496 327.828 578.976 329.656 580.804C331.485 582.633 333.965 583.66 336.551 583.66ZM637.416 583.66H683.105V629.355C683.105 631.941 684.132 634.421 685.96 636.249C687.789 638.078 690.269 639.105 692.855 639.105C695.441 639.105 697.921 638.078 699.749 636.249C701.578 634.421 702.605 631.941 702.605 629.355V583.66H748.3C750.886 583.66 753.366 582.633 755.194 580.804C757.023 578.976 758.05 576.496 758.05 573.91C758.05 571.324 757.023 568.844 755.194 567.016C753.366 565.187 750.886 564.16 748.3 564.16H702.605V518.465C702.605 515.879 701.578 513.399 699.749 511.571C697.921 509.742 695.441 508.715 692.855 508.715C690.269 508.715 687.789 509.742 685.96 511.571C684.132 513.399 683.105 515.879 683.105 518.465V564.16H637.416C634.83 564.16 632.35 565.187 630.522 567.016C628.693 568.844 627.666 571.324 627.666 573.91C627.666 576.496 628.693 578.976 630.522 580.804C632.35 582.633 634.83 583.66 637.416 583.66Z" fill="white"></path> <defs> <linearGradient id="paint0_linear_3409_209" x1="158.104" y1="921.896" x2="921.896" y2="158.104" gradientUnits="userSpaceOnUse"> <stop stop-color="#4D0000"></stop> <stop offset="1" stop-color="#F03224"></stop> </linearGradient> </defs> </svg> 