<?xml version="1.0" encoding="UTF-8"?> <!-- Creator: CorelDRAW --> <svg xmlns="http://www.w3.org/2000/svg" xmlns:xlink="http://www.w3.org/1999/xlink" xmlns:xodm="http://www.corel.com/coreldraw/odm/2003" xml:space="preserve" width="1080px" height="1080px" style="shape-rendering:geometricPrecision; text-rendering:geometricPrecision; image-rendering:optimizeQuality; fill-rule:evenodd; clip-rule:evenodd" viewBox="0 0 189.8 189.8"> <defs> <style type="text/css"> <![CDATA[ .fil1 {fill:#FEFEFE;fill-rule:nonzero} .fil0 {fill:url(#id0)} ]]> </style> <linearGradient id="id0" gradientUnits="userSpaceOnUse" x1="27.8" y1="162.01" x2="162.01" y2="27.8"> <stop offset="0" style="stop-opacity:1; stop-color:#4D0000"></stop> <stop offset="1" style="stop-opacity:1; stop-color:#F03224"></stop> </linearGradient> </defs> <g id="Слой_x0020_1"> <metadata id="CorelCorpID_0Corel-Layer"></metadata> <circle class="fil0" cx="94.9" cy="94.9" r="94.9"></circle> <path class="fil1" d="M99.13 43.72l-19.16 0c-2.01,0 -3.83,0.82 -5.16,2.14 -1.32,1.33 -2.14,3.15 -2.14,5.16l0 2.74 33.76 0 0 -2.74c0,-2.01 -0.82,-3.83 -2.15,-5.16 -1.32,-1.32 -3.15,-2.14 -5.15,-2.14zm-55.43 53.36l0 18.95c0,1.38 0.56,2.64 1.47,3.54l0 0.01c0.91,0.9 2.16,1.47 3.55,1.47l36.42 0c-0.21,-1.46 -0.34,-2.93 -0.37,-4.44l0 -0.06 -0.01 -0.23 0 -0.09c0,-0.15 0,-0.29 0,-0.43l0 -0.25 0 -0.04 0 -0.05 0 -0.17 0 -0.07 0 -0.02 0.01 -0.24 0 -0.03 0 -0.02 0.01 -0.26 0 -0.01 0 -0.02 0 -0.17 0.01 -0.16 0 -0.01 0.01 -0.17 0 -0.15 0.01 -0.02c0,-0.17 0.01,-0.33 0.02,-0.5l0.01 -0.16c0.37,-5.25 1.86,-10.19 4.23,-14.59l-40.35 0 -0.09 0 -0.02 0 -0.01 0 -0.1 0 -0.04 0 -0.08 0 -0.01 0 -0.09 -0.01 -0.01 0 -0.07 0 -0.04 -0.01 -0.05 0 -0.06 0 -0.03 -0.01 -0.07 0 -0.01 0 -0.09 -0.01 -0.01 0 -0.07 -0.01 -0.04 0 -0.01 -0.01 -0.09 -0.01 -0.01 0 -0.02 0 -0.09 -0.01 0 0 -0.08 -0.01 -0.02 -0.01 -0.06 -0.01 -0.05 -0.01 -0.04 0 -0.07 -0.01 -0.01 -0.01 -0.08 -0.01 -0.01 0 -0.08 -0.02 -0.03 0 -0.05 -0.01 -0.06 -0.02 -0.02 0 -0.08 -0.02 0 0 -0.1 -0.03 -0.07 -0.01 -0.04 -0.01 -0.04 -0.01 -0.06 -0.02 -0.02 0 -0.08 -0.03 0 0 -0.08 -0.02 -0.03 -0.01 -0.05 -0.01 -0.05 -0.02 -0.03 -0.01 -0.07 -0.02 -0.01 0 -0.08 -0.03 -0.01 0 -0.07 -0.03 -0.03 -0.01 -0.04 -0.02 -0.06 -0.02 -0.02 0 -0.08 -0.03 0 0 -0.08 -0.03 -0.02 -0.01 -0.05 -0.02 -0.04 -0.02 -0.04 -0.02 -0.06 -0.02 -0.02 -0.01 -0.07 -0.03 -0.01 0 -0.07 -0.03 -0.03 -0.02 -0.04 -0.02 -0.05 -0.02 -0.03 -0.01 -0.07 -0.04 0 0 -0.08 -0.03 -0.01 -0.01 -0.06 -0.03 -0.03 -0.02 -0.04 -0.02 -0.08 -0.04 -0.07 -0.04 0 0 -0.07 -0.04 -0.02 -0.01 -0.05 -0.03 -0.04 -0.02 -0.03 -0.02 -0.06 -0.03 -0.01 -0.01 -0.07 -0.04 -0.01 -0.01 -0.06 -0.03 -0.03 -0.02 -0.04 -0.03 -0.05 -0.03 -0.02 -0.01 -0.07 -0.04 0 -0.01 -0.07 -0.04 -0.01 -0.01 -0.06 -0.04 -0.03 -0.02 -0.03 -0.03 -0.06 -0.03 -0.01 -0.01zm42.16 27.62l-37.14 0c-2.38,0 -4.55,-0.98 -6.12,-2.55l-0.01 -0.01c-1.57,-1.57 -2.54,-3.73 -2.54,-6.11l0 -26.01 0 -27.6c0,-2.37 0.97,-4.54 2.54,-6.11l0.01 -0.01c1.57,-1.57 3.74,-2.54 6.12,-2.54l20.3 0 0 -2.74c0,-3.01 1.23,-5.75 3.21,-7.74 1.99,-1.98 4.72,-3.21 7.74,-3.21l19.16 0c3.01,0 5.75,1.23 7.73,3.21 1.99,1.99 3.22,4.73 3.22,7.74l0 2.74 20.3 0c2.38,0 4.54,0.97 6.12,2.54l0 0.01c1.57,1.57 2.55,3.74 2.55,6.11l0 22.3c2.64,1.55 5.07,3.44 7.23,5.6 6.53,6.52 10.56,15.53 10.56,25.48 0,9.95 -4.03,18.96 -10.56,25.48 -6.52,6.53 -15.53,10.56 -25.48,10.56 -9.95,0 -18.96,-4.03 -25.49,-10.56 -4.51,-4.51 -7.83,-10.2 -9.45,-16.58zm34.52 -44.94c0.14,0 0.28,0 0.42,0 0.45,0 0.91,0.01 1.36,0.02l0.03 0.01 0.05 0 0.37 0.01 0.04 0.01 0.02 0 0.02 0 0.39 0.02 0.01 0 0.02 0 0.13 0.01 0.3 0.02 0.09 0.01 0.33 0.03 0.12 0.01 0.34 0.03 0.15 0.01 0.23 0.03 0.27 0.03 0.14 0.02 0.28 0.03 0.14 0.02 0.03 0.01c0.12,0.01 0.25,0.03 0.37,0.05l0.03 0c3.28,0.48 6.41,1.4 9.34,2.7l0 -20.42c0,-1.38 -0.57,-2.63 -1.47,-3.54l-0.01 -0.01c-0.9,-0.9 -2.16,-1.46 -3.54,-1.46l-20.3 0 -41.06 0 -20.3 0c-1.39,0 -2.64,0.56 -3.55,1.46l0 0.01c-0.91,0.91 -1.47,2.16 -1.47,3.54l0 27.6c0,1.39 0.56,2.64 1.47,3.55l0 0c0.91,0.91 2.16,1.47 3.55,1.47l42.61 0c1.19,-1.69 2.53,-3.27 3.98,-4.72 5.77,-5.77 13.48,-9.59 22.06,-10.4l0.02 0 0.28 -0.03 0.28 -0.02 0.23 -0.02 0.12 0c0.12,-0.01 0.25,-0.02 0.38,-0.03l0.16 -0.01 0.19 -0.01 0.34 -0.01 0.04 0 0.07 -0.01 0.32 -0.01 0.1 0 0.39 -0.01 0.09 0zm23.32 13.14c-5.49,-5.5 -12.94,-9.02 -21.22,-9.45l-0.01 0 -0.02 0c-0.26,-0.01 -0.53,-0.02 -0.8,-0.03l-0.03 0c-0.13,0 -0.26,-0.01 -0.39,-0.01l-0.01 0 -0.03 0c-0.13,0 -0.26,0 -0.39,0 -0.13,0 -0.25,0 -0.38,0l-0.07 0 -0.36 0.01 -0.09 0c-0.25,0.01 -0.5,0.02 -0.75,0.03l-0.05 0c-8.27,0.43 -15.72,3.96 -21.21,9.45 -5.49,5.49 -9.02,12.95 -9.44,21.23l0 0c-0.01,0.27 -0.02,0.54 -0.03,0.81l0 0.02 0 0.08 -0.01 0.3 0 0.04 0 0.01c0,0.14 0,0.27 0,0.41 0,8.95 3.62,17.04 9.48,22.9 5.87,5.87 13.96,9.49 22.91,9.49 8.94,0 17.04,-3.62 22.9,-9.49 5.86,-5.86 9.49,-13.95 9.49,-22.9 0,-8.94 -3.63,-17.04 -9.49,-22.9zm-26.32 9.44c0,-1.01 0.81,-1.82 1.82,-1.82 1.01,0 1.83,0.81 1.83,1.82l0 13.92 9.81 0c1,0 1.82,0.81 1.82,1.82 0,1.01 -0.82,1.83 -1.82,1.83l-13.46 0 0 -17.57zm3.42 -14.14c7.62,0 14.52,3.09 19.52,8.08 4.99,5 8.08,11.9 8.08,19.52 0,7.62 -3.09,14.52 -8.08,19.52 -5,4.99 -11.9,8.08 -19.52,8.08 -7.62,0 -14.52,-3.09 -19.52,-8.08 -4.99,-5 -8.08,-11.9 -8.08,-19.52 0,-7.62 3.09,-14.52 8.08,-19.52 5,-4.99 11.9,-8.08 19.52,-8.08zm16.93 10.66c-4.33,-4.33 -10.32,-7.01 -16.93,-7.01 -6.62,0 -12.6,2.68 -16.94,7.01 -4.33,4.34 -7.01,10.33 -7.01,16.94 0,6.61 2.68,12.6 7.01,16.94 4.34,4.33 10.32,7.01 16.94,7.01 6.61,0 12.6,-2.68 16.93,-7.01 4.34,-4.34 7.02,-10.33 7.02,-16.94 0,-6.61 -2.68,-12.6 -7.02,-16.94zm-55.25 -20.47c-1.01,0 -1.83,-0.82 -1.83,-1.82 0,-1.01 0.82,-1.83 1.83,-1.83l14.14 0c1.01,0 1.82,0.82 1.82,1.83 0,1 -0.81,1.82 -1.82,1.82l-14.14 0z"></path> </g> </svg> 