<?xml version="1.0" encoding="UTF-8"?> <svg xmlns="http://www.w3.org/2000/svg" width="1081" height="1081" viewBox="0 0 1081 1081" fill="none"> <path d="M540.067 1080.13C838.338 1080.13 1080.13 838.338 1080.13 540.067C1080.13 241.796 838.338 0 540.067 0C241.796 0 0 241.796 0 540.067C0 838.338 241.796 1080.13 540.067 1080.13Z" fill="url(#paint0_linear_3409_210)"></path> <path fill-rule="evenodd" clip-rule="evenodd" d="M751.247 484.1C712.247 450.95 661.547 430.8 606.297 430.8C589.397 430.8 573.147 432.75 557.547 436C549.097 392.45 515.947 360.6 460.697 344.35C419.097 332 379.447 333.3 378.147 333.3C372.947 333.3 369.047 337.85 368.397 343.05C368.397 348.25 372.297 352.8 377.497 352.8C411.947 354.75 421.047 398.3 423.647 411.3C428.847 443.8 421.047 469.15 415.197 471.1C409.347 473.7 402.197 472.4 395.047 469.15C379.447 461.35 358.647 438.6 346.947 397C316.397 296.25 239.047 303.4 237.747 303.4C233.197 304.05 229.297 307.95 229.297 312.5C229.297 317.05 231.897 321.6 237.097 322.9C278.047 332 269.597 400.25 262.447 460.7C259.847 483.45 257.247 504.9 257.247 522.45C259.847 671.95 364.497 689.5 385.297 691.45C395.047 751.25 428.847 805.199 480.197 840.299C481.497 841.599 483.447 842.25 485.397 842.25H727.197C729.797 842.25 732.397 840.95 734.347 839C794.147 796.75 829.897 728.499 829.897 655.049C829.897 593.949 805.197 538.05 764.897 497.1M276.747 521.8C276.747 506.2 278.697 484.75 281.297 463.3C286.497 417.8 292.997 364.5 276.097 332C294.297 341.75 315.097 361.9 326.797 403.5C338.497 443.8 360.597 475 385.297 487.35C397.647 493.2 409.997 494.5 421.047 489.95C441.197 482.15 447.047 442.5 441.847 408.7C438.597 387.25 430.797 369.05 421.047 356.7C464.597 363.2 526.997 383.35 538.047 441.85C447.697 470.45 382.047 555.6 382.047 655.7C382.047 661.55 382.047 666.75 382.697 672.6C359.297 668.7 279.347 649.2 276.747 521.8ZM723.947 822.1H488.647C435.347 784.4 403.497 723.95 401.547 658.95H439.897C445.097 658.95 449.647 654.4 449.647 649.2C449.647 644 445.097 639.45 439.897 639.45H402.197C405.447 593.95 424.297 552.35 452.897 519.85L481.497 548.45C483.447 550.4 486.047 551.05 488.647 551.05C491.247 551.05 493.847 550.4 495.797 548.45C499.697 544.55 499.697 538.7 495.797 534.8L466.547 505.55C500.997 473.05 546.497 452.9 596.547 450.3V491.9C596.547 497.1 601.097 501.65 606.297 501.65C611.497 501.65 616.047 497.1 616.047 491.9V450.3C662.197 452.25 703.797 469.8 736.947 497.75L701.197 533.5C697.297 537.4 697.297 543.25 701.197 547.15C703.147 549.1 705.747 549.75 708.347 549.75C710.947 549.75 713.547 549.1 715.497 547.15L751.897 510.75C780.497 539.35 800.647 577.05 807.797 618.65C807.797 619.3 809.747 638.149 809.747 638.799H772.697C767.497 638.799 762.947 643.349 762.947 648.549C762.947 653.749 767.497 658.299 772.697 658.299H811.047C811.697 663.499 811.047 649.849 811.047 655.049C811.047 721.349 778.547 783.75 723.947 822.1Z" fill="white"></path> <path fill-rule="evenodd" clip-rule="evenodd" d="M737.597 639.45H651.147C646.597 618.65 628.397 603.7 606.297 603.7C580.947 603.7 560.797 624.5 560.797 649.2C560.797 673.9 581.597 694.7 606.297 694.7C628.397 694.7 646.597 679.1 651.147 658.95H738.247C743.447 658.95 747.997 654.4 747.997 649.2C747.997 644 742.797 639.45 737.597 639.45ZM606.297 675.2C591.997 675.2 580.297 663.5 580.297 649.2C580.297 634.9 591.997 623.2 606.297 623.2C620.597 623.2 632.947 634.9 632.947 649.2C632.947 663.5 620.597 675.2 606.297 675.2ZM577.697 356.7C595.247 369.7 612.147 382.05 616.697 394.4C617.997 398.3 621.897 400.25 625.797 400.25C629.697 400.25 632.947 398.3 634.897 394.4C645.297 372.3 651.797 321.6 603.697 289.75C590.697 281.3 578.347 274.15 567.947 268.3C550.397 258.55 536.097 250.75 525.697 238.4C523.097 235.8 519.197 234.5 515.297 235.15C511.397 236.45 508.797 239.05 508.147 242.95C508.147 244.9 502.297 287.15 541.947 326.8C552.347 338.5 565.347 347.6 577.697 356.7ZM558.197 285.85C568.597 291.7 580.297 298.2 592.647 306.65C621.247 325.5 623.847 351.5 621.897 368.4C612.797 359.3 601.097 350.2 589.397 341.75C577.697 333.3 565.347 324.2 556.247 314.45C539.997 298.2 532.847 281.95 529.597 268.95C538.047 274.8 547.797 280 558.197 285.85Z" fill="white"></path> <defs> <linearGradient id="paint0_linear_3409_210" x1="158.104" y1="921.896" x2="921.896" y2="158.104" gradientUnits="userSpaceOnUse"> <stop stop-color="#4D0000"></stop> <stop offset="1" stop-color="#F03224"></stop> </linearGradient> </defs> </svg> 