<?xml version="1.0" encoding="UTF-8"?> <!-- Creator: CorelDRAW --> <svg xmlns="http://www.w3.org/2000/svg" xmlns:xlink="http://www.w3.org/1999/xlink" xmlns:xodm="http://www.corel.com/coreldraw/odm/2003" xml:space="preserve" width="1080px" height="1080px" style="shape-rendering:geometricPrecision; text-rendering:geometricPrecision; image-rendering:optimizeQuality; fill-rule:evenodd; clip-rule:evenodd" viewBox="0 0 778.96 778.96"> <defs> <style type="text/css"> <![CDATA[ .fil1 {fill:#FEFEFE;fill-rule:nonzero} .fil0 {fill:url(#id0)} ]]> </style> <linearGradient id="id0" gradientUnits="userSpaceOnUse" x1="114.08" y1="664.88" x2="664.88" y2="114.08"> <stop offset="0" style="stop-opacity:1; stop-color:#4D0000"></stop> <stop offset="1" style="stop-opacity:1; stop-color:#F03224"></stop> </linearGradient> </defs> <g id="Слой_x0020_1"> <metadata id="CorelCorpID_0Corel-Layer"></metadata> <circle class="fil0" cx="389.48" cy="389.48" r="389.48"></circle> <path class="fil1" d="M384.28 228.38c12.28,0 23.41,4.98 31.46,13.03 8.05,8.06 13.03,19.18 13.03,31.46 0,12.29 -4.98,23.41 -13.03,31.46 -8.05,8.05 -19.18,13.03 -31.46,13.03 -12.28,0 -23.41,-4.98 -31.46,-13.03 -8.05,-8.05 -13.03,-19.17 -13.03,-31.46 0,-12.28 4.98,-23.4 13.03,-31.46 8.05,-8.05 19.18,-13.03 31.46,-13.03zm52.16 174.54c0.05,4.04 -3.18,7.35 -7.22,7.39 -4.04,0.05 -7.35,-3.18 -7.4,-7.22 -0.03,-2.66 -0.46,-4.75 -1.28,-6.25 -0.62,-1.14 -1.57,-2.01 -2.84,-2.59 -1.39,-0.63 -2.69,-0.93 -4.01,-1.02 -0.57,-0.03 -1.17,-0.03 -1.8,0.01l-48.76 7.45c-1.31,0.2 -2.59,0.36 -3.86,0.46l-1.01 0.16c-0.89,0.13 -1.76,0.1 -2.58,-0.08 -0.27,0 -0.55,-0.02 -0.82,-0.04 -3,-0.18 -5.97,-0.87 -9.17,-2.33 -4.23,-1.94 -7.44,-4.9 -9.61,-8.89 -1.98,-3.63 -3,-7.99 -3.06,-13.08 -0.05,-4.04 3.19,-7.35 7.22,-7.39 4.04,-0.05 7.35,3.18 7.4,7.22 0.03,2.66 0.46,4.75 1.28,6.25 0.62,1.14 1.57,2.01 2.85,2.59 1.39,0.63 2.69,0.93 4,1.02 0.57,0.03 1.17,0.03 1.8,-0.01l48.77 -7.45c1.31,-0.2 2.58,-0.36 3.85,-0.46l1.02 -0.16c0.88,-0.13 1.75,-0.1 2.58,0.08 0.27,0 0.54,0.02 0.82,0.04 2.99,0.18 5.96,0.87 9.17,2.33 4.22,1.94 7.43,4.9 9.6,8.89 1.98,3.63 3,7.99 3.06,13.08zm144.32 -12.08c0.02,0.24 0.03,0.49 0.03,0.73 0.02,0.2 0.02,0.4 0.02,0.6l0 106.28c0,6.05 -2.47,11.54 -6.46,15.53l-0.03 0.03c-3.98,3.98 -9.48,6.46 -15.52,6.46 -2.57,0 -5.04,-0.45 -7.34,-1.26l0 69.67c0,4.05 -3.29,7.34 -7.34,7.34 -4.05,0 -7.34,-3.29 -7.34,-7.34l0 -90.43 0 -86.61 0 -0.92c0,-4.05 3.29,-7.33 7.34,-7.33 4.05,0 7.34,3.28 7.34,7.33l0 0.92 0 86.61c0,2.01 0.83,3.85 2.16,5.18 1.33,1.33 3.17,2.16 5.18,2.16 2.02,0 3.86,-0.82 5.19,-2.15 1.32,-1.33 2.14,-3.16 2.14,-5.19l0 -106.28c0,-0.13 0.01,-0.27 0.02,-0.4 -0.92,-8.43 -4.98,-15.98 -10.98,-21.44 -6.03,-5.48 -14.03,-8.83 -22.79,-8.83l-46.78 0c-4.06,0 -7.34,-3.29 -7.34,-7.34 0,-4.05 3.28,-7.34 7.34,-7.34l46.78 0c12.53,0 24,4.81 32.65,12.68 8.71,7.92 14.55,18.97 15.73,31.34zm-88.53 136.78c0,-4.05 3.29,-7.34 7.34,-7.34 4.05,0 7.34,3.29 7.34,7.34l0 61.26c0,4.05 -3.29,7.34 -7.34,7.34 -4.05,0 -7.34,-3.29 -7.34,-7.34l0 -61.26zm-159.38 -95.06c-7.53,-1.12 -14.31,-4.68 -19.49,-9.85l-0.04 -0.05c-6.31,-6.32 -10.22,-15.02 -10.22,-24.58l0 -22.93c0,-12.11 4.95,-23.13 12.93,-31.1 7.97,-7.98 18.98,-12.93 31.1,-12.93l74.3 0c12.12,0 23.13,4.95 31.1,12.93 7.98,7.97 12.93,18.99 12.93,31.1l0 22.93c0,9.56 -3.92,18.27 -10.24,24.6l-0.04 0.04c-4.88,4.86 -11.16,8.3 -18.15,9.62l0 156.54c0,4.05 -3.29,7.34 -7.34,7.34 -4.06,0 -7.34,-3.29 -7.34,-7.34l0 -155.94 -52.29 0c-4.05,0 -7.33,-3.28 -7.33,-7.34 0,-4.05 3.28,-7.34 7.33,-7.34l59.63 0 0.91 0c5.56,0 10.6,-2.26 14.25,-5.9l0.02 -0.03c3.65,-3.65 5.91,-8.69 5.91,-14.25l0 -22.93c0,-8.06 -3.3,-15.4 -8.62,-20.72 -5.33,-5.33 -12.66,-8.63 -20.73,-8.63l-74.3 0c-8.06,0 -15.4,3.3 -20.73,8.63 -5.32,5.32 -8.62,12.66 -8.62,20.72l0 22.93c0,5.57 2.26,10.61 5.9,14.25l0.03 0.03c3.64,3.64 8.68,5.9 14.25,5.9l2.23 0c4.05,0 7.34,3.29 7.34,7.34l0 163.28c0,4.05 -3.29,7.34 -7.34,7.34 -4.06,0 -7.34,-3.29 -7.34,-7.34l0 -156.32zm-146.22 -40.99c-0.01,-0.24 0.01,-0.49 0.03,-0.73 1.17,-12.38 7.02,-23.42 15.72,-31.34 8.65,-7.87 20.12,-12.68 32.65,-12.68l46.79 0c4.05,0 7.34,3.29 7.34,7.34 0,4.05 -3.29,7.34 -7.34,7.34l-46.79 0c-8.75,0 -16.76,3.35 -22.78,8.83 -6.01,5.46 -10.07,13.01 -10.98,21.44 0.01,0.13 0.01,0.27 0.01,0.4l0 106.28c0,2.03 0.82,3.86 2.15,5.19 1.33,1.33 3.17,2.15 5.19,2.15 2.01,0 3.84,-0.83 5.17,-2.16 1.34,-1.33 2.17,-3.17 2.17,-5.18l0 -86.61 0 -0.92c0,-4.05 3.28,-7.33 7.34,-7.33 4.05,0 7.33,3.28 7.33,7.33l0 0.92 0 86.61 0 90.43c0,4.05 -3.28,7.34 -7.33,7.34 -4.06,0 -7.34,-3.29 -7.34,-7.34l0 -69.67c-2.3,0.81 -4.77,1.26 -7.34,1.26 -6.04,0 -11.54,-2.48 -15.53,-6.46l-0.03 -0.03c-3.98,-3.99 -6.46,-9.48 -6.46,-15.53l0 -106.28c0,-0.2 0.01,-0.4 0.03,-0.6zm73.88 136.05c0,-4.05 3.28,-7.34 7.34,-7.34 4.05,0 7.34,3.29 7.34,7.34l0 61.26c0,4.05 -3.29,7.34 -7.34,7.34 -4.06,0 -7.34,-3.29 -7.34,-7.34l0 -61.26zm116.89 -37.81c0,-4.05 3.29,-7.34 7.34,-7.34 4.05,0 7.34,3.29 7.34,7.34l0 99.07c0,4.05 -3.29,7.34 -7.34,7.34 -4.05,0 -7.34,-3.29 -7.34,-7.34l0 -99.07zm-52.29 -334.49c10.15,0 19.35,4.12 26,10.77 6.65,6.65 10.77,15.84 10.77,25.99 0,10.15 -4.12,19.34 -10.77,25.99 -6.65,6.66 -15.85,10.77 -26,10.77 -10.15,0 -19.34,-4.11 -25.99,-10.77 -6.65,-6.65 -10.77,-15.84 -10.77,-25.99 0,-10.15 4.12,-19.34 10.77,-25.99 6.65,-6.65 15.84,-10.77 25.99,-10.77zm15.62 21.14c-3.99,-3.99 -9.52,-6.46 -15.62,-6.46 -6.09,0 -11.62,2.47 -15.61,6.47 -4,3.99 -6.47,9.51 -6.47,15.61 0,6.1 2.47,11.62 6.47,15.62 3.99,3.99 9.52,6.46 15.61,6.46 6.1,0 11.63,-2.47 15.62,-6.46 3.99,-4 6.47,-9.52 6.47,-15.62 0,-6.1 -2.48,-11.62 -6.47,-15.62zm102.72 -21.14c10.15,0 19.34,4.12 25.99,10.77 6.65,6.65 10.77,15.84 10.77,25.99 0,10.15 -4.12,19.34 -10.77,25.99 -6.65,6.66 -15.84,10.77 -25.99,10.77 -10.15,0 -19.35,-4.11 -26,-10.77 -6.65,-6.65 -10.77,-15.84 -10.77,-25.99 0,-10.15 4.12,-19.34 10.77,-25.99 6.65,-6.65 15.85,-10.77 26,-10.77zm15.61 21.14c-3.99,-3.99 -9.52,-6.46 -15.61,-6.46 -6.1,0 -11.63,2.47 -15.62,6.47 -3.99,3.99 -6.47,9.51 -6.47,15.61 0,6.1 2.48,11.62 6.47,15.62 3.99,3.99 9.52,6.46 15.62,6.46 6.09,0 11.62,-2.47 15.61,-6.46 4,-4 6.47,-9.52 6.47,-15.62 0,-6.1 -2.47,-11.62 -6.47,-15.62zm-193.11 81.28c-8.23,0 -15.69,3.33 -21.08,8.73 -5.4,5.39 -8.73,12.85 -8.73,21.08 0,8.23 3.33,15.69 8.73,21.08 5.39,5.39 12.85,8.73 21.08,8.73 8.23,0 15.69,-3.34 21.08,-8.73 5.39,-5.39 8.73,-12.85 8.73,-21.08 0,-8.23 -3.34,-15.69 -8.73,-21.08 -5.39,-5.4 -12.85,-8.73 -21.08,-8.73zm-31.46 -1.65c8.05,-8.05 19.17,-13.03 31.46,-13.03 12.28,0 23.41,4.98 31.46,13.03 8.05,8.05 13.03,19.18 13.03,31.46 0,12.28 -4.98,23.41 -13.03,31.46 -8.05,8.05 -19.18,13.03 -31.46,13.03 -12.29,0 -23.41,-4.98 -31.46,-13.03 -8.05,-8.05 -13.03,-19.18 -13.03,-31.46 0,-12.28 4.98,-23.41 13.03,-31.46zm268.12 -13.03c12.28,0 23.41,4.98 31.46,13.03 8.05,8.05 13.03,19.18 13.03,31.46 0,12.28 -4.98,23.41 -13.03,31.46 -8.05,8.05 -19.18,13.03 -31.46,13.03 -12.28,0 -23.41,-4.98 -31.46,-13.03 -8.05,-8.05 -13.03,-19.18 -13.03,-31.46 0,-12.28 4.98,-23.41 13.03,-31.46 8.05,-8.05 19.18,-13.03 31.46,-13.03zm21.08 23.41c-5.39,-5.4 -12.85,-8.73 -21.08,-8.73 -8.23,0 -15.69,3.33 -21.08,8.73 -5.39,5.39 -8.73,12.85 -8.73,21.08 0,8.23 3.34,15.69 8.73,21.08 5.39,5.39 12.85,8.73 21.08,8.73 8.23,0 15.69,-3.34 21.08,-8.73 5.4,-5.39 8.73,-12.85 8.73,-21.08 0,-8.23 -3.33,-15.69 -8.73,-21.08zm-118.33 -14.68c-5.39,-5.39 -12.85,-8.73 -21.08,-8.73 -8.23,0 -15.69,3.34 -21.08,8.73 -5.4,5.4 -8.73,12.85 -8.73,21.08 0,8.24 3.33,15.69 8.73,21.08 5.39,5.4 12.85,8.73 21.08,8.73 8.23,0 15.69,-3.33 21.08,-8.73 5.39,-5.39 8.73,-12.84 8.73,-21.08 0,-8.23 -3.34,-15.68 -8.73,-21.08z"></path> </g> </svg> 