<?xml version="1.0" encoding="UTF-8"?> <svg xmlns="http://www.w3.org/2000/svg" width="1080" height="1080" viewBox="0 0 1080 1080" fill="none"> <g clip-path="url(#clip0_3410_214)"> <path d="M540.067 1080.13C838.338 1080.13 1080.13 838.338 1080.13 540.067C1080.13 241.796 838.338 0 540.067 0C241.796 0 0 241.796 0 540.067C0 838.338 241.796 1080.13 540.067 1080.13Z" fill="url(#paint0_linear_3410_214)"></path> <path fill-rule="evenodd" clip-rule="evenodd" d="M730.059 590.217C729.913 589.659 729.718 589.115 729.474 588.592L670.603 465.521C669.808 463.861 668.56 462.46 667.003 461.479C665.446 460.498 663.643 459.977 661.802 459.977H417.623C413.853 459.977 410.428 462.148 408.816 465.554L350.511 588.625C350.485 588.67 350.478 588.722 350.459 588.774C320.351 596.548 298.004 623.855 298.004 656.361V699.677C298.004 731.345 319.194 758.119 348.132 766.666V829.365C348.132 841.163 359.104 850.77 372.591 850.77H403.102C416.59 850.77 427.562 841.163 427.562 829.365V769.552H652.436V829.365C652.436 841.163 663.408 850.77 676.895 850.77H707.406C720.894 850.77 731.866 841.163 731.866 829.365V765.158C758.509 755.298 777.58 729.707 777.58 699.677V656.361C777.58 625.655 757.645 599.571 730.059 590.217ZM423.792 479.477H655.666L706.847 586.48H373.098L423.792 479.477ZM408.075 829.268C407.88 829.84 406.105 831.27 403.102 831.27H372.591C369.588 831.27 367.82 829.833 367.632 829.365V769.539L367.879 769.552H408.062L408.075 829.268ZM712.379 829.268C712.184 829.84 710.409 831.27 707.406 831.27H676.895C673.892 831.27 672.124 829.833 671.936 829.365V769.552H707.705C709.278 769.552 710.819 769.416 712.366 769.318L712.379 829.268ZM758.08 699.671C758.08 727.445 735.48 750.046 707.705 750.046H367.879C340.104 750.046 317.504 727.445 317.504 699.671V656.355C317.504 628.58 340.104 605.98 367.879 605.98H707.705C735.48 605.98 758.08 628.58 758.08 656.355V699.671Z" fill="white"></path> <path fill-rule="evenodd" clip-rule="evenodd" d="M387.847 639.735C377.697 639.747 367.967 643.784 360.791 650.962C353.615 658.139 349.579 667.87 349.568 678.02C349.568 699.125 366.741 716.298 387.847 716.298C408.952 716.298 426.125 699.125 426.125 678.02C426.115 667.87 422.079 658.139 414.903 650.962C407.727 643.784 397.996 639.747 387.847 639.735ZM387.847 696.792C382.868 696.786 378.095 694.806 374.574 691.286C371.054 687.765 369.073 682.992 369.068 678.013C369.072 673.033 371.051 668.258 374.572 664.736C378.093 661.214 382.867 659.233 387.847 659.228C392.827 659.233 397.601 661.214 401.122 664.736C404.643 668.258 406.622 673.033 406.625 678.013C406.62 682.992 404.64 687.765 401.12 691.286C397.599 694.806 392.826 696.786 387.847 696.792ZM692.151 637.317C682 637.327 672.268 641.364 665.091 648.541C657.913 655.719 653.876 665.451 653.866 675.602C653.878 685.751 657.915 695.481 665.093 702.658C672.27 709.834 682.001 713.87 692.151 713.88C702.299 713.868 712.028 709.831 719.204 702.655C726.38 695.479 730.417 685.75 730.429 675.602C730.419 665.452 726.383 655.721 719.207 648.544C712.031 641.366 702.3 637.329 692.151 637.317ZM692.151 694.374C687.171 694.37 682.396 692.391 678.874 688.87C675.352 685.349 673.371 680.575 673.366 675.595C673.371 670.615 675.352 665.84 678.874 662.318C682.395 658.796 687.17 656.815 692.151 656.81C697.131 656.815 701.905 658.796 705.426 662.318C708.947 665.84 710.926 670.615 710.929 675.595C710.924 680.574 708.944 685.347 705.423 688.868C701.903 692.388 697.13 694.368 692.151 694.374ZM581.93 684.773H493.647C491.061 684.773 488.581 685.8 486.753 687.629C484.925 689.457 483.897 691.937 483.897 694.523C483.897 697.109 484.925 699.589 486.753 701.417C488.581 703.246 491.061 704.273 493.647 704.273H581.93C584.516 704.273 586.996 703.246 588.825 701.417C590.653 699.589 591.68 697.109 591.68 694.523C591.68 691.937 590.653 689.457 588.825 687.629C586.996 685.8 584.516 684.773 581.93 684.773ZM326.389 334.313C324.696 334.314 323.032 334.755 321.561 335.595C320.091 336.434 318.864 337.642 318.002 339.1C317.14 340.557 316.673 342.214 316.646 343.907C316.619 345.6 317.033 347.271 317.848 348.756C324.08 360.102 333.243 369.566 344.382 376.16C355.521 382.754 368.227 386.236 381.171 386.241C409.836 386.241 435.472 369.38 447.029 343.614H731.281C739.135 343.604 746.665 340.479 752.219 334.925C757.773 329.371 760.897 321.842 760.908 313.987C760.897 306.135 757.773 298.608 752.22 293.056C746.667 287.504 739.139 284.382 731.287 284.373H447.029C441.334 271.672 432.085 260.89 420.4 253.327C408.715 245.763 395.091 241.741 381.171 241.746C368.227 241.749 355.521 245.229 344.382 251.822C333.243 258.415 324.079 267.879 317.848 279.225C317.033 280.709 316.619 282.38 316.646 284.073C316.673 285.767 317.14 287.423 318.002 288.881C318.864 290.339 320.091 291.546 321.561 292.386C323.032 293.225 324.696 293.667 326.389 293.668H365.227L376.959 313.987L365.227 334.306H326.389V334.313ZM379.299 348.938L396.661 318.869C397.517 317.386 397.967 315.705 397.967 313.994C397.967 312.282 397.517 310.601 396.661 309.119L379.299 279.05C378.444 277.567 377.213 276.337 375.731 275.481C374.249 274.625 372.567 274.175 370.856 274.175H346.598C353.139 268.49 360.98 264.507 369.428 262.577C377.876 260.646 386.669 260.829 395.029 263.108C403.39 265.387 411.059 269.693 417.358 275.644C423.658 281.594 428.392 289.006 431.143 297.224C431.793 299.161 433.035 300.845 434.693 302.038C436.352 303.231 438.343 303.873 440.386 303.873H731.294C736.871 303.873 741.414 308.41 741.414 313.981C741.413 316.667 740.345 319.242 738.447 321.142C736.548 323.042 733.973 324.111 731.287 324.114H440.386C438.343 324.114 436.352 324.756 434.693 325.949C433.035 327.143 431.793 328.827 431.143 330.764C427.641 341.245 420.931 350.359 411.962 356.816C402.994 363.272 392.222 366.745 381.171 366.741C368.466 366.738 356.188 362.147 346.598 353.813H370.856C372.567 353.813 374.249 353.362 375.731 352.506C377.213 351.651 378.444 350.42 379.299 348.938Z" fill="white"></path> </g> <defs> <linearGradient id="paint0_linear_3410_214" x1="158.104" y1="921.896" x2="921.896" y2="158.104" gradientUnits="userSpaceOnUse"> <stop stop-color="#4D0000"></stop> <stop offset="1" stop-color="#F03224"></stop> </linearGradient> <clipPath id="clip0_3410_214"> <rect width="1080" height="1080" fill="white"></rect> </clipPath> </defs> </svg> 