<?xml version="1.0" encoding="UTF-8"?> <svg xmlns="http://www.w3.org/2000/svg" width="1081" height="1081" viewBox="0 0 1081 1081" fill="none"> <path d="M540.067 1080.13C838.338 1080.13 1080.13 838.338 1080.13 540.067C1080.13 241.796 838.338 0 540.067 0C241.796 0 0 241.796 0 540.067C0 838.338 241.796 1080.13 540.067 1080.13Z" fill="url(#paint0_linear_3409_207)"></path> <path fill-rule="evenodd" clip-rule="evenodd" d="M629.179 260.527H446.795C345.954 260.527 263.918 385.906 263.918 540.014C263.918 694.123 345.954 819.501 446.795 819.501H629.179C730.02 819.501 812.063 694.123 812.063 540.014C812.063 385.906 730.013 260.527 629.179 260.527ZM446.795 280.027H562.196C534.688 296.635 510.443 323.135 491.32 356.669L382.9 407.934L328.086 361.654C357.895 311.448 400.073 280.027 446.795 280.027ZM447.491 508.515L363.179 559.631L284.393 511.869C287.779 462.086 300.045 416.508 318.589 379.159L375.12 426.882C376.549 428.088 378.295 428.857 380.149 429.099C382.003 429.341 383.888 429.045 385.578 428.247L477.118 384.963C461.284 421.11 450.838 463.191 447.491 508.515ZM283.509 534.132L358.122 579.359C359.644 580.288 361.392 580.78 363.175 580.781C364.958 580.782 366.707 580.292 368.23 579.365L446.431 531.954C446.379 534.639 446.295 537.304 446.295 540.008C446.295 589.31 454.725 635.642 469.448 675.897L410.207 721.962L306.46 670.424C306.116 670.255 305.752 670.151 305.401 670.021C291.445 631.742 283.411 587.347 283.411 540.001C283.418 538.045 283.483 536.095 283.509 534.132ZM446.795 800.001C393.853 800.001 346.728 759.688 316.854 697.373L407.022 742.164C408.667 742.973 410.506 743.305 412.331 743.123C414.155 742.94 415.892 742.25 417.344 741.131L476.975 694.76C497.56 741.891 527.259 778.909 562.19 800.001H446.795ZM629.179 800.001C570.913 800.001 519.712 751.18 490.781 677.931C490.584 676.333 489.987 674.811 489.045 673.505C474.303 634.459 465.801 588.79 465.801 540.014C465.801 396.657 539.089 280.027 629.179 280.027C719.269 280.027 792.563 396.657 792.563 540.014C792.556 683.372 719.269 800.001 629.179 800.001Z" fill="white"></path> <path fill-rule="evenodd" clip-rule="evenodd" d="M629.181 370.895C577.279 370.895 536.621 445.183 536.621 540.012C536.621 634.847 577.272 709.135 629.181 709.135C681.09 709.135 721.741 634.847 721.741 540.012C721.741 445.183 681.084 370.895 629.181 370.895ZM629.181 689.629C589.577 689.629 556.121 621.112 556.121 540.005C556.121 458.905 589.577 390.388 629.181 390.388C668.786 390.388 702.241 458.905 702.241 540.005C702.241 621.112 668.779 689.629 629.181 689.629Z" fill="white"></path> <defs> <linearGradient id="paint0_linear_3409_207" x1="158.104" y1="921.896" x2="921.896" y2="158.104" gradientUnits="userSpaceOnUse"> <stop stop-color="#4D0000"></stop> <stop offset="1" stop-color="#F03224"></stop> </linearGradient> </defs> </svg> 