<?xml version="1.0" encoding="UTF-8"?> <svg xmlns="http://www.w3.org/2000/svg" width="464" height="273" viewBox="0 0 464 273" fill="none"><g clip-path="url(#clip0_53_85)"><path d="M252.335 40L270.555 41.34C285.843 42.3541 300.965 45.1155 315.625 49.57C331.085 54.37 343.775 63.46 354.955 74.89C360.955 81.01 366.845 87.18 372.855 93.26C376.955 97.4 381.725 96.92 384.665 91.89C385.744 89.7127 386.543 87.4077 387.045 85.03C388.245 80.75 389.945 78.91 394.365 78.52C403.845 77.69 412.645 80.14 420.755 84.92C424.175 86.92 424.185 89.98 420.495 91.41C414.189 93.7755 407.731 95.7133 401.165 97.21C387.695 100.45 374.075 103.09 360.635 106.47C342.735 110.96 327.865 120.88 314.575 133.4C312.257 135.64 309.817 137.75 307.265 139.72C312.405 129.55 320.735 121.85 328.425 112.98C264.077 109.69 199.603 109.69 135.255 112.98C142.805 122.07 151.385 129.81 156.445 140.33C153.825 137.91 151.155 135.55 148.605 133.06C131.525 116.35 110.865 106.99 87.6048 102.71C75.9448 100.57 64.3348 98.07 52.8548 95.16C48.4848 94.05 44.5248 91.35 40.3848 89.37V86.7C49.1648 80.33 59.0548 77.86 69.7748 78.58C73.2948 78.81 75.3848 80.98 76.3148 84.3C76.6858 86.1319 77.1599 87.9415 77.7348 89.72C80.4648 96.33 86.2648 98.41 91.3748 92.72C97.1648 86.3 103.295 80.18 109.375 74.05C120.165 63.23 132.375 54.56 147.095 49.85C162.035 45.1914 177.477 42.328 193.095 41.32C199.055 40.8867 205.011 40.4467 210.965 40H252.335ZM308.905 106.07C316.645 105.46 324.435 105.6 332.095 104.49C338.008 103.622 343.816 102.144 349.425 100.08C356.235 97.57 357.965 91.93 354.535 85.54C353.384 83.5145 352.077 81.582 350.625 79.76C336.965 61.89 318.575 52.88 296.425 51.38C287.715 50.79 284.115 53.53 283.065 62.14C282.065 70.55 282.165 79.14 282.165 87.64C282.321 90.627 282.938 93.5718 283.995 96.37C286.055 102.68 290.615 105.88 297.225 106.05C301.135 106.16 305.025 106.07 308.905 106.07ZM277.905 55.67C262.615 68.35 253.575 84.84 248.255 103.79H263.645C263.505 86.18 269.815 70.72 277.945 55.72L277.905 55.67Z" fill="#212A31"></path><path d="M352.205 183.77C367.985 183.77 376.685 193.49 375.295 209.85C375.035 212.706 374.506 215.532 373.715 218.29C371.795 225.07 367.065 229.1 360.435 231C349.875 234 338.715 231 333.305 224.09C327.385 216.52 326.205 195.76 336.785 188.09C340.525 185.34 345.505 183.79 352.205 183.77ZM362.065 207.91C361.837 205.428 361.456 202.964 360.925 200.53C359.605 195.7 356.635 193.76 351.535 193.95C346.965 194.12 343.705 196.59 343.075 201.32C342.53 205.359 342.49 209.45 342.955 213.5C343.575 218.71 346.585 221.26 351.175 221.5C356.815 221.77 359.595 219.84 361.085 214.34C361.535 212.217 361.863 210.07 362.065 207.91Z" fill="#F97F02"></path><path d="M120.845 184.04C126.115 199.72 131.335 215.32 136.715 231.21H122.585L120.185 222.77H104.555L102.135 231.21H88.1348C88.4148 230.15 88.6148 229.21 88.9048 228.34C93.4548 214.57 98.0648 200.81 102.525 187.01C103.255 184.75 104.245 183.87 106.695 184.01C111.335 184.2 115.995 184.04 120.845 184.04ZM117.335 211.93L112.625 193.72L111.995 193.8C110.495 199.75 108.995 205.7 107.425 211.9L117.335 211.93Z" fill="#212A31"></path><path d="M199.195 184.141C204.465 184.141 209.565 184.081 214.655 184.211C215.104 184.272 215.532 184.439 215.904 184.698C216.276 184.957 216.582 185.301 216.795 185.701C221.895 200.701 226.895 215.701 232.095 231.271C227.695 231.271 223.645 231.421 219.625 231.141C218.845 231.091 217.845 229.491 217.505 228.431C215.645 222.561 215.705 222.541 209.625 222.521H207.625C200.545 222.521 200.625 222.521 198.075 229.301C197.889 229.757 197.601 230.164 197.234 230.491C196.866 230.819 196.429 231.058 195.955 231.191C191.955 231.381 188.005 231.281 183.555 231.281L199.195 184.141ZM213.035 212.041C211.335 205.551 209.745 199.471 208.145 193.391H207.535L202.815 212.011L213.035 212.041Z" fill="#F97F02"></path><path d="M250.925 184.44C250.925 194.44 250.865 203.86 250.925 213.29C250.925 218.93 253.745 221.64 259.055 221.5C263.145 221.4 265.555 219.5 265.805 215.27C266.175 208.96 266.105 202.62 266.185 196.27C266.185 193.16 266.255 190.05 266.185 186.94C266.135 185.07 266.935 184.37 268.765 184.41C271.975 184.48 275.195 184.41 278.705 184.41C278.795 185.53 278.935 186.48 278.935 187.41C278.935 195.96 278.985 204.52 278.935 213.07C278.855 224.41 271.795 231.59 260.455 231.84C257.796 231.979 255.13 231.824 252.505 231.38C243.295 229.55 238.215 223.56 238.015 214.16C237.825 205.16 238.015 196.16 237.945 187.16C237.945 185.51 238.205 184.32 240.245 184.36C243.665 184.49 247.085 184.44 250.925 184.44Z" fill="#F97F02"></path><path d="M178.694 186.98C177.354 190.32 176.104 193.47 174.824 196.67C168.464 194.97 162.024 190.96 156.604 197.67C152.944 202.23 152.604 212.72 155.984 217.33C161.814 225.14 169.184 220.57 176.524 219.14C176.524 222.19 176.614 225.14 176.454 228.08C176.389 228.484 176.228 228.866 175.984 229.195C175.741 229.524 175.422 229.79 175.054 229.97C166.674 232.74 158.264 233.46 150.244 228.97C143.314 225.09 141.314 218.31 140.554 210.97C139.294 198.77 144.774 188.5 154.774 185.05C162.784 182.36 170.684 183.5 178.694 186.98Z" fill="#212A31"></path><path d="M287.175 194.721V184.721H322.785V194.591H311.585V231.021H298.585V194.721H287.175Z" fill="#F97F02"></path><path d="M328.765 162.31C334.225 158.19 339.305 153.39 345.215 150.09C366.325 138.34 387.705 127.09 409.005 115.65C410.845 122.7 407.435 137.17 398.365 141.17C388.565 145.49 378.365 149 368.365 152.64C364.228 154.037 359.988 155.107 355.685 155.84C366.685 149.76 378.965 146.21 388.355 137.3C377.355 138.19 367.355 142.35 357.715 147.02C348.075 151.69 338.715 157.39 329.305 162.64L328.765 162.31Z" fill="#212A31"></path><path d="M74.9451 138.06C84.6051 146.24 96.9452 149.66 107.685 156.14C103.475 154.98 99.2052 154.02 95.0952 152.61C86.1852 149.61 77.2552 146.56 68.5352 143.06C59.8152 139.56 55.6852 132.55 54.4552 123.56C54.1152 121.06 54.0252 118.56 53.7852 115.67C54.4258 115.743 55.0564 115.887 55.6652 116.1C76.0852 127.1 96.6152 137.83 116.815 149.18C122.815 152.55 127.885 157.58 133.365 161.88C133.832 162.321 134.176 162.876 134.365 163.49C116.769 150.762 96.9026 141.513 75.8352 136.24L74.9451 138.06Z" fill="#212A31"></path></g><defs><clipPath id="clip0_53_85"><rect width="383.33" height="192.67" fill="white" transform="translate(40.335 40)"></rect></clipPath></defs></svg> 