<?xml version="1.0" encoding="UTF-8"?> <svg xmlns="http://www.w3.org/2000/svg" width="180" height="72" viewBox="0 0 180 72" fill="none"> <path d="M0.0412598 53.4514H6.23387V54.6237H1.37219V57.4649H3.66167C4.39264 57.4649 4.99949 57.5545 5.48221 57.727C5.95804 57.8993 6.34421 58.1338 6.62695 58.4304C6.90969 58.7269 7.10967 59.0648 7.22 59.4509C7.33035 59.8372 7.38551 60.2371 7.38551 60.6578C7.38551 61.0854 7.33035 61.4853 7.21311 61.8714C7.09588 62.2508 6.8959 62.5886 6.60626 62.8714C6.31663 63.1541 5.92356 63.3817 5.42704 63.5472C4.93053 63.7197 4.2961 63.8024 3.53753 63.8024H0.0412598V53.4514ZM1.37219 58.5958V62.6714H3.63408C4.09612 62.6714 4.48918 62.6301 4.79951 62.5473C5.11672 62.4646 5.36498 62.3404 5.54427 62.168C5.73047 62.0025 5.86149 61.7887 5.93735 61.5474C6.0132 61.2991 6.05458 61.0164 6.05458 60.6991C6.05458 60.3819 6.0132 60.0924 5.93735 59.8303C5.86149 59.5682 5.72358 59.3476 5.52359 59.1683C5.32361 58.9889 5.06155 58.851 4.72365 58.7476C4.38575 58.6441 3.97198 58.5958 3.44789 58.5958H1.37219Z" fill="#525455"></path> <path d="M13.8402 62.775C13.5712 63.106 13.2264 63.3888 12.8127 63.6231C12.3989 63.8576 11.8817 63.9818 11.2611 63.9818C10.8818 63.9818 10.537 63.9335 10.2267 63.8439C9.90949 63.7542 9.64055 63.6094 9.41298 63.4232C9.18542 63.237 9.00612 63.0025 8.88199 62.7199C8.75786 62.4371 8.6958 62.113 8.6958 61.7336C8.6958 61.2096 8.80613 60.7821 9.01991 60.451C9.24058 60.12 9.53022 59.858 9.88881 59.6649C10.2543 59.4787 10.6612 59.3477 11.1163 59.2718C11.5714 59.1959 12.0404 59.1546 12.5231 59.1339L13.8126 59.0925V58.7891C13.8126 58.1546 13.6747 57.6926 13.4058 57.4099C13.1368 57.1272 12.6954 56.9892 12.0886 56.9892C11.4887 56.9892 11.0473 57.0858 10.7715 57.2858C10.4888 57.4857 10.3095 57.7547 10.2198 58.1063L9.07508 57.9753C9.213 57.2858 9.53712 56.7893 10.0474 56.472C10.5577 56.1548 11.2542 56.0031 12.1369 56.0031C12.6817 56.0031 13.1368 56.0652 13.5092 56.1962C13.8816 56.3273 14.185 56.5135 14.4126 56.7548C14.6471 56.9962 14.8126 57.2995 14.916 57.6512C15.0195 58.0099 15.0678 58.4098 15.0678 58.8581V63.8025H13.8472V62.775H13.8402ZM13.8126 59.989L12.6058 60.0304C12.0955 60.051 11.668 60.0993 11.3301 60.1752C10.9922 60.2511 10.7232 60.3545 10.5232 60.4924C10.3233 60.6303 10.1853 60.7958 10.1026 60.989C10.0198 61.1889 9.97845 61.4165 9.97845 61.6855C9.97845 62.0578 10.0888 62.3612 10.3164 62.5888C10.5439 62.8163 10.9163 62.9267 11.4404 62.9267C12.1852 62.9267 12.7644 62.7475 13.1783 62.3819C13.5919 62.0164 13.7989 61.513 13.7989 60.8785V59.989H13.8126Z" fill="#525455"></path> <path d="M18.3503 56.2236V59.313H22.3362V56.2236H23.5981V63.8093H22.3431V60.3889H18.3573V63.8093H17.0952V56.2236H18.3503Z" fill="#525455"></path> <path d="M25.6531 63.8024V56.2168H26.9013V59.5063H27.4116C27.5978 59.5063 27.7564 59.4855 27.8943 59.4511C28.0323 59.4097 28.1632 59.3476 28.2805 59.2579C28.3977 59.1683 28.5011 59.0511 28.5977 58.8994C28.6942 58.7545 28.7977 58.5683 28.9011 58.3477L29.3355 57.4511C29.439 57.2305 29.5493 57.0374 29.6597 56.8857C29.7701 56.7341 29.8941 56.603 30.039 56.4996C30.1769 56.3961 30.3424 56.3271 30.5217 56.2788C30.7079 56.2375 30.9217 56.2168 31.1769 56.2168C31.3148 56.2168 31.4388 56.2237 31.563 56.2444C31.6872 56.2651 31.7768 56.2858 31.8319 56.2995L31.7009 57.2719C31.6733 57.2512 31.6113 57.2374 31.5285 57.2305C31.4388 57.2236 31.3423 57.2168 31.2389 57.2168C30.9907 57.2168 30.8045 57.2719 30.6803 57.3823C30.5561 57.4926 30.4458 57.6719 30.3424 57.9133L29.9217 58.8235C29.8045 59.0924 29.6735 59.3131 29.5217 59.4855C29.3701 59.6579 29.1839 59.7958 28.9494 59.8992C29.1493 59.9751 29.3287 60.0854 29.4873 60.2303C29.639 60.3751 29.8045 60.5751 29.9768 60.8233L31.9629 63.7956H30.5148L28.7769 61.1889C28.6046 60.9268 28.4323 60.7337 28.2529 60.6096C28.0805 60.4854 27.8322 60.4234 27.515 60.4234H26.9081V63.8024H25.6531Z" fill="#525455"></path> <path d="M42.6656 56.2237V62.7336H43.5482V65.8367H42.4035V63.8093H36.7351V65.8367H35.5903V62.7336H36.3281C36.5006 62.568 36.6592 62.3542 36.804 62.0784C36.9488 61.8095 37.0798 61.4715 37.1971 61.0716C37.3142 60.6716 37.4177 60.1958 37.5074 59.6442C37.597 59.0924 37.6798 58.458 37.7488 57.7271L37.8797 56.2168H42.6656V56.2237ZM38.8658 58.4235C38.7486 59.582 38.59 60.4993 38.397 61.1889C38.1969 61.8715 37.9694 62.3888 37.7074 62.7336H41.4036V57.2649H38.9831L38.8658 58.4235Z" fill="#525455"></path> <path d="M50.4995 57.265H47.9962L47.679 59.8716C47.5894 60.5957 47.4722 61.2095 47.3136 61.7129C47.1619 62.2162 46.9618 62.6369 46.7205 62.9541C46.4791 63.2782 46.1895 63.5127 45.8585 63.6576C45.5275 63.8024 45.1344 63.8714 44.693 63.8714H44.4448V62.83H44.5896C44.8379 62.83 45.0654 62.7818 45.2655 62.6852C45.4654 62.5886 45.6447 62.4163 45.8033 62.1611C45.962 61.906 46.0999 61.5612 46.217 61.1129C46.3343 60.6646 46.4308 60.0992 46.5067 59.4096L46.8722 56.2098H51.7753V63.7955H50.5133V57.265H50.4995Z" fill="#525455"></path> <path d="M53.175 63.8024L54.5819 61.368C54.8232 60.9544 55.0921 60.6716 55.3818 60.5268C54.8991 60.4233 54.5198 60.1889 54.2371 59.8303C53.9543 59.4717 53.8164 59.0165 53.8164 58.4511C53.8164 58.1339 53.8647 57.8374 53.9613 57.5684C54.0577 57.2995 54.2163 57.0581 54.444 56.8581C54.6715 56.6582 54.975 56.4995 55.3474 56.3892C55.7266 56.2788 56.1955 56.2236 56.754 56.2236H59.7676V63.8093H58.5057V60.7819H57.4161C57.1816 60.7819 56.9885 60.7957 56.8299 60.8233C56.6713 60.8509 56.5334 60.8992 56.4162 60.9681C56.2989 61.0371 56.1955 61.1267 56.099 61.244C56.0024 61.3612 55.9059 61.5061 55.8093 61.6784L54.5887 63.8093H53.175V63.8024ZM58.5125 59.7269V57.2649H56.7748C55.6645 57.2649 55.106 57.6512 55.106 58.4167C55.106 59.2923 55.6231 59.7269 56.6576 59.7269H58.5125Z" fill="#525455"></path> <path d="M69.7667 62.775C69.4978 63.106 69.153 63.3888 68.7392 63.6231C68.3255 63.8576 67.8082 63.9818 67.1876 63.9818C66.8083 63.9818 66.4635 63.9335 66.1532 63.8439C65.8359 63.7542 65.567 63.6094 65.3395 63.4232C65.1119 63.237 64.9326 63.0025 64.8085 62.7199C64.6843 62.4371 64.6223 62.113 64.6223 61.7336C64.6223 61.2096 64.7326 60.7821 64.9464 60.451C65.167 60.12 65.4567 59.858 65.8152 59.6649C66.1808 59.4787 66.5876 59.3477 67.0428 59.2718C67.498 59.1959 67.9668 59.1546 68.4495 59.1339L69.7392 59.0925V58.7891C69.7392 58.1546 69.6013 57.6926 69.3322 57.4099C69.0633 57.1272 68.622 56.9892 68.0151 56.9892C67.4152 56.9892 66.9738 57.0858 66.698 57.2858C66.4152 57.4857 66.2359 57.7547 66.1463 58.1063L65.0016 57.9753C65.1395 57.2858 65.4636 56.7893 65.9738 56.472C66.4843 56.1548 67.1807 56.0031 68.0634 56.0031C68.6081 56.0031 69.0633 56.0652 69.4357 56.1962C69.808 56.3273 70.1115 56.5135 70.339 56.7548C70.5735 56.9962 70.739 57.2995 70.8425 57.6512C70.9459 58.0099 70.9942 58.4098 70.9942 58.8581V63.8025H69.7736V62.775H69.7667ZM69.7392 59.989L68.5323 60.0304C68.022 60.051 67.5944 60.0993 67.2566 60.1752C66.9187 60.2511 66.6497 60.3545 66.4497 60.4924C66.2498 60.6303 66.1119 60.7958 66.0291 60.989C65.9463 61.1889 65.905 61.4165 65.905 61.6855C65.905 62.0578 66.0153 62.3612 66.2429 62.5888C66.4704 62.8163 66.8428 62.9267 67.3669 62.9267C68.1117 62.9267 68.6909 62.7475 69.1047 62.3819C69.5184 62.0164 69.7253 61.513 69.7253 60.8785V59.989H69.7392Z" fill="#525455"></path> <path d="M73.0146 56.2236H76.2901C76.8626 56.2236 77.3315 56.2788 77.7039 56.3822C78.0762 56.4857 78.3728 56.6306 78.5866 56.8168C78.8072 57.003 78.959 57.2098 79.0417 57.4374C79.1313 57.6719 79.1728 57.9132 79.1728 58.1614C79.1728 58.5545 79.09 58.8994 78.9176 59.182C78.7452 59.4648 78.4624 59.6924 78.0693 59.8579C78.5107 60.0027 78.8486 60.2303 79.0762 60.5405C79.3038 60.8509 79.4141 61.2094 79.4141 61.6301C79.4141 61.9405 79.3658 62.2231 79.2762 62.4852C79.1865 62.7473 79.0279 62.9749 78.8004 63.1748C78.5728 63.3749 78.2694 63.5265 77.89 63.6368C77.5108 63.7473 77.0212 63.8024 76.435 63.8024H73.0146V56.2236ZM76.3523 59.4579C76.9039 59.4579 77.3038 59.3613 77.5522 59.1683C77.8004 58.9752 77.9246 58.6993 77.9246 58.3408C77.9246 57.9753 77.7935 57.6925 77.5383 57.5063C77.2833 57.3201 76.8626 57.2236 76.2833 57.2236H74.2834V59.4579H76.3523ZM76.4419 62.7887C77.0695 62.7887 77.5108 62.6921 77.7591 62.4922C78.0073 62.2922 78.1383 62.0025 78.1383 61.6164C78.1383 61.2301 78.0004 60.9268 77.7315 60.713C77.4625 60.4924 77.0349 60.3889 76.4557 60.3889H74.2834V62.7956H76.4419V62.7887Z" fill="#525455"></path> <path d="M83.0345 57.2926H80.4072V56.2168H86.8894V57.2926H84.2966V63.8024H83.0345V57.2926Z" fill="#525455"></path> <path d="M91.4203 64.0369C90.848 64.0369 90.3446 63.9403 89.8963 63.7541C89.455 63.5679 89.0757 63.299 88.7654 62.9473C88.4551 62.6025 88.2206 62.1819 88.0551 61.6853C87.8896 61.1957 87.8069 60.6371 87.8069 60.0165C87.8069 59.4097 87.8965 58.8579 88.069 58.3545C88.2413 57.8581 88.4895 57.4305 88.8067 57.0787C89.124 56.7271 89.5102 56.4581 89.9584 56.2651C90.4066 56.0789 90.91 55.9823 91.4617 55.9823C92.0203 55.9823 92.5238 56.0789 92.972 56.2651C93.4133 56.4513 93.7995 56.7202 94.1098 57.065C94.427 57.4098 94.6615 57.8235 94.827 58.3132C94.9924 58.8028 95.0752 59.3476 95.0752 59.9614C95.0752 60.582 94.9924 61.1406 94.8201 61.644C94.6476 62.1474 94.4063 62.575 94.096 62.9266C93.7788 63.2783 93.3996 63.5541 92.9444 63.7473C92.4892 63.9403 91.9859 64.0369 91.4203 64.0369ZM91.441 62.9955C91.8479 62.9955 92.1927 62.9198 92.4823 62.768C92.772 62.6163 93.0133 62.4095 93.1995 62.1474C93.3857 61.8785 93.5236 61.5681 93.6133 61.1957C93.7029 60.8302 93.7444 60.4302 93.7444 59.989C93.7444 59.5476 93.7029 59.1545 93.6133 58.7959C93.5236 58.4304 93.3857 58.1202 93.1995 57.8581C93.0133 57.596 92.772 57.396 92.4823 57.2512C92.1927 57.1064 91.841 57.0306 91.441 57.0306C91.0342 57.0306 90.6894 57.0995 90.4066 57.2512C90.124 57.396 89.8826 57.596 89.6964 57.8581C89.5102 58.1202 89.3723 58.4304 89.2826 58.7959C89.193 59.1614 89.1515 59.5544 89.1515 59.989C89.1515 60.4234 89.193 60.8233 89.2826 61.1957C89.3723 61.5612 89.5032 61.8785 89.6894 62.1474C89.8756 62.4163 90.1101 62.6232 90.3998 62.768C90.6825 62.9198 91.0342 62.9955 91.441 62.9955Z" fill="#525455"></path> <path d="M96.8474 56.2236H98.3851L100.951 62.4715L103.605 56.2236H105.067V63.8093H103.909V58.0649L101.426 63.8093H100.385L98.0197 58.127V63.8093H96.8474V56.2236Z" fill="#525455"></path> <path d="M110.46 64.0369C109.888 64.0369 109.385 63.9403 108.936 63.7541C108.495 63.5679 108.116 63.299 107.805 62.9473C107.495 62.6025 107.261 62.1819 107.095 61.6853C106.93 61.1957 106.847 60.6371 106.847 60.0165C106.847 59.4097 106.937 58.8579 107.109 58.3545C107.281 57.8581 107.53 57.4305 107.847 57.0787C108.164 56.7271 108.55 56.4581 108.998 56.2651C109.447 56.0789 109.95 55.9823 110.502 55.9823C111.06 55.9823 111.564 56.0789 112.012 56.2651C112.453 56.4513 112.84 56.7202 113.15 57.065C113.467 57.4098 113.702 57.8235 113.867 58.3132C114.032 58.8028 114.115 59.3476 114.115 59.9614C114.115 60.582 114.032 61.1406 113.86 61.644C113.688 62.1474 113.446 62.575 113.136 62.9266C112.819 63.2783 112.44 63.5541 111.984 63.7473C111.529 63.9403 111.019 64.0369 110.46 64.0369ZM110.474 62.9955C110.881 62.9955 111.226 62.9198 111.515 62.768C111.805 62.6163 112.046 62.4095 112.233 62.1474C112.419 61.8785 112.557 61.5681 112.646 61.1957C112.736 60.8302 112.777 60.4302 112.777 59.989C112.777 59.5476 112.736 59.1545 112.646 58.7959C112.557 58.4304 112.419 58.1202 112.233 57.8581C112.046 57.596 111.805 57.396 111.515 57.2512C111.226 57.1064 110.874 57.0306 110.474 57.0306C110.067 57.0306 109.723 57.0995 109.44 57.2512C109.157 57.396 108.916 57.596 108.729 57.8581C108.543 58.1202 108.405 58.4304 108.316 58.7959C108.226 59.1614 108.185 59.5544 108.185 59.989C108.185 60.4234 108.226 60.8233 108.316 61.1957C108.405 61.5612 108.536 61.8785 108.723 62.1474C108.909 62.4163 109.143 62.6232 109.433 62.768C109.723 62.9198 110.067 62.9955 110.474 62.9955Z" fill="#525455"></path> <path d="M121.963 54.2928L120.611 54.541C119.846 54.679 119.26 54.8376 118.839 55.0376C118.425 55.2306 118.101 55.4444 117.867 55.672C117.315 56.2167 116.984 57.0443 116.881 58.1683C117.191 57.6787 117.57 57.3063 118.025 57.0512C118.48 56.8029 119.011 56.6719 119.618 56.6719C120.08 56.6719 120.508 56.7477 120.894 56.9064C121.28 57.0581 121.618 57.2926 121.901 57.596C122.184 57.8994 122.404 58.2717 122.563 58.72C122.714 59.1614 122.797 59.6786 122.797 60.2716C122.797 60.8233 122.721 61.3267 122.57 61.7887C122.418 62.2508 122.197 62.6438 121.901 62.9817C121.604 63.3197 121.239 63.5818 120.804 63.7748C120.37 63.961 119.86 64.0575 119.28 64.0575C118.611 64.0575 118.046 63.9403 117.584 63.7128C117.122 63.4783 116.743 63.1611 116.453 62.7473C116.163 62.3336 115.95 61.8509 115.825 61.2923C115.694 60.7337 115.632 60.1199 115.632 59.4648C115.632 58.8579 115.667 58.32 115.729 57.858C115.791 57.3961 115.888 56.9822 116.012 56.6237C116.136 56.265 116.287 55.9547 116.46 55.6789C116.632 55.4099 116.832 55.1617 117.053 54.941C117.412 54.5756 117.901 54.2652 118.522 54.01C119.142 53.7618 119.88 53.5687 120.722 53.4308L121.811 53.2446L121.963 54.2928ZM119.425 57.7132C119.142 57.7132 118.867 57.7546 118.591 57.8373C118.315 57.9201 118.067 58.058 117.846 58.2511C117.584 58.4718 117.384 58.7476 117.253 59.0648C117.115 59.382 117.053 59.7337 117.053 60.1061C117.053 60.9888 117.232 61.6922 117.591 62.2163C117.949 62.7404 118.522 63.0093 119.315 63.0093C120.039 63.0093 120.584 62.7748 120.942 62.306C121.301 61.837 121.48 61.175 121.48 60.3269C121.466 58.5821 120.784 57.7132 119.425 57.7132Z" fill="#525455"></path> <path d="M130.789 63.8024H129.604V58.0926L125.735 63.8024H124.549V56.2168H125.72V61.9405L129.596 56.2168H130.804V63.8024H130.789Z" fill="#525455"></path> <path d="M138.107 57.265H135.597L135.279 59.8716C135.19 60.5957 135.072 61.2095 134.914 61.7129C134.762 62.2162 134.562 62.6369 134.321 62.9541C134.079 63.2782 133.79 63.5127 133.459 63.6576C133.128 63.8024 132.735 63.8714 132.293 63.8714H132.044V62.83H132.19C132.438 62.83 132.666 62.7818 132.866 62.6852C133.065 62.5886 133.244 62.4163 133.404 62.1611C133.562 61.906 133.7 61.5612 133.817 61.1129C133.935 60.6646 134.031 60.0992 134.107 59.4096L134.473 56.2098H139.376V63.7955H138.113V57.265H138.107Z" fill="#525455"></path> <path d="M147.657 63.8024H146.472V58.0926L142.596 63.8024H141.409V56.2168H142.582V61.9405L146.457 56.2168H147.664V63.8024H147.657Z" fill="#525455"></path> <path d="M156.166 61.2648C156.042 62.1267 155.712 62.8025 155.181 63.2922C154.65 63.7886 153.899 64.03 152.933 64.03C152.36 64.03 151.857 63.9404 151.415 63.7542C150.974 63.568 150.609 63.3059 150.312 62.9542C150.015 62.6094 149.795 62.1887 149.643 61.6923C149.492 61.2026 149.416 60.644 149.416 60.0234C149.416 59.4166 149.498 58.865 149.664 58.3615C149.829 57.865 150.064 57.4374 150.375 57.0858C150.685 56.7341 151.063 56.4582 151.505 56.2651C151.946 56.0721 152.45 55.9755 153.015 55.9755C153.912 55.9755 154.608 56.1961 155.105 56.6375C155.601 57.0789 155.911 57.6857 156.05 58.458L154.787 58.6925C154.74 58.4511 154.677 58.2305 154.595 58.0236C154.512 57.8237 154.401 57.6443 154.257 57.4926C154.112 57.3408 153.933 57.2237 153.726 57.1478C153.519 57.065 153.271 57.0237 152.981 57.0237C152.588 57.0237 152.243 57.0995 151.967 57.2512C151.685 57.403 151.457 57.6099 151.278 57.8788C151.098 58.1478 150.968 58.465 150.884 58.8304C150.802 59.1959 150.761 59.5822 150.761 59.9959C150.761 60.4234 150.802 60.8165 150.877 61.175C150.953 61.5406 151.078 61.8509 151.257 62.1199C151.43 62.3888 151.657 62.5957 151.94 62.7473C152.222 62.8991 152.56 62.9818 152.967 62.9818C153.574 62.9818 154.029 62.8301 154.325 62.5198C154.622 62.2095 154.808 61.7888 154.898 61.2578H156.166V61.2648Z" fill="#525455"></path> <path d="M159.787 57.2926H157.16V56.2168H163.642V57.2926H161.05V63.8024H159.787V57.2926Z" fill="#525455"></path> <path d="M168.18 64.0369C167.608 64.0369 167.104 63.9403 166.656 63.7541C166.214 63.5679 165.835 63.299 165.525 62.9473C165.215 62.6025 164.979 62.1819 164.814 61.6853C164.649 61.1957 164.566 60.6371 164.566 60.0165C164.566 59.4097 164.656 58.8579 164.829 58.3545C165 57.8581 165.249 57.4305 165.567 57.0787C165.883 56.7271 166.269 56.4581 166.718 56.2651C167.166 56.0789 167.67 55.9823 168.222 55.9823C168.779 55.9823 169.283 56.0789 169.732 56.2651C170.173 56.4513 170.559 56.7202 170.869 57.065C171.187 57.4098 171.421 57.8235 171.586 58.3132C171.752 58.8028 171.835 59.3476 171.835 59.9614C171.835 60.582 171.752 61.1406 171.579 61.644C171.407 62.1474 171.166 62.575 170.856 62.9266C170.538 63.2783 170.158 63.5541 169.704 63.7473C169.249 63.9403 168.745 64.0369 168.18 64.0369ZM168.193 62.9955C168.6 62.9955 168.945 62.9198 169.235 62.768C169.525 62.6163 169.766 62.4095 169.952 62.1474C170.139 61.8785 170.276 61.5681 170.366 61.1957C170.455 60.8302 170.497 60.4302 170.497 59.989C170.497 59.5476 170.455 59.1545 170.366 58.7959C170.276 58.4304 170.139 58.1202 169.952 57.8581C169.766 57.596 169.525 57.396 169.235 57.2512C168.945 57.1064 168.593 57.0306 168.193 57.0306C167.786 57.0306 167.442 57.0995 167.159 57.2512C166.877 57.396 166.636 57.596 166.449 57.8581C166.263 58.1202 166.124 58.4304 166.035 58.7959C165.945 59.1614 165.904 59.5544 165.904 59.989C165.904 60.4234 165.945 60.8233 166.035 61.1957C166.124 61.5612 166.256 61.8785 166.442 62.1474C166.628 62.4163 166.862 62.6232 167.153 62.768C167.442 62.9198 167.794 62.9955 168.193 62.9955Z" fill="#525455"></path> <path d="M173.6 56.2236H176.876C177.448 56.2236 177.917 56.2788 178.29 56.3822C178.662 56.4857 178.958 56.6306 179.173 56.8168C179.393 57.003 179.544 57.2098 179.627 57.4374C179.717 57.6719 179.759 57.9132 179.759 58.1614C179.759 58.5545 179.675 58.8994 179.504 59.182C179.331 59.4648 179.048 59.6924 178.655 59.8579C179.097 60.0027 179.434 60.2303 179.662 60.5405C179.89 60.8509 180 61.2094 180 61.6301C180 61.9405 179.951 62.2231 179.862 62.4852C179.772 62.7473 179.614 62.9749 179.386 63.1748C179.158 63.3749 178.855 63.5265 178.475 63.6368C178.096 63.7473 177.607 63.8024 177.02 63.8024H173.6V56.2236ZM176.938 59.4579C177.49 59.4579 177.889 59.3613 178.138 59.1683C178.386 58.9752 178.511 58.6993 178.511 58.3408C178.511 57.9753 178.38 57.6925 178.125 57.5063C177.868 57.3201 177.448 57.2236 176.869 57.2236H174.869V59.4579H176.938ZM177.02 62.7887C177.648 62.7887 178.089 62.6921 178.338 62.4922C178.586 62.2922 178.717 62.0025 178.717 61.6164C178.717 61.2301 178.579 60.9268 178.31 60.713C178.041 60.4924 177.613 60.3889 177.035 60.3889H174.863V62.7956H177.02V62.7887Z" fill="#525455"></path> <path d="M77.38 19.6749V13.965H90.8549V7H69.96V43.0938H87.0827L92.303 37.8735V24.8882L86.8345 19.6679H77.38V19.6749ZM84.8759 36.1287H77.3869V26.6398H84.8759V36.1287Z" fill="#525455"></path> <path d="M102.116 7L94.6682 43.0938H101.957L103.64 34.4944H113.094L114.777 43.0938H122.245L114.805 7H102.116ZM104.964 27.7087L107.653 13.965H109.067L111.763 27.7087H104.964Z" fill="#525455"></path> <path d="M142.01 21.7506H132.955V7H125.534V43.0868H132.955V28.7293H142.01V43.0868H149.437V7H142.01V21.7506Z" fill="#525455"></path> <path d="M172.821 24.64L179.179 7H171.573L166.47 21.2748H162.353V7H154.926V43.0868H162.353V28.2536H166.345L171.566 43.0868H179.448L172.821 24.64Z" fill="#525455"></path> <path d="M26.4116 43.0868H33.8318V13.965H43.2724V7H26.4116V43.0868Z" fill="#990032"></path> <path d="M0 7V43.0868H7.25461V33.922H16.7022L22.1707 28.7017V12.2203L16.9572 7H0ZM14.7506 26.9639H7.25461V13.965H14.7436V26.9639H14.7506Z" fill="#990032"></path> <path d="M52.9546 13.965H63.4778V7H50.7547L45.5344 12.2203V37.8735L50.7547 43.0938H63.5399V36.1287H52.9546V13.965Z" fill="#990032"></path> </svg> 