<?xml version="1.0" encoding="UTF-8"?> <!-- Creator: CorelDRAW --> <svg xmlns="http://www.w3.org/2000/svg" xmlns:xlink="http://www.w3.org/1999/xlink" xmlns:xodm="http://www.corel.com/coreldraw/odm/2003" xml:space="preserve" width="1080px" height="1080px" style="shape-rendering:geometricPrecision; text-rendering:geometricPrecision; image-rendering:optimizeQuality; fill-rule:evenodd; clip-rule:evenodd" viewBox="0 0 137.72 137.72"> <defs> <style type="text/css"> <![CDATA[ .fil1 {fill:#FEFEFE;fill-rule:nonzero} .fil0 {fill:url(#id0)} ]]> </style> <linearGradient id="id0" gradientUnits="userSpaceOnUse" x1="20.17" y1="117.55" x2="117.55" y2="20.17"> <stop offset="0" style="stop-opacity:1; stop-color:#4D0000"></stop> <stop offset="1" style="stop-opacity:1; stop-color:#F03224"></stop> </linearGradient> </defs> <g id="Слой_x0020_1"> <metadata id="CorelCorpID_0Corel-Layer"></metadata> <circle class="fil0" cx="68.86" cy="68.86" r="68.86"></circle> <path class="fil1" d="M43.31 27.29c2.15,0 4.09,0.87 5.5,2.28 1.4,1.4 2.27,3.35 2.27,5.49 0,2.15 -0.87,4.09 -2.27,5.5 -1.41,1.4 -3.35,2.27 -5.5,2.27 -2.14,0 -4.09,-0.87 -5.49,-2.27 -1.41,-1.41 -2.28,-3.35 -2.28,-5.5 0,-2.14 0.87,-4.09 2.28,-5.49 1.4,-1.41 3.35,-2.28 5.49,-2.28zm19.49 51.04l-0.02 20.95c0,0.55 0.23,1.05 0.59,1.41l0.05 0.05c0.35,0.33 0.83,0.54 1.36,0.54 0.55,0 1.05,-0.23 1.41,-0.59l0.01 0 -0.01 0c0.37,-0.36 0.59,-0.86 0.59,-1.41l0 -24.24 0 -0.03 0 -0.02 0 -0.03 0 -0.02 0 -0.03 0 0 0 -0.02 -0.01 -0.03 0 0 0 -0.03 0 -0.02 0 0 0 -0.03 -0.01 -0.02 0 -0.02 -0.01 -0.03 0 -0.02 0 -0.03 0 0 -0.01 -0.02 0 -0.03 0 0 -0.01 -0.02 0 0 -0.01 -0.03 0 0 0 -0.02 0 0 -0.01 -0.02 0 0 0 -0.03 0 0 -0.01 -0.02 -0.01 -0.02 0 0 -0.01 -0.03 0 -0.02 0 0 -0.01 -0.02 0 0 -0.01 -0.03 0 0 -0.01 -0.02 0 0 -0.01 -0.02 0 0 -0.01 -0.03 -0.01 -0.02 0 0 -0.01 -0.02 0 0 -0.01 -0.02 0 0 -0.01 -0.02 0 0 -0.01 -0.03 0 0 -0.01 -0.02 0 0 -0.01 -0.02 0 0 -0.01 -0.02 0 0 -0.01 -0.02 0 0 -0.01 -0.02 0 0 -0.01 -0.02 0 0 -0.02 -0.03 0 0 -0.01 -0.02 -0.01 -0.02 0 0 -0.01 -0.02 0 0 -0.02 -0.02 0 0 -0.01 -0.02 0 0 -0.01 -0.02 0 0 -0.02 -0.02 0 0 -0.01 -0.02 0 0 -0.02 -0.02 0 0 -0.01 -0.01 0 -0.01 -0.02 -0.01 0 0 -0.01 -0.02 0 0 -0.02 -0.02 0 0 -0.01 -0.02 0 0 -0.02 -0.02 0 0 -0.01 -0.02 0 0 -0.02 -0.01 0 0 -0.02 -0.02 0 0 -0.01 -0.02 0 0 -0.02 -0.02 0 0 -0.02 -0.01 0 0c-0.35,-0.36 -0.84,-0.59 -1.38,-0.59l0 0 -0.03 0 -15.87 0c-0.68,0 -1.24,-0.55 -1.24,-1.23l0 -13.19c0,-0.68 0.56,-1.23 1.24,-1.23 0.35,0 0.66,0.14 0.89,0.38l5.35 4.94c0.11,0.1 0.22,0.19 0.34,0.26l0.05 0.03c0.1,0.05 0.21,0.1 0.34,0.14 1.29,0.43 8.8,0.12 9.67,0.12 0.55,0 1.05,-0.22 1.41,-0.58l0.01 0c0.36,-0.36 0.58,-0.86 0.58,-1.42 0,-0.54 -0.22,-1.04 -0.59,-1.41l-0.05 -0.05c-0.35,-0.33 -0.83,-0.54 -1.36,-0.54l-7.54 0c-0.11,0 0,0 -0.06,0l-0.07 0.01c-0.18,0.01 -0.36,-0.02 -0.52,-0.08l-0.02 -0.01 0 -0.01 -0.02 0 -0.01 -0.01 -0.02 -0.01 -0.01 0 -0.02 -0.01 -0.01 0 -0.01 -0.01 -0.01 -0.01 -0.02 -0.01 -0.01 0 -0.02 -0.01 -0.01 -0.01 -0.01 -0.01 -0.01 0 -0.02 -0.01 -0.01 -0.01 -0.01 -0.01 -0.01 -0.01 -0.01 -0.01 -0.02 -0.01 -0.01 0 -0.01 -0.02 -0.01 0 -0.02 -0.02 0 0c-0.02,-0.01 -0.04,-0.03 -0.05,-0.05l-11.53 -10.64c-0.09,-0.08 -0.16,-0.17 -0.22,-0.26 -0.18,-0.07 -0.37,-0.13 -0.56,-0.17 -0.26,-0.06 -0.53,-0.09 -0.83,-0.09 -1.06,0 -2.02,0.44 -2.72,1.13 -0.7,0.7 -1.13,1.66 -1.13,2.72l0 21.8c0,1.06 0.43,2.02 1.13,2.72 0.44,0.44 0.98,0.77 1.59,0.96l18.87 0c0.68,0 1.23,0.55 1.23,1.23zm1.97 -7.76l0.01 0 0 0 0.06 0.01 0 0 0.05 0 0.01 0 0.05 0 0 0 0.06 0 0.05 0 0.01 0 0.04 0.01 0.01 0 0.05 0 0.01 0 0.04 0.01 0.02 0 0.04 0 0.01 0 0.04 0.01 0.02 0 0.03 0.01c0.99,0.13 1.88,0.59 2.55,1.26l0 0 0 0.01 0.04 0.03 0 0 0.04 0.04 0 0 0.04 0.04 0 0 0.03 0.04 0 0 0.04 0.04 0 0 0.03 0.04 0 0 0.04 0.04 0 0 0.03 0.04 0 0 0.04 0.04 0 0 0.03 0.05 0 0 0.03 0.04 0 0 0.04 0.04 0 0 0.03 0.04 0 0 0.03 0.05 0 0 0.03 0.04 0 0 0.03 0.05 0 0 0.03 0.04 0 0 0.03 0.05 0 0 0.03 0.04 0 0 0.03 0.05 0.02 0.04 0 0 0.03 0.05 0 0 0.03 0.05 0 0 0.02 0.04 0 0 0.03 0.05 0 0 0.02 0.05 0 0 0.03 0.05 0 0 0.02 0.05 0 0 0.03 0.05 0 0 0.02 0.04 0 0 0.02 0.05 0 0 0.02 0.05 0.02 0.05 0.02 0.05 0 0 0.02 0.06 0 0 0.02 0.05 0 0 0.02 0.05 0 0 0.02 0.05 0.02 0.05 0 0 0.01 0.05 0.02 0.06 0 0 0.01 0.05 0.02 0.05 0 0 0.01 0.06 0 0 0.02 0.05 0.01 0.05 0.01 0.06 0 0 0.01 0.05 0 0 0.01 0.06 0 0 0.01 0.05 0 0 0.01 0.06 0.01 0.05 0 0 0.01 0.06 0 0 0.01 0.05 0.01 0.06 0 0 0 0.05 0 0 0.01 0.06 0 0.06 0.01 0.05 0 0.06 0 0.06 0 0.05 0 0.06 0 0.06 0 24.24c0,1.23 -0.5,2.34 -1.31,3.15l0 0c-0.81,0.81 -1.92,1.31 -3.15,1.31 -1.18,0 -2.27,-0.47 -3.07,-1.24l-0.08 -0.07c-0.81,-0.81 -1.31,-1.92 -1.31,-3.15l0 -19.55c-5.5,0 -11.08,0 -16.49,0 -1.74,0 -3.32,-0.71 -4.46,-1.85 -1.14,-1.14 -1.85,-2.72 -1.85,-4.46l0 -21.8c0,-1.74 0.71,-3.31 1.85,-4.46 1.14,-1.14 2.72,-1.85 4.46,-1.85 1.71,0 2.35,0.32 3.57,1.45l10.88 10.04 7.27 0c1.19,0 2.27,0.47 3.08,1.24l0.07 0.07c0.81,0.81 1.31,1.93 1.31,3.15 0,1.23 -0.5,2.34 -1.3,3.15l-0.01 0.01c-0.81,0.81 -1.93,1.31 -3.15,1.31l-7.54 0c-0.48,0 -1.24,-0.01 -1.71,-0.04l-0.02 0c-0.4,-0.02 -0.8,-0.09 -1.17,-0.21 -0.26,-0.09 -0.52,-0.21 -0.78,-0.35l-0.09 -0.05c-0.26,-0.15 -0.51,-0.34 -0.75,-0.56l-3.35 -3.09 0 9.14 14.62 0 0.01 0zm23.53 -9.77c-0.68,0 -1.23,-0.55 -1.23,-1.23 0,-0.68 0.55,-1.23 1.23,-1.23l2 0 0 -9.02c-1.05,0.65 -2.27,1.02 -3.59,1.02 -0.33,0 -0.68,-0.03 -1.03,-0.08l-2.01 4.87c-0.21,0.51 -0.6,0.89 -1.08,1.09 -0.46,0.2 -1.01,0.21 -1.52,0l-3.62 -1.48c-0.51,-0.21 -0.89,-0.61 -1.09,-1.08 -0.19,-0.47 -0.21,-1.02 0,-1.53l9.3 -22.64c0.2,-0.51 0.6,-0.88 1.07,-1.08 0.47,-0.2 1.02,-0.21 1.53,0l0 0 3.62 1.48c0.51,0.21 0.89,0.61 1.08,1.08 0.2,0.47 0.22,1.02 0.01,1.53l-2.24 5.45c0.72,0.52 1.33,1.17 1.8,1.93 0.65,1.05 1.03,2.29 1.03,3.61 0,1.16 -0.29,2.26 -0.8,3.21l0 11.64 2 0c0.68,0 1.23,0.55 1.23,1.23 0,0.68 -0.55,1.23 -1.23,1.23l-6.46 0zm-0.26 -22.77c0.01,-0.03 0.03,-0.06 0.04,-0.1l2.44 -5.94 -2.77 -1.14 -8.95 21.79 2.78 1.14 6.46 -15.75zm-1.39 9.84l0.06 0.01c1.21,0 2.31,-0.5 3.1,-1.29 0.82,-0.82 1.29,-1.93 1.29,-3.1 0,-0.85 -0.24,-1.64 -0.66,-2.31 -0.19,-0.32 -0.42,-0.6 -0.69,-0.85l-3.1 7.54zm10.3 47.71l0 -25.7 -24.47 0c-0.68,0 -1.23,-0.55 -1.23,-1.23l0 -5.54c0,-0.68 0.55,-1.23 1.23,-1.23l32.47 0c0.68,0 1.23,0.55 1.23,1.23l0 5.54 0 33.7c0,0.68 -0.55,1.24 -1.23,1.24l-21.09 0c-0.68,0 -1.23,-0.56 -1.23,-1.24l0 -5.54c0,-0.68 0.55,-1.23 1.23,-1.23l13.09 0zm2.46 -25.7l0 26.93c0,0.68 -0.55,1.24 -1.23,1.24l-13.08 0 0 3.07 18.62 0 0 -31.24 -4.31 0zm4.31 -5.54l-30.01 0 0 3.08 24.47 0 5.54 0 0 -3.08zm-51.62 35.28c0.57,0.36 0.75,1.12 0.38,1.7 -0.36,0.57 -1.11,0.74 -1.69,0.38l-5.68 -3.59 -5.68 3.59c-0.58,0.36 -1.33,0.19 -1.7,-0.38 -0.36,-0.58 -0.18,-1.34 0.39,-1.7l5.76 -3.63 0 -9.79 -6.49 0c-1.61,0 -3.07,-0.66 -4.13,-1.72l-0.07 -0.08c-1.02,-1.05 -1.65,-2.48 -1.65,-4.05l0 -32.94c0,-0.68 0.55,-1.23 1.23,-1.23 0.68,0 1.23,0.55 1.23,1.23l0 32.94c0,0.9 0.36,1.73 0.94,2.33l0.06 0.06c0.61,0.61 1.46,0.99 2.39,0.99l7.72 0 10.9 0c0.68,0 1.23,0.55 1.23,1.23 0,0.68 -0.55,1.24 -1.23,1.24l-9.67 0 0 9.79 5.76 3.63zm-5.03 -68.31c-0.96,-0.96 -2.29,-1.56 -3.76,-1.56 -1.46,0 -2.79,0.6 -3.75,1.56 -0.96,0.96 -1.56,2.28 -1.56,3.75 0,1.47 0.6,2.79 1.56,3.76 0.96,0.96 2.29,1.55 3.75,1.55 1.47,0 2.8,-0.59 3.76,-1.55 0.96,-0.97 1.55,-2.29 1.55,-3.76 0,-1.47 -0.59,-2.79 -1.55,-3.75z"></path> </g> </svg> 