<?xml version="1.0" encoding="UTF-8"?> <svg xmlns="http://www.w3.org/2000/svg" width="1081" height="1081" viewBox="0 0 1081 1081" fill="none"> <path d="M540.067 1080.13C838.338 1080.13 1080.13 838.338 1080.13 540.067C1080.13 241.796 838.338 0 540.067 0C241.796 0 0 241.796 0 540.067C0 838.338 241.796 1080.13 540.067 1080.13Z" fill="url(#paint0_linear_3409_170)"></path> <path fill-rule="evenodd" clip-rule="evenodd" d="M836.824 479.698H790.837C788.251 479.698 785.771 480.725 783.943 482.554C782.114 484.382 781.087 486.862 781.087 489.448V557.841H739.87L678.478 483.41C677.563 482.301 676.414 481.409 675.114 480.797C673.814 480.184 672.395 479.867 670.957 479.867H572.794V428.602C572.794 426.016 571.767 423.536 569.939 421.707C568.11 419.879 565.63 418.852 563.044 418.852H474.033V383.992H563.668C564.949 383.992 566.217 383.74 567.4 383.25C568.582 382.76 569.657 382.042 570.563 381.136C571.468 380.231 572.186 379.156 572.676 377.973C573.166 376.79 573.418 375.523 573.418 374.242C573.418 372.962 573.166 371.694 572.676 370.511C572.186 369.328 571.468 368.253 570.563 367.348C569.657 366.443 568.582 365.724 567.4 365.234C566.217 364.744 564.949 364.492 563.668 364.492H364.898C363.618 364.492 362.35 364.744 361.167 365.234C359.984 365.724 358.909 366.443 358.004 367.348C357.099 368.253 356.381 369.328 355.891 370.511C355.401 371.694 355.148 372.962 355.148 374.242C355.148 375.523 355.401 376.79 355.891 377.973C356.381 379.156 357.099 380.231 358.004 381.136C358.909 382.042 359.984 382.76 361.167 383.25C362.35 383.74 363.618 383.992 364.898 383.992H454.533V418.852H364.898C362.313 418.852 359.833 419.879 358.004 421.707C356.176 423.536 355.148 426.016 355.148 428.602V479.867H303.883C301.297 479.867 298.817 480.894 296.989 482.723C295.16 484.551 294.133 487.031 294.133 489.617V561.098H252.734V502.877C252.734 500.291 251.707 497.811 249.879 495.983C248.05 494.154 245.57 493.127 242.984 493.127C240.399 493.127 237.919 494.154 236.09 495.983C234.262 497.811 233.234 500.291 233.234 502.877V638.818C233.234 641.404 234.262 643.884 236.09 645.712C237.919 647.541 240.399 648.568 242.984 648.568C245.57 648.568 248.05 647.541 249.879 645.712C251.707 643.884 252.734 641.404 252.734 638.818V580.598H294.133V662.303C294.133 664.889 295.16 667.369 296.989 669.197C298.817 671.025 301.297 672.053 303.883 672.053H361.219L395.331 718.06C397.171 720.536 400.076 721.999 403.164 721.999H735.275C737.861 721.999 740.341 720.971 742.169 719.143C743.998 717.315 745.025 714.835 745.025 712.249V622.094H781.087V689.453C781.087 692.039 782.114 694.519 783.943 696.347C785.771 698.176 788.251 699.203 790.837 699.203H836.824C839.41 699.203 841.89 698.176 843.719 696.347C845.547 694.519 846.574 692.039 846.574 689.453V489.448C846.574 486.862 845.547 484.382 843.719 482.554C841.89 480.725 839.41 479.698 836.824 479.698ZM735.275 602.594C732.689 602.594 730.209 603.621 728.381 605.449C726.552 607.278 725.525 609.758 725.525 612.344V702.499H408.071L373.959 656.492C373.052 655.269 371.871 654.276 370.511 653.591C369.151 652.907 367.649 652.552 366.127 652.553H313.633V499.367H364.898C367.484 499.367 369.964 498.34 371.793 496.511C373.621 494.683 374.648 492.203 374.648 489.617V438.352H553.294V489.617C553.294 492.203 554.322 494.683 556.15 496.511C557.979 498.34 560.459 499.367 563.044 499.367H666.362L727.754 573.799C729.607 576.048 732.363 577.348 735.275 577.348H781.087V602.6L735.275 602.594ZM827.074 679.703H800.587V499.198H827.074V679.703Z" fill="white"></path> <defs> <linearGradient id="paint0_linear_3409_170" x1="158.104" y1="921.896" x2="921.896" y2="158.104" gradientUnits="userSpaceOnUse"> <stop stop-color="#4D0000"></stop> <stop offset="1" stop-color="#F03224"></stop> </linearGradient> </defs> </svg> 