<?xml version="1.0" encoding="UTF-8"?> <svg xmlns="http://www.w3.org/2000/svg" width="1081" height="1081" viewBox="0 0 1081 1081" fill="none"> <path d="M540.067 1080.13C838.338 1080.13 1080.13 838.338 1080.13 540.067C1080.13 241.796 838.338 0 540.067 0C241.796 0 0 241.796 0 540.067C0 838.338 241.796 1080.13 540.067 1080.13Z" fill="url(#paint0_linear_3415_290)"></path> <path fill-rule="evenodd" clip-rule="evenodd" d="M770.75 618C768.164 618 765.684 616.973 763.856 615.144C762.027 613.316 761 610.836 761 608.25V527H707.375C704.789 527 702.309 525.973 700.481 524.144C698.652 522.316 697.625 519.836 697.625 517.25C697.625 514.664 698.652 512.184 700.481 510.356C702.309 508.527 704.789 507.5 707.375 507.5H770.75C773.336 507.5 775.816 508.527 777.644 510.356C779.473 512.184 780.5 514.664 780.5 517.25V608.25C780.5 610.836 779.473 613.316 777.644 615.144C775.816 616.973 773.336 618 770.75 618Z" fill="white"></path> <path fill-rule="evenodd" clip-rule="evenodd" d="M770.75 709H715.5C712.914 709 710.434 707.973 708.606 706.144C706.777 704.316 705.75 701.836 705.75 699.25C705.75 696.664 706.777 694.184 708.606 692.356C710.434 690.527 712.914 689.5 715.5 689.5H761V618H719.79C717.204 618 714.724 616.973 712.896 615.144C711.067 613.316 710.04 610.836 710.04 608.25C710.04 605.664 711.067 603.184 712.896 601.356C714.724 599.527 717.204 598.5 719.79 598.5H770.75C773.336 598.5 775.816 599.527 777.644 601.356C779.473 603.184 780.5 605.664 780.5 608.25V699.25C780.5 701.836 779.473 704.316 777.644 706.144C775.816 707.973 773.336 709 770.75 709Z" fill="white"></path> <path fill-rule="evenodd" clip-rule="evenodd" d="M770.75 800H696.455C693.869 800 691.389 798.973 689.561 797.144C687.732 795.316 686.705 792.836 686.705 790.25C686.705 787.664 687.732 785.184 689.561 783.356C691.389 781.527 693.869 780.5 696.455 780.5H761V699.25C761 696.664 762.027 694.184 763.856 692.356C765.684 690.527 768.164 689.5 770.75 689.5C773.336 689.5 775.816 690.527 777.644 692.356C779.473 694.184 780.5 696.664 780.5 699.25V790.25C780.5 792.836 779.473 795.316 777.644 797.144C775.816 798.973 773.336 800 770.75 800ZM400.25 618C385.597 618 371.544 612.179 361.182 601.818C350.821 591.456 345 577.403 345 562.75C345 548.097 350.821 534.044 361.182 523.682C371.544 513.321 385.597 507.5 400.25 507.5H510.75C513.336 507.5 515.816 508.527 517.644 510.356C519.473 512.184 520.5 514.664 520.5 517.25C520.5 519.836 519.473 522.316 517.644 524.144C515.816 525.973 513.336 527 510.75 527H400.25C390.769 527 381.675 530.767 374.971 537.471C368.267 544.175 364.5 553.269 364.5 562.75C364.5 572.231 368.267 581.325 374.971 588.029C381.675 594.733 390.769 598.5 400.25 598.5C402.836 598.5 405.316 599.527 407.144 601.356C408.973 603.184 410 605.664 410 608.25C410 610.836 408.973 613.316 407.144 615.144C405.316 616.973 402.836 618 400.25 618ZM770.75 527C768.164 527 765.684 525.973 763.856 524.144C762.027 522.316 761 519.836 761 517.25V384H715.5C712.914 384 710.434 382.973 708.606 381.144C706.777 379.316 705.75 376.836 705.75 374.25C705.75 371.664 706.777 369.184 708.606 367.356C710.434 365.527 712.914 364.5 715.5 364.5H770.75C773.336 364.5 775.816 365.527 777.644 367.356C779.473 369.184 780.5 371.664 780.5 374.25V517.25C780.5 519.836 779.473 522.316 777.644 524.144C775.816 525.973 773.336 527 770.75 527ZM416.5 384H400.25C397.664 384 395.184 382.973 393.356 381.144C391.527 379.316 390.5 376.836 390.5 374.25C390.5 371.664 391.527 369.184 393.356 367.356C395.184 365.527 397.664 364.5 400.25 364.5H416.5C419.086 364.5 421.566 365.527 423.394 367.356C425.223 369.184 426.25 371.664 426.25 374.25C426.25 376.836 425.223 379.316 423.394 381.144C421.566 382.973 419.086 384 416.5 384Z" fill="white"></path> <path fill-rule="evenodd" clip-rule="evenodd" d="M400.25 709C385.597 709 371.544 703.179 361.182 692.818C350.821 682.456 345 668.403 345 653.75C345 639.097 350.821 625.044 361.182 614.682C371.544 604.321 385.597 598.5 400.25 598.5H523.75C526.336 598.5 528.816 599.527 530.644 601.356C532.473 603.184 533.5 605.664 533.5 608.25C533.5 610.836 532.473 613.316 530.644 615.144C528.816 616.973 526.336 618 523.75 618H400.25C390.769 618 381.675 621.767 374.971 628.471C368.267 635.175 364.5 644.269 364.5 653.75C364.5 663.231 368.267 672.325 374.971 679.029C381.675 685.733 390.769 689.5 400.25 689.5C402.836 689.5 405.316 690.527 407.144 692.356C408.973 694.184 410 696.664 410 699.25C410 701.836 408.973 704.316 407.144 706.144C405.316 707.973 402.836 709 400.25 709Z" fill="white"></path> <path fill-rule="evenodd" clip-rule="evenodd" d="M521.345 800H400.25C385.597 800 371.544 794.179 361.182 783.818C350.821 773.456 345 759.403 345 744.75C345 730.097 350.821 716.044 361.182 705.682C371.544 695.321 385.597 689.5 400.25 689.5H521.345C523.931 689.5 526.411 690.527 528.239 692.356C530.068 694.184 531.095 696.664 531.095 699.25C531.095 701.836 530.068 704.316 528.239 706.144C526.411 707.973 523.931 709 521.345 709H400.25C390.769 709 381.675 712.767 374.971 719.471C368.267 726.175 364.5 735.269 364.5 744.75C364.5 754.231 368.267 763.325 374.971 770.029C381.675 776.733 390.769 780.5 400.25 780.5H521.345C523.931 780.5 526.411 781.527 528.239 783.356C530.068 785.184 531.095 787.664 531.095 790.25C531.095 792.836 530.068 795.316 528.239 797.144C526.411 798.973 523.931 800 521.345 800ZM698.145 325.5H497.75C495.164 325.5 492.684 324.473 490.856 322.644C489.027 320.816 488 318.336 488 315.75V250.75C488 248.164 489.027 245.684 490.856 243.856C492.684 242.027 495.164 241 497.75 241H619.105C671.95 241 700.03 288.06 707.505 312.955C707.941 314.412 708.03 315.951 707.765 317.449C707.5 318.947 706.888 320.362 705.979 321.581C705.069 322.8 703.887 323.789 702.527 324.47C701.167 325.15 699.666 325.503 698.145 325.5ZM507.5 306H683.65C675.265 288.905 655.765 260.5 619.04 260.5H507.5V306Z" fill="white"></path> <path fill-rule="evenodd" clip-rule="evenodd" d="M640.75 384H582.25C579.664 384 577.184 382.973 575.356 381.144C573.527 379.316 572.5 376.836 572.5 374.25V315.75C572.5 313.164 573.527 310.684 575.356 308.856C577.184 307.027 579.664 306 582.25 306H640.75C643.336 306 645.816 307.027 647.644 308.856C649.473 310.684 650.5 313.164 650.5 315.75V374.25C650.5 376.836 649.473 379.316 647.644 381.144C645.816 382.973 643.336 384 640.75 384ZM592 364.5H631V325.5H592V364.5ZM497.75 325.5H452.25C449.664 325.5 447.184 324.473 445.356 322.644C443.527 320.816 442.5 318.336 442.5 315.75V270.25C442.5 267.664 443.527 265.184 445.356 263.356C447.184 261.527 449.664 260.5 452.25 260.5H497.75C500.336 260.5 502.816 261.527 504.644 263.356C506.473 265.184 507.5 267.664 507.5 270.25V315.75C507.5 318.336 506.473 320.816 504.644 322.644C502.816 324.473 500.336 325.5 497.75 325.5ZM462 306H488V280H462V306Z" fill="white"></path> <path fill-rule="evenodd" clip-rule="evenodd" d="M454.98 468.5C453.655 468.474 452.349 468.178 451.142 467.631C449.935 467.083 448.852 466.295 447.96 465.315L437.105 453.29C435.643 451.715 434.742 449.702 434.542 447.563C434.343 445.423 434.855 443.278 436 441.46L488 360.86V315.75C488 313.164 489.027 310.684 490.856 308.856C492.684 307.027 495.164 306 497.75 306H536.75C539.336 306 541.816 307.027 543.644 308.856C545.473 310.684 546.5 313.164 546.5 315.75V375.745C546.498 378.298 545.494 380.749 543.705 382.57L462 465.575C461.086 466.508 459.993 467.248 458.787 467.75C457.581 468.253 456.286 468.508 454.98 468.5ZM507.5 325.5V363.72C507.495 365.588 506.954 367.416 505.94 368.985L460.44 438.925L527 371.78V325.5H507.5ZM686.25 839H523.75C521.164 839 518.684 837.973 516.856 836.144C515.027 834.316 514 831.836 514 829.25V615.205C514.005 609.685 515.098 604.22 517.217 599.123C519.337 594.026 522.44 589.397 526.35 585.5L592.39 519.33C595.577 516.144 597.743 512.08 598.611 507.658C599.479 503.236 599.011 498.655 597.265 494.5L561.97 410.65C561.469 409.456 561.212 408.175 561.212 406.88C561.212 405.585 561.469 404.304 561.97 403.11L575.425 370.61C576.146 368.817 577.384 367.279 578.981 366.192C580.578 365.104 582.463 364.515 584.395 364.5H638.54C640.005 364.507 641.449 364.843 642.765 365.485C644.082 366.126 645.237 367.056 646.145 368.205C648.745 371.39 709 448.35 728.5 600.515C736.495 662.395 697.495 824.7 696 831.525C695.479 833.7 694.226 835.63 692.45 836.991C690.675 838.352 688.486 839.062 686.25 839ZM533.5 819.5H678.515C686.12 786.61 715.5 654.205 709 602.985C692.49 474.35 645.43 400.77 633.665 384H590.895L581.47 406.75L615.205 486.83C618.496 494.564 619.394 503.106 617.784 511.355C616.173 519.605 612.128 527.182 606.17 533.11L540 599.15C537.907 601.276 536.255 603.794 535.14 606.561C534.024 609.327 533.467 612.287 533.5 615.27V819.5ZM354.75 572.5C352.164 572.5 349.684 571.473 347.856 569.644C346.027 567.816 345 565.336 345 562.75V419.75C345.017 405.102 350.844 391.059 361.201 380.701C371.559 370.344 385.602 364.517 400.25 364.5C402.836 364.5 405.316 365.527 407.144 367.356C408.973 369.184 410 371.664 410 374.25C410 376.836 408.973 379.316 407.144 381.144C405.316 382.973 402.836 384 400.25 384C390.774 384.017 381.691 387.789 374.99 394.49C368.289 401.191 364.517 410.274 364.5 419.75V562.75C364.5 565.336 363.473 567.816 361.644 569.644C359.816 571.473 357.336 572.5 354.75 572.5Z" fill="white"></path> <path fill-rule="evenodd" clip-rule="evenodd" d="M618 722C605.144 722 592.577 718.188 581.888 711.046C571.199 703.903 562.868 693.752 557.948 681.874C553.028 669.997 551.741 656.928 554.249 644.319C556.757 631.71 562.948 620.129 572.038 611.038C581.129 601.948 592.71 595.757 605.319 593.249C617.928 590.741 630.997 592.028 642.874 596.948C654.752 601.868 664.903 610.199 672.046 620.888C679.188 631.577 683 644.144 683 657C683 674.239 676.152 690.772 663.962 702.962C651.772 715.152 635.239 722 618 722ZM618 611.5C609.001 611.5 600.204 614.169 592.722 619.168C585.239 624.168 579.407 631.274 575.964 639.588C572.52 647.902 571.619 657.05 573.374 665.877C575.13 674.703 579.463 682.81 585.827 689.173C592.19 695.537 600.297 699.87 609.123 701.626C617.95 703.381 627.098 702.48 635.412 699.037C643.726 695.593 650.832 689.761 655.832 682.278C660.832 674.796 663.5 665.999 663.5 657C663.5 644.933 658.706 633.36 650.173 624.827C641.64 616.294 630.067 611.5 618 611.5Z" fill="white"></path> <defs> <linearGradient id="paint0_linear_3415_290" x1="158.104" y1="921.896" x2="921.896" y2="158.104" gradientUnits="userSpaceOnUse"> <stop stop-color="#4D0000"></stop> <stop offset="1" stop-color="#F03224"></stop> </linearGradient> </defs> </svg> 