<?xml version="1.0" encoding="UTF-8"?> <svg xmlns="http://www.w3.org/2000/svg" width="1081" height="1081" viewBox="0 0 1081 1081" fill="none"> <path d="M540.067 1080.13C838.338 1080.13 1080.13 838.338 1080.13 540.067C1080.13 241.796 838.338 0 540.067 0C241.796 0 0 241.796 0 540.067C0 838.338 241.796 1080.13 540.067 1080.13Z" fill="url(#paint0_linear_3429_113)"></path> <path fill-rule="evenodd" clip-rule="evenodd" d="M319.391 273.109V812.154H749.054V273.109H319.391ZM729.547 792.654H338.884V292.609H729.547V792.654Z" fill="white"></path> <path fill-rule="evenodd" clip-rule="evenodd" d="M596.332 617.589C605.498 604.756 610.424 589.38 610.424 573.61C610.424 531.587 576.24 497.397 534.224 497.397C492.208 497.397 458.018 531.587 458.018 573.61C458.018 590.003 463.277 605.161 472.123 617.602L422.47 688.66C421.346 690.27 420.734 692.181 420.713 694.144C420.692 696.107 421.263 698.031 422.353 699.664C424.582 702.999 428.632 704.617 432.558 703.766L470.505 695.381L477.395 730.845C477.779 732.823 478.767 734.634 480.223 736.028C481.679 737.422 483.531 738.331 485.525 738.628C487.518 738.926 489.555 738.599 491.355 737.692C493.155 736.784 494.629 735.342 495.575 733.562L534.218 660.814L572.88 733.562C573.826 735.342 575.3 736.784 577.1 737.692C578.9 738.599 580.937 738.926 582.93 738.628C584.924 738.331 586.776 737.422 588.232 736.028C589.688 734.634 590.676 732.823 591.06 730.845L597.963 695.381L635.858 703.759C637.775 704.181 639.775 704.015 641.596 703.283C643.418 702.551 644.977 701.288 646.07 699.658C647.159 698.025 647.731 696.101 647.711 694.138C647.692 692.175 647.081 690.264 645.959 688.653L596.332 617.589ZM534.218 516.897C565.483 516.897 590.917 542.338 590.917 573.61C590.917 604.862 565.483 630.283 534.218 630.283C502.953 630.283 477.512 604.862 477.512 573.61C477.518 542.345 502.953 516.897 534.218 516.897ZM491.285 700.08L487.749 681.848C487.499 680.572 486.996 679.359 486.271 678.28C485.546 677.201 484.613 676.278 483.526 675.564C482.439 674.85 481.221 674.36 479.943 674.124C478.665 673.887 477.352 673.907 476.082 674.184L452.786 679.332L485.676 632.266C495.258 640.221 506.649 645.698 518.845 648.217L491.285 700.08ZM592.412 674.191C591.142 673.911 589.829 673.888 588.55 674.123C587.271 674.359 586.052 674.848 584.965 675.561C583.878 676.274 582.945 677.198 582.22 678.278C581.495 679.358 580.993 680.571 580.745 681.848L577.189 700.106L549.616 648.223C561.814 645.704 573.205 640.224 582.786 632.266L615.656 679.339L592.412 674.191ZM418.18 416.992H647.266C649.852 416.992 652.332 415.965 654.16 414.136C655.988 412.308 657.016 409.828 657.016 407.242C657.016 404.656 655.988 402.176 654.16 400.348C652.332 398.519 649.852 397.492 647.266 397.492H418.18C415.594 397.492 413.114 398.519 411.285 400.348C409.457 402.176 408.43 404.656 408.43 407.242C408.43 409.828 409.457 412.308 411.285 414.136C413.114 415.965 415.594 416.992 418.18 416.992Z" fill="white"></path> <defs> <linearGradient id="paint0_linear_3429_113" x1="158.104" y1="921.896" x2="921.896" y2="158.104" gradientUnits="userSpaceOnUse"> <stop stop-color="#4D0000"></stop> <stop offset="1" stop-color="#F03224"></stop> </linearGradient> </defs> </svg> 