<?xml version="1.0" encoding="UTF-8"?> <!-- Creator: CorelDRAW --> <svg xmlns="http://www.w3.org/2000/svg" xmlns:xlink="http://www.w3.org/1999/xlink" xmlns:xodm="http://www.corel.com/coreldraw/odm/2003" xml:space="preserve" width="1080px" height="1080px" style="shape-rendering:geometricPrecision; text-rendering:geometricPrecision; image-rendering:optimizeQuality; fill-rule:evenodd; clip-rule:evenodd" viewBox="0 0 61.49 61.49"> <defs> <style type="text/css"> <![CDATA[ .str5 {stroke:#FEFEFE;stroke-width:0.71;stroke-linecap:round;stroke-linejoin:round;stroke-miterlimit:22.9256} .str4 {stroke:#FEFEFE;stroke-width:0.71;stroke-linecap:round;stroke-linejoin:round;stroke-miterlimit:22.9256} .str7 {stroke:#FEFEFE;stroke-width:0.71;stroke-linecap:round;stroke-linejoin:round;stroke-miterlimit:22.9256} .str6 {stroke:#FEFEFE;stroke-width:0.71;stroke-linecap:round;stroke-linejoin:round;stroke-miterlimit:22.9256} .str3 {stroke:#FEFEFE;stroke-width:0.71;stroke-linecap:round;stroke-linejoin:round;stroke-miterlimit:22.9256} .str2 {stroke:#FEFEFE;stroke-width:1.02;stroke-linecap:round;stroke-linejoin:round;stroke-miterlimit:22.9256} .str0 {stroke:white;stroke-width:1.02;stroke-linecap:round;stroke-linejoin:round;stroke-miterlimit:22.9256} .str1 {stroke:white;stroke-width:1.02;stroke-linecap:round;stroke-linejoin:round;stroke-miterlimit:22.9256} .fil1 {fill:none} .fil2 {fill:white;fill-rule:nonzero} .fil0 {fill:url(#id0)} ]]> </style> <linearGradient id="id0" gradientUnits="userSpaceOnUse" x1="9.01" y1="52.49" x2="52.49" y2="9.01"> <stop offset="0" style="stop-opacity:1; stop-color:#4D0000"></stop> <stop offset="1" style="stop-opacity:1; stop-color:#F03224"></stop> </linearGradient> </defs> <g id="Слой_x0020_1"> <metadata id="CorelCorpID_0Corel-Layer"></metadata> <circle class="fil0" cx="30.75" cy="30.75" r="30.75"></circle> <g id="_1778882388752"> <path class="fil1 str0" d="M25.35 12.12c0.12,3.27 0.72,5.83 1.8,7.66l-9.35 0c-1.47,0 -2.67,1.21 -2.67,2.67 0,1.47 1.2,2.68 2.67,2.68l-0.42 0c-1.24,0 -2.25,1.01 -2.25,2.25 0,1.24 1.01,2.25 2.25,2.25 -1.24,0 -2.25,1.01 -2.25,2.25 0,1.24 1.01,2.25 2.25,2.25l-0.26 0c-1.09,0 -1.99,0.9 -1.99,1.99 0,1.1 0.9,1.99 1.99,1.99l21.67 0 0 -3.98 0 -4.5 0 -4.5 0 -1.37c-0.69,-1.78 -2.46,-3.63 -5.31,-5.57 -2.68,-1.42 -2.98,-4.13 -3.67,-6.87 -0.3,-1.22 -1.08,-2.56 -2.57,-2.3 -1.59,0.27 -1.95,1.76 -1.89,3.1z"></path> <line class="fil1 str0" x1="17.8" y1="25.13" x2="22.68" y2="25.13"></line> <g> <path class="fil2" d="M17.38 30.14c-0.28,0 -0.51,-0.23 -0.51,-0.51 0,-0.28 0.23,-0.51 0.51,-0.51l0 1.02zm5.3 0l-5.3 0 0 -1.02 5.3 0 0 1.02zm0 -1.02c0.28,0 0.51,0.23 0.51,0.51 0,0.28 -0.23,0.51 -0.51,0.51l0 -1.02z"></path> </g> <g> <path class="fil2" d="M17.38 34.65c-0.28,0 -0.51,-0.23 -0.51,-0.52 0,-0.28 0.23,-0.51 0.51,-0.51l0 1.03zm5.3 0l-5.3 0 0 -1.03 5.3 0 0 1.03zm0 -1.03c0.28,0 0.51,0.23 0.51,0.51 0,0.29 -0.23,0.52 -0.51,0.52l0 -1.03z"></path> </g> <circle class="fil1 str1" cx="42.59" cy="35.93" r="1.02"></circle> <g> <rect class="fil1 str2" x="38.79" y="22.27" width="7.59" height="16.64"></rect> <g> <polygon class="fil1 str3" points="14.52,43.18 15.53,45.23 17.8,45.57 16.16,47.17 16.54,49.43 14.52,48.37 12.49,49.43 12.87,47.17 11.23,45.57 13.5,45.23 "></polygon> <polygon class="fil1 str4" points="22.63,43.18 23.65,45.23 25.91,45.57 24.28,47.17 24.66,49.43 22.63,48.37 20.6,49.43 20.98,47.17 19.35,45.57 21.61,45.23 "></polygon> <polygon class="fil1 str5" points="30.75,43.18 31.76,45.23 34.03,45.57 32.39,47.17 32.77,49.43 30.75,48.37 28.72,49.43 29.1,47.17 27.46,45.57 29.73,45.23 "></polygon> <polygon class="fil1 str6" points="38.86,43.18 39.88,45.23 42.14,45.57 40.51,47.17 40.89,49.43 38.86,48.37 36.83,49.43 37.21,47.17 35.58,45.57 37.84,45.23 "></polygon> <polygon class="fil1 str7" points="46.98,43.18 47.99,45.23 50.26,45.57 48.62,47.17 49,49.43 46.98,48.37 44.95,49.43 45.33,47.17 43.69,45.57 45.96,45.23 "></polygon> </g> </g> </g> </g> </svg> 