<?xml version="1.0" encoding="UTF-8"?> <svg xmlns="http://www.w3.org/2000/svg" width="522" height="367" viewBox="0 0 522 367" fill="none"><path d="M0.021141 249.749C0.021141 199.818 0.021141 149.888 0.021141 99.9364C0.697652 93.217 1.2896 86.4765 2.05067 79.7571C3.6151 66.0225 6.63826 52.7106 13.6571 40.5607C24.7983 21.2901 42.9796 12.4788 63.4017 7.2808C85.7477 1.57567 108.643 0.13882 131.602 0.11769C211.114 0.0120391 290.625 -0.0513568 370.136 0.0542938C386.436 0.0542938 402.756 0.392381 419.014 1.32211C436.667 2.31522 454.129 4.89309 470.873 10.9997C492.246 18.7967 507.087 32.9539 514.233 54.9081C519.92 72.4038 521.399 90.4912 521.547 108.663C521.928 152.973 522.33 197.304 521.569 241.614C521.273 258.983 519.053 276.521 515.586 293.552C508.799 326.789 489.392 349.42 455.947 358.992C436.836 364.464 417.28 366.683 397.577 366.746C311.618 367.063 225.637 366.979 139.678 367C116.17 367 92.8299 365.394 70.1246 358.759C45.4742 351.554 25.5806 338.2 14.0376 314.407C7.06108 300.039 3.78423 284.656 2.05067 268.893C1.35302 262.512 0.676511 256.13 0 249.749H0.021141ZM200.945 180.844C200.945 199.016 200.903 217.166 200.945 235.338C200.987 252.052 213.355 259.553 228.196 251.82C262.951 233.732 297.644 215.56 332.399 197.494C339.207 193.965 344.048 189.127 344.027 181.034C344.006 172.962 339.186 168.166 332.336 164.637C297.665 146.761 263.078 128.737 228.449 110.776C213.355 102.958 200.966 110.438 200.924 127.363C200.881 145.176 200.924 163.01 200.924 180.822L200.945 180.844Z" fill="#F97F02"></path></svg> 