<?xml version="1.0" encoding="UTF-8"?> <svg xmlns="http://www.w3.org/2000/svg" viewBox="0 0 100 100" fill-rule="evenodd"><rect x="0" y="0" width="100" height="100" fill="#f2f4f4" rx="50" ry="50"></rect><g style="transform-origin: center center; transform: scale(0.6);"><path d="M97.8 57.62c-2.64-10.44-5.19-11.44-13.64-13.29L82.83 44c-5.51-1.23-15.42-8.66-18.68-11.11A19.88 19.88 0 0 0 52.28 29H35.57c-4.27 0-5.25.55-6.6 1.91l-.16.18-5.13 7.11c-.68.69-1.25 1.38-1.76 2-1.25 1.52-2.08 2.53-3.61 2.82l-8.09 1C6.38 44.75 4 47 4 50v14.5A1.5 1.5 0 0 0 5.5 66h7.59a9 9 0 0 0 17.54 0h34.46a9 9 0 0 0 17.54 0h8.66a6.73 6.73 0 0 0 6.51-8.38ZM24.24 42.1c.51-.62 1-1.26 1.65-1.87L26 40l5.13-7.11c.65-.65 1.08-.94 4.39-.94h16.7a16.86 16.86 0 0 1 10.07 3.33c4.34 3.26 8 5.79 11.14 7.67h-50ZM21.87 70a6 6 0 1 1 6-6 6 6 0 0 1-6 6Zm52 0a6 6 0 1 1 6-6 6 6 0 0 1-6 6Zm20.35-8.43A3.69 3.69 0 0 1 91.29 63H82.8a9 9 0 0 0-17.88 0H30.8a9 9 0 0 0-17.88 0H7V50c0-2.11 2.89-2.82 3.69-3l7.88-1h60.67a18.06 18.06 0 0 0 2.93 1l1.35.3c7.68 1.68 9.07 2 11.37 11.09a3.72 3.72 0 0 1-.67 3.18Z" fill="#f97f02"></path></g></svg> 
