<?xml version="1.0" encoding="UTF-8"?> <svg xmlns="http://www.w3.org/2000/svg" width="381" height="380" viewBox="0 0 381 380" fill="none"><path d="M190.876 0.904174C291.546 -1.45583 386.026 85.8042 380.326 200.754C375.716 293.784 295.686 385.024 180.326 379.784C86.9763 375.544 -4.5437 294.994 1.2463 178.964C5.9663 84.3242 86.9163 -0.605826 190.886 0.904174H190.876ZM361.596 190.594C363.166 99.6042 288.346 18.9242 190.846 18.8942C95.7663 18.8642 24.2763 94.5842 19.7763 180.834C14.5663 280.744 94.2163 361.454 190.596 361.664C284.836 361.864 362.526 284.324 361.596 190.604V190.594Z" fill="#F97F02"></path><path d="M245.297 304.084C227.987 302.704 212.457 297.344 197.467 289.854C174.497 278.364 154.347 262.924 136.467 244.754C112.797 220.694 92.2666 194.264 82.1866 161.334C76.5666 142.964 74.7966 124.374 85.4166 107.014C89.0766 101.024 94.4366 96.0536 99.1566 90.7436C100.797 88.8936 103.127 87.6436 104.667 85.7336C113.607 74.6136 134.037 76.1936 142.107 85.4536C151.987 96.7836 163.327 106.844 173.917 117.564C182.747 126.514 183.307 140.914 175.217 150.604C172.027 154.424 168.587 158.074 164.997 161.524C162.367 164.044 162.137 166.584 163.787 169.534C175.067 189.714 190.527 205.704 210.927 216.814C214.417 218.714 217.117 218.424 219.877 215.684C223.297 212.304 226.737 208.914 230.407 205.814C239.977 197.744 254.157 198.084 263.037 206.784C274.657 218.164 286.217 229.624 297.487 241.354C304.797 248.964 306.177 262.554 299.567 270.834C290.827 281.804 282.097 293.424 268.207 298.474C260.867 301.144 252.947 302.264 245.297 304.084ZM246.167 284.204C256.357 285.084 265.647 280.754 273.277 272.384C276.407 268.954 279.527 265.514 282.747 262.174C285.887 258.914 285.747 255.394 282.867 252.434C272.517 241.824 261.997 231.374 251.407 221.004C247.997 217.664 244.407 217.854 240.867 221.124C238.297 223.494 235.877 226.024 233.397 228.494C224.317 237.554 213.367 239.384 202.077 233.234C178.587 220.424 160.347 202.274 147.677 178.684C141.587 167.354 143.397 156.574 152.577 147.344C155.047 144.864 157.637 142.504 159.997 139.924C163.037 136.594 163.167 132.844 160.057 129.664C149.707 119.054 139.257 108.534 128.627 98.2036C125.537 95.2036 121.857 95.0736 118.477 98.4736C115.667 101.294 112.787 104.074 109.717 106.604C97.4366 116.754 94.8466 130.054 97.2566 144.874C99.9766 161.564 107.367 176.354 116.407 190.404C129.607 210.904 145.567 228.944 164.137 244.804C178.357 256.954 193.467 267.644 210.437 275.524C221.317 280.574 232.607 284.464 246.177 284.204H246.167Z" fill="#F97F02"></path></svg>
