<?xml version="1.0" encoding="UTF-8"?> <svg xmlns="http://www.w3.org/2000/svg" width="384" height="384" viewBox="0 0 384 384" fill="none"><path d="M0 255C0 213 0 171 0 129C0.25 124.9 0.55 120.81 0.74 116.71C1.53 99.25 2.62 81.82 6.79 64.75C13.94 35.49 31.56 16.17 60.79 7.86C74.79 3.88 89.18 2.4 103.63 1.46C112.08 0.9 120.54 0.48 129 0C171 0 213 0 255 0C258.97 0.25 262.94 0.57 266.91 0.73C283.38 1.41 299.79 2.53 315.97 6C349.01 13.1 370.11 32.64 377.28 65.89C379.95 78.27 381.09 91.01 382.47 103.64C383.39 112.05 383.52 120.54 384 129V254.25C383.75 258.47 383.45 262.69 383.26 266.91C382.48 284.5 381.4 302.05 377.2 319.24C369.8 349.46 351.45 369.29 320.99 376.52C307.96 379.61 294.46 380.87 281.11 382.43C272.47 383.44 263.71 383.51 255.01 384.01H129.01C125.04 383.76 121.07 383.46 117.1 383.27C98.65 382.39 80.22 381.36 62.25 376.52C35.38 369.28 17.21 352.86 8.76 326.07C4.11 311.31 2.5 296.08 1.48 280.75C0.9 272.17 0.49 263.58 0 255ZM216.02 157.67C216.02 157.67 216 157.67 215.99 157.67C215.99 148.05 216.1 138.42 215.95 128.8C215.85 122.32 213.38 120.03 206.96 120.01C195.46 119.98 183.96 120.01 172.46 120.01C169.71 120.01 166.85 119.55 164.24 120.16C161.9 120.7 159.33 121.98 157.78 123.75C155.84 125.95 156.99 128.72 158.59 131C159.16 131.82 159.77 132.62 160.42 133.38C165.8 139.66 168 147.05 168.01 155.19C168.03 168.44 168.03 181.69 168 194.94C168 196.81 167.98 198.71 167.66 200.54C166.75 205.73 163.34 207.33 159.06 204.17C155.79 201.75 152.76 198.81 150.2 195.64C139.34 182.24 131.46 167.06 124.61 151.34C121.33 143.8 118.56 136.03 115.57 128.36C113.82 123.88 111.09 120.28 105.91 120.17C95.29 119.96 84.66 119.92 74.04 120.19C68.45 120.33 65.84 123.51 66.65 129.15C67.39 134.31 68.56 139.48 70.22 144.41C81.13 176.73 98.11 205.75 119.53 232.09C133.34 249.07 150.74 261.53 171.88 268.16C183.84 271.91 196.06 273.39 208.48 270.81C214.08 269.64 215.96 267.06 216 261.3C216.07 252.55 215.97 243.8 216.07 235.05C216.16 227.26 219.71 224.73 227.23 227.16C229.58 227.92 231.95 228.96 233.94 230.39C238.39 233.59 242.96 236.77 246.85 240.59C254.87 248.46 262.48 256.76 270.28 264.85C273.43 268.11 276.73 271.59 281.53 271.7C292.76 271.95 304.01 272.06 315.23 271.58C321 271.34 323.82 266.97 321.92 261.52C320.3 256.88 318.19 252.08 315.08 248.35C304.95 236.17 294.27 224.44 283.8 212.54C281.91 210.39 279.94 208.29 278.14 206.06C275.74 203.1 275.59 199.92 277.66 196.7C278.94 194.7 280.3 192.76 281.58 190.76C290.56 176.64 299.72 162.64 308.39 148.34C311.6 143.05 314.15 137.23 316.17 131.37C318.87 123.54 316.08 120.13 307.69 120.06C299.19 119.99 290.68 120.27 282.19 119.98C274.56 119.72 269.92 122.9 266.89 129.95C259.22 147.78 249.99 164.8 237.73 179.96C234.23 184.29 230.18 188.34 225.8 191.77C220.58 195.86 216.56 193.65 216.07 186.96C215.99 185.84 216.02 184.71 216.02 183.59C216.02 174.97 216.02 166.34 216.02 157.72V157.67Z" fill="#F97F02"></path></svg>
