<?xml version="1.0" encoding="UTF-8"?> <svg xmlns="http://www.w3.org/2000/svg" viewBox="0 0 100 100" fill-rule="evenodd"><rect x="0" y="0" width="100" height="100" fill="#f2f4f4" rx="50" ry="50"></rect><g style="transform-origin: center center; transform: scale(0.6);"><path d="M84.809 68.167A1.5 1.5 0 0 0 83.8 66.52l-26.475-8.84 8.312-8.312a1.5 1.5 0 0 0 0-2.122L49.972 31.583l2.974-2.975 4.59 4.59c.293.293.677.439 1.061.439s.768-.146 1.061-.439a1.5 1.5 0 0 0 0-2.121l-5.649-5.649-.001-.002-.002-.001-5.541-5.542a1.5 1.5 0 1 0-2.121 2.121l4.483 4.483-2.974 2.975L31.14 12.751l-.001-.001L20.95 2.562a1.501 1.501 0 0 0-2.547.858l-3.116 22.859c-.01.071-.008.14-.007.209l-6.728 6.728a1.5 1.5 0 0 0 0 2.121L43.05 69.834l.003.002a1.48 1.48 0 0 0 .496.328c.174.071.364.11.562.11h.032l39.215-.832a1.5 1.5 0 0 0 1.451-1.275zM20.967 6.821l6.99 6.989-9.196 9.196 2.206-16.185zm9.111 9.11 32.377 32.377L44.11 66.652 11.733 34.275l18.345-18.344zM47.81 67.195l7.144-7.144 19.693 6.575-26.837.569zm36.869 6.353a1.5 1.5 0 0 0-2.708 0c-1.041 2.178-6.232 13.221-6.232 16.743 0 4.183 3.403 7.586 7.586 7.586s7.585-3.403 7.585-7.586c0-3.521-5.19-14.565-6.231-16.743zm-1.354 21.329a4.592 4.592 0 0 1-4.586-4.586c0-1.801 2.44-7.785 4.586-12.533 2.145 4.749 4.585 10.733 4.585 12.533a4.59 4.59 0 0 1-4.585 4.586z" fill="#f97f02"></path></g></svg>
